<?xml version="1.0" encoding="UTF-8" standalone="no"?>
<svg xmlns="http://www.w3.org/2000/svg" xmlns:xlink="http://www.w3.org/1999/xlink" contentScriptType="application/ecmascript" contentStyleType="text/css" height="667px" preserveAspectRatio="none" style="width:1114px;height:667px;background:#FFFFFF;" version="1.1" viewBox="0 0 1114 667" width="1114px" zoomAndPan="magnify"><defs><filter height="300%" id="f5fn9lve0n2b9" width="300%" x="-1" y="-1"><feGaussianBlur result="blurOut" stdDeviation="2.0"/><feColorMatrix in="blurOut" result="blurOut2" type="matrix" values="0 0 0 0 0 0 0 0 0 0 0 0 0 0 0 0 0 0 .4 0"/><feOffset dx="4.0" dy="4.0" in="blurOut2" result="blurOut3"/><feBlend in="SourceGraphic" in2="blurOut3" mode="normal"/></filter></defs><g><!--MD5=[96ca7e1771b03e9c73587bb66ca68a0a]
class AnalyseException--><rect codeLine="14" fill="#F0F8FF" filter="url(#f5fn9lve0n2b9)" height="32" id="AnalyseException" style="stroke:#40E0D0;stroke-width:1.5;" width="138" x="758" y="189"/><ellipse cx="773" cy="205" fill="#FFFF00" rx="11" ry="11" style="stroke:#40E0D0;stroke-width:1.0;"/><path d="M775.0781,206.8125 L775.4688,207.7969 L775.0781,207.7969 C774.625,207.7969 774.5156,207.8125 774.3594,207.9219 C774.1094,208.0781 773.9531,208.3594 773.9531,208.6563 C773.9531,208.9219 774.0938,209.1719 774.3125,209.3281 C774.4531,209.4531 774.6563,209.5 775.0781,209.5 L777.4375,209.5 C777.7969,209.5 778.0156,209.4688 778.1563,209.375 C778.4063,209.2344 778.5625,208.9375 778.5625,208.6563 C778.5625,208.375 778.4219,208.125 778.2031,207.9688 C778.0313,207.8281 777.875,207.7969 777.4063,207.7969 L774.0156,199.5938 L770.3438,199.5938 C769.8906,199.5938 769.7656,199.6094 769.6094,199.7031 C769.3594,199.875 769.2031,200.1563 769.2031,200.4375 C769.2031,200.7188 769.3438,200.9688 769.5625,201.1406 C769.7344,201.25 769.9063,201.2813 770.3438,201.2813 L771.4219,201.2813 L768.7813,207.7969 C768.3594,207.7969 768.2031,207.8125 768.0469,207.9219 C767.7969,208.0781 767.6406,208.3594 767.6406,208.6563 C767.6406,209.2188 768.0156,209.5 768.7656,209.5 L771.0313,209.5 C771.3906,209.5 771.6094,209.4688 771.7344,209.375 C772,209.2344 772.1406,208.9375 772.1406,208.6563 C772.1406,208.375 772.0156,208.125 771.7969,207.9531 C771.625,207.8281 771.4844,207.7969 771.0313,207.7969 L770.6406,207.7969 L771.0313,206.8125 L775.0781,206.8125 Z M774.375,205.1094 L771.7031,205.1094 L773.0469,201.8438 L774.375,205.1094 Z " fill="#000000"/><text fill="#000000" font-family="sans-serif" font-size="12" font-style="italic" lengthAdjust="spacing" textLength="106" x="787" y="209.1543">AnalyseException</text><!--MD5=[5c6c7d52e42032554528404b62c1d271]
class RuntimeException--><rect fill="#F0F8FF" filter="url(#f5fn9lve0n2b9)" height="32" id="RuntimeException" style="stroke:#40E0D0;stroke-width:1.5;" width="138" x="758" y="40.5"/><ellipse cx="773" cy="56.5" fill="#00CED1" rx="11" ry="11" style="stroke:#40E0D0;stroke-width:1.0;"/><path d="M775.3438,52.1719 C774.4063,51.7344 773.8125,51.5938 772.9375,51.5938 C770.3125,51.5938 768.3125,53.6719 768.3125,56.3906 L768.3125,57.5156 C768.3125,60.0938 770.4219,61.9844 773.3125,61.9844 C774.5313,61.9844 775.6875,61.6875 776.4375,61.1406 C777.0156,60.7344 777.3438,60.2813 777.3438,59.8906 C777.3438,59.4375 776.9531,59.0469 776.4844,59.0469 C776.2656,59.0469 776.0625,59.125 775.875,59.3125 C775.4219,59.7969 775.4219,59.7969 775.2344,59.8906 C774.8125,60.1563 774.125,60.2813 773.3594,60.2813 C771.3125,60.2813 770.0156,59.1875 770.0156,57.4844 L770.0156,56.3906 C770.0156,54.6094 771.2656,53.2969 773,53.2969 C773.5781,53.2969 774.1875,53.4531 774.6563,53.7031 C775.1406,53.9844 775.3125,54.2031 775.4063,54.6094 C775.4688,55.0156 775.5,55.1406 775.6406,55.2656 C775.7813,55.4063 776.0156,55.5156 776.2344,55.5156 C776.5,55.5156 776.7656,55.375 776.9375,55.1563 C777.0469,55 777.0781,54.8125 777.0781,54.3906 L777.0781,52.9688 C777.0781,52.5313 777.0625,52.4063 776.9688,52.25 C776.8125,51.9844 776.5313,51.8438 776.2344,51.8438 C775.9375,51.8438 775.7344,51.9375 775.5156,52.25 L775.3438,52.1719 Z " fill="#000000"/><text fill="#000000" font-family="sans-serif" font-size="12" lengthAdjust="spacing" textLength="106" x="787" y="60.6543">RuntimeException</text><!--MD5=[528294b680d9ea6b779f09b314c2c62a]
class AnalyseLexicaleException--><rect fill="#F0F8FF" filter="url(#f5fn9lve0n2b9)" height="32" id="AnalyseLexicaleException" style="stroke:#40E0D0;stroke-width:1.5;" width="187" x="673.5" y="327"/><ellipse cx="688.5" cy="343" fill="#00CED1" rx="11" ry="11" style="stroke:#40E0D0;stroke-width:1.0;"/><path d="M690.8438,338.6719 C689.9063,338.2344 689.3125,338.0938 688.4375,338.0938 C685.8125,338.0938 683.8125,340.1719 683.8125,342.8906 L683.8125,344.0156 C683.8125,346.5938 685.9219,348.4844 688.8125,348.4844 C690.0313,348.4844 691.1875,348.1875 691.9375,347.6406 C692.5156,347.2344 692.8438,346.7813 692.8438,346.3906 C692.8438,345.9375 692.4531,345.5469 691.9844,345.5469 C691.7656,345.5469 691.5625,345.625 691.375,345.8125 C690.9219,346.2969 690.9219,346.2969 690.7344,346.3906 C690.3125,346.6563 689.625,346.7813 688.8594,346.7813 C686.8125,346.7813 685.5156,345.6875 685.5156,343.9844 L685.5156,342.8906 C685.5156,341.1094 686.7656,339.7969 688.5,339.7969 C689.0781,339.7969 689.6875,339.9531 690.1563,340.2031 C690.6406,340.4844 690.8125,340.7031 690.9063,341.1094 C690.9688,341.5156 691,341.6406 691.1406,341.7656 C691.2813,341.9063 691.5156,342.0156 691.7344,342.0156 C692,342.0156 692.2656,341.875 692.4375,341.6563 C692.5469,341.5 692.5781,341.3125 692.5781,340.8906 L692.5781,339.4688 C692.5781,339.0313 692.5625,338.9063 692.4688,338.75 C692.3125,338.4844 692.0313,338.3438 691.7344,338.3438 C691.4375,338.3438 691.2344,338.4375 691.0156,338.75 L690.8438,338.6719 Z " fill="#000000"/><text fill="#000000" font-family="sans-serif" font-size="12" lengthAdjust="spacing" textLength="155" x="702.5" y="347.1543">AnalyseLexicaleException</text><!--MD5=[1aeef48b5154da28e0410fd8cc99dd53]
class AnalyseSyntaxiqueException--><rect fill="#F0F8FF" filter="url(#f5fn9lve0n2b9)" height="32" id="AnalyseSyntaxiqueException" style="stroke:#40E0D0;stroke-width:1.5;" width="204" x="896" y="327"/><ellipse cx="911" cy="343" fill="#00CED1" rx="11" ry="11" style="stroke:#40E0D0;stroke-width:1.0;"/><path d="M913.3438,338.6719 C912.4063,338.2344 911.8125,338.0938 910.9375,338.0938 C908.3125,338.0938 906.3125,340.1719 906.3125,342.8906 L906.3125,344.0156 C906.3125,346.5938 908.4219,348.4844 911.3125,348.4844 C912.5313,348.4844 913.6875,348.1875 914.4375,347.6406 C915.0156,347.2344 915.3438,346.7813 915.3438,346.3906 C915.3438,345.9375 914.9531,345.5469 914.4844,345.5469 C914.2656,345.5469 914.0625,345.625 913.875,345.8125 C913.4219,346.2969 913.4219,346.2969 913.2344,346.3906 C912.8125,346.6563 912.125,346.7813 911.3594,346.7813 C909.3125,346.7813 908.0156,345.6875 908.0156,343.9844 L908.0156,342.8906 C908.0156,341.1094 909.2656,339.7969 911,339.7969 C911.5781,339.7969 912.1875,339.9531 912.6563,340.2031 C913.1406,340.4844 913.3125,340.7031 913.4063,341.1094 C913.4688,341.5156 913.5,341.6406 913.6406,341.7656 C913.7813,341.9063 914.0156,342.0156 914.2344,342.0156 C914.5,342.0156 914.7656,341.875 914.9375,341.6563 C915.0469,341.5 915.0781,341.3125 915.0781,340.8906 L915.0781,339.4688 C915.0781,339.0313 915.0625,338.9063 914.9688,338.75 C914.8125,338.4844 914.5313,338.3438 914.2344,338.3438 C913.9375,338.3438 913.7344,338.4375 913.5156,338.75 L913.3438,338.6719 Z " fill="#000000"/><text fill="#000000" font-family="sans-serif" font-size="12" lengthAdjust="spacing" textLength="172" x="925" y="347.1543">AnalyseSyntaxiqueException</text><!--MD5=[2665c2ba5c70529efefc76e520a11cef]
class ArbreAbstrait--><rect codeLine="21" fill="#F0F8FF" filter="url(#f5fn9lve0n2b9)" height="99.2188" id="ArbreAbstrait" style="stroke:#40E0D0;stroke-width:1.5;" width="178" x="458" y="7"/><ellipse cx="502.75" cy="23" fill="#FFFF00" rx="11" ry="11" style="stroke:#40E0D0;stroke-width:1.0;"/><path d="M504.8281,24.8125 L505.2188,25.7969 L504.8281,25.7969 C504.375,25.7969 504.2656,25.8125 504.1094,25.9219 C503.8594,26.0781 503.7031,26.3594 503.7031,26.6563 C503.7031,26.9219 503.8438,27.1719 504.0625,27.3281 C504.2031,27.4531 504.4063,27.5 504.8281,27.5 L507.1875,27.5 C507.5469,27.5 507.7656,27.4688 507.9063,27.375 C508.1563,27.2344 508.3125,26.9375 508.3125,26.6563 C508.3125,26.375 508.1719,26.125 507.9531,25.9688 C507.7813,25.8281 507.625,25.7969 507.1563,25.7969 L503.7656,17.5938 L500.0938,17.5938 C499.6406,17.5938 499.5156,17.6094 499.3594,17.7031 C499.1094,17.875 498.9531,18.1563 498.9531,18.4375 C498.9531,18.7188 499.0938,18.9688 499.3125,19.1406 C499.4844,19.25 499.6563,19.2813 500.0938,19.2813 L501.1719,19.2813 L498.5313,25.7969 C498.1094,25.7969 497.9531,25.8125 497.7969,25.9219 C497.5469,26.0781 497.3906,26.3594 497.3906,26.6563 C497.3906,27.2188 497.7656,27.5 498.5156,27.5 L500.7813,27.5 C501.1406,27.5 501.3594,27.4688 501.4844,27.375 C501.75,27.2344 501.8906,26.9375 501.8906,26.6563 C501.8906,26.375 501.7656,26.125 501.5469,25.9531 C501.375,25.8281 501.2344,25.7969 500.7813,25.7969 L500.3906,25.7969 L500.7813,24.8125 L504.8281,24.8125 Z M504.125,23.1094 L501.4531,23.1094 L502.7969,19.8438 L504.125,23.1094 Z " fill="#000000"/><text fill="#000000" font-family="sans-serif" font-size="12" font-style="italic" lengthAdjust="spacing" textLength="80" x="523.25" y="27.1543">ArbreAbstrait</text><line style="stroke:#40E0D0;stroke-width:1.5;" x1="459" x2="635" y1="39" y2="39"/><text fill="#000000" font-family="sans-serif" font-size="11" lengthAdjust="spacing" textLength="63" x="464" y="53.2104">int noLigne</text><line style="stroke:#40E0D0;stroke-width:1.5;" x1="459" x2="635" y1="59.8047" y2="59.8047"/><text fill="#000000" font-family="sans-serif" font-size="11" lengthAdjust="spacing" textLength="166" x="464" y="74.0151">protected ArbreAbstrait(int n)</text><text fill="#000000" font-family="sans-serif" font-size="11" lengthAdjust="spacing" textLength="77" x="464" y="86.8198">void verifier()</text><text fill="#000000" font-family="sans-serif" font-size="11" lengthAdjust="spacing" textLength="82" x="464" y="99.6245">String toMIPS()</text><!--MD5=[73d95de7e47f81fcbe55bf25c4d927c9]
class BlocDInstructions--><rect codeLine="28" fill="#F0F8FF" filter="url(#f5fn9lve0n2b9)" height="78.4141" id="BlocDInstructions" style="stroke:#40E0D0;stroke-width:1.5;" width="142" x="547" y="166"/><ellipse cx="564.7" cy="182" fill="#00CED1" rx="11" ry="11" style="stroke:#40E0D0;stroke-width:1.0;"/><path d="M567.0438,177.6719 C566.1063,177.2344 565.5125,177.0938 564.6375,177.0938 C562.0125,177.0938 560.0125,179.1719 560.0125,181.8906 L560.0125,183.0156 C560.0125,185.5938 562.1219,187.4844 565.0125,187.4844 C566.2313,187.4844 567.3875,187.1875 568.1375,186.6406 C568.7156,186.2344 569.0438,185.7813 569.0438,185.3906 C569.0438,184.9375 568.6531,184.5469 568.1844,184.5469 C567.9656,184.5469 567.7625,184.625 567.575,184.8125 C567.1219,185.2969 567.1219,185.2969 566.9344,185.3906 C566.5125,185.6563 565.825,185.7813 565.0594,185.7813 C563.0125,185.7813 561.7156,184.6875 561.7156,182.9844 L561.7156,181.8906 C561.7156,180.1094 562.9656,178.7969 564.7,178.7969 C565.2781,178.7969 565.8875,178.9531 566.3563,179.2031 C566.8406,179.4844 567.0125,179.7031 567.1063,180.1094 C567.1688,180.5156 567.2,180.6406 567.3406,180.7656 C567.4813,180.9063 567.7156,181.0156 567.9344,181.0156 C568.2,181.0156 568.4656,180.875 568.6375,180.6563 C568.7469,180.5 568.7781,180.3125 568.7781,179.8906 L568.7781,178.4688 C568.7781,178.0313 568.7625,177.9063 568.6688,177.75 C568.5125,177.4844 568.2313,177.3438 567.9344,177.3438 C567.6375,177.3438 567.4344,177.4375 567.2156,177.75 L567.0438,177.6719 Z " fill="#000000"/><text fill="#000000" font-family="sans-serif" font-size="12" lengthAdjust="spacing" textLength="104" x="579.3" y="186.1543">BlocDInstructions</text><line style="stroke:#40E0D0;stroke-width:1.5;" x1="548" x2="688" y1="198" y2="198"/><text fill="#000000" font-family="sans-serif" font-size="11" lengthAdjust="spacing" textLength="130" x="553" y="212.2104">BlocDInstructions(int n)</text><text fill="#000000" font-family="sans-serif" font-size="11" lengthAdjust="spacing" textLength="77" x="553" y="225.0151">void verifier()</text><text fill="#000000" font-family="sans-serif" font-size="11" lengthAdjust="spacing" textLength="82" x="553" y="237.8198">String toMIPS()</text><!--MD5=[818ce9cd1eb68477d70117a0a20ac581]
class Instruction--><rect codeLine="37" fill="#F0F8FF" filter="url(#f5fn9lve0n2b9)" height="52.8047" id="Instruction" style="stroke:#40E0D0;stroke-width:1.5;" width="162" x="202" y="178.5"/><ellipse cx="245.8" cy="194.5" fill="#FFFF00" rx="11" ry="11" style="stroke:#40E0D0;stroke-width:1.0;"/><path d="M247.8781,196.3125 L248.2688,197.2969 L247.8781,197.2969 C247.425,197.2969 247.3156,197.3125 247.1594,197.4219 C246.9094,197.5781 246.7531,197.8594 246.7531,198.1563 C246.7531,198.4219 246.8938,198.6719 247.1125,198.8281 C247.2531,198.9531 247.4563,199 247.8781,199 L250.2375,199 C250.5969,199 250.8156,198.9688 250.9563,198.875 C251.2063,198.7344 251.3625,198.4375 251.3625,198.1563 C251.3625,197.875 251.2219,197.625 251.0031,197.4688 C250.8313,197.3281 250.675,197.2969 250.2063,197.2969 L246.8156,189.0938 L243.1438,189.0938 C242.6906,189.0938 242.5656,189.1094 242.4094,189.2031 C242.1594,189.375 242.0031,189.6563 242.0031,189.9375 C242.0031,190.2188 242.1438,190.4688 242.3625,190.6406 C242.5344,190.75 242.7063,190.7813 243.1438,190.7813 L244.2219,190.7813 L241.5813,197.2969 C241.1594,197.2969 241.0031,197.3125 240.8469,197.4219 C240.5969,197.5781 240.4406,197.8594 240.4406,198.1563 C240.4406,198.7188 240.8156,199 241.5656,199 L243.8313,199 C244.1906,199 244.4094,198.9688 244.5344,198.875 C244.8,198.7344 244.9406,198.4375 244.9406,198.1563 C244.9406,197.875 244.8156,197.625 244.5969,197.4531 C244.425,197.3281 244.2844,197.2969 243.8313,197.2969 L243.4406,197.2969 L243.8313,196.3125 L247.8781,196.3125 Z M247.175,194.6094 L244.5031,194.6094 L245.8469,191.3438 L247.175,194.6094 Z " fill="#000000"/><text fill="#000000" font-family="sans-serif" font-size="12" font-style="italic" lengthAdjust="spacing" textLength="66" x="266.2" y="198.6543">Instruction</text><line style="stroke:#40E0D0;stroke-width:1.5;" x1="203" x2="363" y1="210.5" y2="210.5"/><text fill="#000000" font-family="sans-serif" font-size="11" lengthAdjust="spacing" textLength="150" x="208" y="224.7104">protected Instruction(int n)</text><!--MD5=[803d1f021113bee9848829294f1523be]
class Ecrire--><rect codeLine="43" fill="#F0F8FF" filter="url(#f5fn9lve0n2b9)" height="78.4141" id="Ecrire" style="stroke:#40E0D0;stroke-width:1.5;" width="94" x="7" y="304"/><ellipse cx="34.15" cy="320" fill="#00CED1" rx="11" ry="11" style="stroke:#40E0D0;stroke-width:1.0;"/><path d="M36.4938,315.6719 C35.5563,315.2344 34.9625,315.0938 34.0875,315.0938 C31.4625,315.0938 29.4625,317.1719 29.4625,319.8906 L29.4625,321.0156 C29.4625,323.5938 31.5719,325.4844 34.4625,325.4844 C35.6813,325.4844 36.8375,325.1875 37.5875,324.6406 C38.1656,324.2344 38.4938,323.7813 38.4938,323.3906 C38.4938,322.9375 38.1031,322.5469 37.6344,322.5469 C37.4156,322.5469 37.2125,322.625 37.025,322.8125 C36.5719,323.2969 36.5719,323.2969 36.3844,323.3906 C35.9625,323.6563 35.275,323.7813 34.5094,323.7813 C32.4625,323.7813 31.1656,322.6875 31.1656,320.9844 L31.1656,319.8906 C31.1656,318.1094 32.4156,316.7969 34.15,316.7969 C34.7281,316.7969 35.3375,316.9531 35.8063,317.2031 C36.2906,317.4844 36.4625,317.7031 36.5563,318.1094 C36.6188,318.5156 36.65,318.6406 36.7906,318.7656 C36.9313,318.9063 37.1656,319.0156 37.3844,319.0156 C37.65,319.0156 37.9156,318.875 38.0875,318.6563 C38.1969,318.5 38.2281,318.3125 38.2281,317.8906 L38.2281,316.4688 C38.2281,316.0313 38.2125,315.9063 38.1188,315.75 C37.9625,315.4844 37.6813,315.3438 37.3844,315.3438 C37.0875,315.3438 36.8844,315.4375 36.6656,315.75 L36.4938,315.6719 Z " fill="#000000"/><text fill="#000000" font-family="sans-serif" font-size="12" lengthAdjust="spacing" textLength="35" x="50.85" y="324.1543">Ecrire</text><line style="stroke:#40E0D0;stroke-width:1.5;" x1="8" x2="100" y1="336" y2="336"/><text fill="#000000" font-family="sans-serif" font-size="11" lengthAdjust="spacing" textLength="65" x="13" y="350.2104">Ecrire(int n)</text><text fill="#000000" font-family="sans-serif" font-size="11" lengthAdjust="spacing" textLength="77" x="13" y="363.0151">void verifier()</text><text fill="#000000" font-family="sans-serif" font-size="11" lengthAdjust="spacing" textLength="82" x="13" y="375.8198">String toMIPS()</text><!--MD5=[eeee900ce3ab6bf9e4211965aa6c2174]
class Affect--><rect codeLine="51" fill="#F0F8FF" filter="url(#f5fn9lve0n2b9)" height="78.4141" id="Affect" style="stroke:#40E0D0;stroke-width:1.5;" width="199" x="136.5" y="304"/><ellipse cx="214.25" cy="320" fill="#00CED1" rx="11" ry="11" style="stroke:#40E0D0;stroke-width:1.0;"/><path d="M216.5938,315.6719 C215.6563,315.2344 215.0625,315.0938 214.1875,315.0938 C211.5625,315.0938 209.5625,317.1719 209.5625,319.8906 L209.5625,321.0156 C209.5625,323.5938 211.6719,325.4844 214.5625,325.4844 C215.7813,325.4844 216.9375,325.1875 217.6875,324.6406 C218.2656,324.2344 218.5938,323.7813 218.5938,323.3906 C218.5938,322.9375 218.2031,322.5469 217.7344,322.5469 C217.5156,322.5469 217.3125,322.625 217.125,322.8125 C216.6719,323.2969 216.6719,323.2969 216.4844,323.3906 C216.0625,323.6563 215.375,323.7813 214.6094,323.7813 C212.5625,323.7813 211.2656,322.6875 211.2656,320.9844 L211.2656,319.8906 C211.2656,318.1094 212.5156,316.7969 214.25,316.7969 C214.8281,316.7969 215.4375,316.9531 215.9063,317.2031 C216.3906,317.4844 216.5625,317.7031 216.6563,318.1094 C216.7188,318.5156 216.75,318.6406 216.8906,318.7656 C217.0313,318.9063 217.2656,319.0156 217.4844,319.0156 C217.75,319.0156 218.0156,318.875 218.1875,318.6563 C218.2969,318.5 218.3281,318.3125 218.3281,317.8906 L218.3281,316.4688 C218.3281,316.0313 218.3125,315.9063 218.2188,315.75 C218.0625,315.4844 217.7813,315.3438 217.4844,315.3438 C217.1875,315.3438 216.9844,315.4375 216.7656,315.75 L216.5938,315.6719 Z " fill="#000000"/><text fill="#000000" font-family="sans-serif" font-size="12" lengthAdjust="spacing" textLength="35" x="234.75" y="324.1543">Affect</text><line style="stroke:#40E0D0;stroke-width:1.5;" x1="137.5" x2="334.5" y1="336" y2="336"/><text fill="#000000" font-family="sans-serif" font-size="11" lengthAdjust="spacing" textLength="187" x="142.5" y="350.2104">Affect(Idf idf, Expression e, int n)</text><text fill="#000000" font-family="sans-serif" font-size="11" lengthAdjust="spacing" textLength="77" x="142.5" y="363.0151">void verifier()</text><text fill="#000000" font-family="sans-serif" font-size="11" lengthAdjust="spacing" textLength="82" x="142.5" y="375.8198">String toMIPS()</text><!--MD5=[3637e2e3ff64f8c7ec072f5df5e3a1dc]
class Expression--><rect codeLine="70" fill="#F0F8FF" filter="url(#f5fn9lve0n2b9)" height="52.8047" id="Expression" style="stroke:#40E0D0;stroke-width:1.5;" width="166" x="442" y="316.5"/><ellipse cx="488.25" cy="332.5" fill="#FFFF00" rx="11" ry="11" style="stroke:#40E0D0;stroke-width:1.0;"/><path d="M490.3281,334.3125 L490.7188,335.2969 L490.3281,335.2969 C489.875,335.2969 489.7656,335.3125 489.6094,335.4219 C489.3594,335.5781 489.2031,335.8594 489.2031,336.1563 C489.2031,336.4219 489.3438,336.6719 489.5625,336.8281 C489.7031,336.9531 489.9063,337 490.3281,337 L492.6875,337 C493.0469,337 493.2656,336.9688 493.4063,336.875 C493.6563,336.7344 493.8125,336.4375 493.8125,336.1563 C493.8125,335.875 493.6719,335.625 493.4531,335.4688 C493.2813,335.3281 493.125,335.2969 492.6563,335.2969 L489.2656,327.0938 L485.5938,327.0938 C485.1406,327.0938 485.0156,327.1094 484.8594,327.2031 C484.6094,327.375 484.4531,327.6563 484.4531,327.9375 C484.4531,328.2188 484.5938,328.4688 484.8125,328.6406 C484.9844,328.75 485.1563,328.7813 485.5938,328.7813 L486.6719,328.7813 L484.0313,335.2969 C483.6094,335.2969 483.4531,335.3125 483.2969,335.4219 C483.0469,335.5781 482.8906,335.8594 482.8906,336.1563 C482.8906,336.7188 483.2656,337 484.0156,337 L486.2813,337 C486.6406,337 486.8594,336.9688 486.9844,336.875 C487.25,336.7344 487.3906,336.4375 487.3906,336.1563 C487.3906,335.875 487.2656,335.625 487.0469,335.4531 C486.875,335.3281 486.7344,335.2969 486.2813,335.2969 L485.8906,335.2969 L486.2813,334.3125 L490.3281,334.3125 Z M489.625,332.6094 L486.9531,332.6094 L488.2969,329.3438 L489.625,332.6094 Z " fill="#000000"/><text fill="#000000" font-family="sans-serif" font-size="12" font-style="italic" lengthAdjust="spacing" textLength="65" x="508.75" y="336.6543">Expression</text><line style="stroke:#40E0D0;stroke-width:1.5;" x1="443" x2="607" y1="348.5" y2="348.5"/><text fill="#000000" font-family="sans-serif" font-size="11" lengthAdjust="spacing" textLength="154" x="448" y="362.7104">protected Expression(int n)</text><!--MD5=[8bf1e18625b28affd47f46859604c28f]
class Idf--><rect codeLine="101" fill="#F0F8FF" filter="url(#f5fn9lve0n2b9)" height="65.6094" id="Idf" style="stroke:#40E0D0;stroke-width:1.5;" width="134" x="266" y="588"/><ellipse cx="321.25" cy="604" fill="#00CED1" rx="11" ry="11" style="stroke:#40E0D0;stroke-width:1.0;"/><path d="M323.5938,599.6719 C322.6563,599.2344 322.0625,599.0938 321.1875,599.0938 C318.5625,599.0938 316.5625,601.1719 316.5625,603.8906 L316.5625,605.0156 C316.5625,607.5938 318.6719,609.4844 321.5625,609.4844 C322.7813,609.4844 323.9375,609.1875 324.6875,608.6406 C325.2656,608.2344 325.5938,607.7813 325.5938,607.3906 C325.5938,606.9375 325.2031,606.5469 324.7344,606.5469 C324.5156,606.5469 324.3125,606.625 324.125,606.8125 C323.6719,607.2969 323.6719,607.2969 323.4844,607.3906 C323.0625,607.6563 322.375,607.7813 321.6094,607.7813 C319.5625,607.7813 318.2656,606.6875 318.2656,604.9844 L318.2656,603.8906 C318.2656,602.1094 319.5156,600.7969 321.25,600.7969 C321.8281,600.7969 322.4375,600.9531 322.9063,601.2031 C323.3906,601.4844 323.5625,601.7031 323.6563,602.1094 C323.7188,602.5156 323.75,602.6406 323.8906,602.7656 C324.0313,602.9063 324.2656,603.0156 324.4844,603.0156 C324.75,603.0156 325.0156,602.875 325.1875,602.6563 C325.2969,602.5 325.3281,602.3125 325.3281,601.8906 L325.3281,600.4688 C325.3281,600.0313 325.3125,599.9063 325.2188,599.75 C325.0625,599.4844 324.7813,599.3438 324.4844,599.3438 C324.1875,599.3438 323.9844,599.4375 323.7656,599.75 L323.5938,599.6719 Z " fill="#000000"/><text fill="#000000" font-family="sans-serif" font-size="12" lengthAdjust="spacing" textLength="15" x="341.75" y="608.1543">Idf</text><line style="stroke:#40E0D0;stroke-width:1.5;" x1="267" x2="399" y1="620" y2="620"/><text fill="#000000" font-family="sans-serif" font-size="11" lengthAdjust="spacing" textLength="122" x="272" y="634.2104">Idf(String texte, int n)</text><text fill="#000000" font-family="sans-serif" font-size="11" lengthAdjust="spacing" textLength="82" x="272" y="647.0151">String toMIPS()</text><!--MD5=[f6154539b7d5f2ed5e9bfb4105a95516]
class Lire--><rect codeLine="61" fill="#F0F8FF" filter="url(#f5fn9lve0n2b9)" height="78.4141" id="Lire" style="stroke:#40E0D0;stroke-width:1.5;" width="105" x="280.5" y="446"/><ellipse cx="318.45" cy="462" fill="#00CED1" rx="11" ry="11" style="stroke:#40E0D0;stroke-width:1.0;"/><path d="M320.7938,457.6719 C319.8563,457.2344 319.2625,457.0938 318.3875,457.0938 C315.7625,457.0938 313.7625,459.1719 313.7625,461.8906 L313.7625,463.0156 C313.7625,465.5938 315.8719,467.4844 318.7625,467.4844 C319.9813,467.4844 321.1375,467.1875 321.8875,466.6406 C322.4656,466.2344 322.7938,465.7813 322.7938,465.3906 C322.7938,464.9375 322.4031,464.5469 321.9344,464.5469 C321.7156,464.5469 321.5125,464.625 321.325,464.8125 C320.8719,465.2969 320.8719,465.2969 320.6844,465.3906 C320.2625,465.6563 319.575,465.7813 318.8094,465.7813 C316.7625,465.7813 315.4656,464.6875 315.4656,462.9844 L315.4656,461.8906 C315.4656,460.1094 316.7156,458.7969 318.45,458.7969 C319.0281,458.7969 319.6375,458.9531 320.1063,459.2031 C320.5906,459.4844 320.7625,459.7031 320.8563,460.1094 C320.9188,460.5156 320.95,460.6406 321.0906,460.7656 C321.2313,460.9063 321.4656,461.0156 321.6844,461.0156 C321.95,461.0156 322.2156,460.875 322.3875,460.6563 C322.4969,460.5 322.5281,460.3125 322.5281,459.8906 L322.5281,458.4688 C322.5281,458.0313 322.5125,457.9063 322.4188,457.75 C322.2625,457.4844 321.9813,457.3438 321.6844,457.3438 C321.3875,457.3438 321.1844,457.4375 320.9656,457.75 L320.7938,457.6719 Z " fill="#000000"/><text fill="#000000" font-family="sans-serif" font-size="12" lengthAdjust="spacing" textLength="22" x="337.55" y="466.1543">Lire</text><line style="stroke:#40E0D0;stroke-width:1.5;" x1="281.5" x2="384.5" y1="478" y2="478"/><text fill="#000000" font-family="sans-serif" font-size="11" lengthAdjust="spacing" textLength="93" x="286.5" y="492.2104">Lire(Idf idf, int n)</text><text fill="#000000" font-family="sans-serif" font-size="11" lengthAdjust="spacing" textLength="77" x="286.5" y="505.0151">void verifier()</text><text fill="#000000" font-family="sans-serif" font-size="11" lengthAdjust="spacing" textLength="82" x="286.5" y="517.8198">String toMIPS()</text><!--MD5=[4f690aa9c8cbc9d2fcd8ae473aedfe2c]
class Constante--><rect codeLine="77" fill="#F0F8FF" filter="url(#f5fn9lve0n2b9)" height="86.4141" id="Constante" style="stroke:#40E0D0;stroke-width:1.5;" width="237" x="682.5" y="442"/><ellipse cx="766.25" cy="458" fill="#FFFF00" rx="11" ry="11" style="stroke:#40E0D0;stroke-width:1.0;"/><path d="M768.3281,459.8125 L768.7188,460.7969 L768.3281,460.7969 C767.875,460.7969 767.7656,460.8125 767.6094,460.9219 C767.3594,461.0781 767.2031,461.3594 767.2031,461.6563 C767.2031,461.9219 767.3438,462.1719 767.5625,462.3281 C767.7031,462.4531 767.9063,462.5 768.3281,462.5 L770.6875,462.5 C771.0469,462.5 771.2656,462.4688 771.4063,462.375 C771.6563,462.2344 771.8125,461.9375 771.8125,461.6563 C771.8125,461.375 771.6719,461.125 771.4531,460.9688 C771.2813,460.8281 771.125,460.7969 770.6563,460.7969 L767.2656,452.5938 L763.5938,452.5938 C763.1406,452.5938 763.0156,452.6094 762.8594,452.7031 C762.6094,452.875 762.4531,453.1563 762.4531,453.4375 C762.4531,453.7188 762.5938,453.9688 762.8125,454.1406 C762.9844,454.25 763.1563,454.2813 763.5938,454.2813 L764.6719,454.2813 L762.0313,460.7969 C761.6094,460.7969 761.4531,460.8125 761.2969,460.9219 C761.0469,461.0781 760.8906,461.3594 760.8906,461.6563 C760.8906,462.2188 761.2656,462.5 762.0156,462.5 L764.2813,462.5 C764.6406,462.5 764.8594,462.4688 764.9844,462.375 C765.25,462.2344 765.3906,461.9375 765.3906,461.6563 C765.3906,461.375 765.2656,461.125 765.0469,460.9531 C764.875,460.8281 764.7344,460.7969 764.2813,460.7969 L763.8906,460.7969 L764.2813,459.8125 L768.3281,459.8125 Z M767.625,458.1094 L764.9531,458.1094 L766.2969,454.8438 L767.625,458.1094 Z " fill="#000000"/><text fill="#000000" font-family="sans-serif" font-size="12" font-style="italic" lengthAdjust="spacing" textLength="61" x="786.75" y="462.1543">Constante</text><line style="stroke:#40E0D0;stroke-width:1.5;" x1="683.5" x2="918.5" y1="474" y2="474"/><text fill="#000000" font-family="sans-serif" font-size="11" lengthAdjust="spacing" textLength="61" x="688.5" y="488.2104">String cste</text><line style="stroke:#40E0D0;stroke-width:1.5;" x1="683.5" x2="918.5" y1="494.8047" y2="494.8047"/><text fill="#000000" font-family="sans-serif" font-size="11" lengthAdjust="spacing" textLength="225" x="688.5" y="509.0151">protected Constante(String texte, int n)</text><text fill="#000000" font-family="sans-serif" font-size="11" lengthAdjust="spacing" textLength="74" x="688.5" y="521.8198">void verfier()</text><!--MD5=[9a578f9ac222d24f389750fad02fc371]
class ConstanteEntiere--><rect codeLine="86" fill="#F0F8FF" filter="url(#f5fn9lve0n2b9)" height="65.6094" id="ConstanteEntiere" style="stroke:#40E0D0;stroke-width:1.5;" width="219" x="691.5" y="588"/><ellipse cx="745.75" cy="604" fill="#00CED1" rx="11" ry="11" style="stroke:#40E0D0;stroke-width:1.0;"/><path d="M748.0938,599.6719 C747.1563,599.2344 746.5625,599.0938 745.6875,599.0938 C743.0625,599.0938 741.0625,601.1719 741.0625,603.8906 L741.0625,605.0156 C741.0625,607.5938 743.1719,609.4844 746.0625,609.4844 C747.2813,609.4844 748.4375,609.1875 749.1875,608.6406 C749.7656,608.2344 750.0938,607.7813 750.0938,607.3906 C750.0938,606.9375 749.7031,606.5469 749.2344,606.5469 C749.0156,606.5469 748.8125,606.625 748.625,606.8125 C748.1719,607.2969 748.1719,607.2969 747.9844,607.3906 C747.5625,607.6563 746.875,607.7813 746.1094,607.7813 C744.0625,607.7813 742.7656,606.6875 742.7656,604.9844 L742.7656,603.8906 C742.7656,602.1094 744.0156,600.7969 745.75,600.7969 C746.3281,600.7969 746.9375,600.9531 747.4063,601.2031 C747.8906,601.4844 748.0625,601.7031 748.1563,602.1094 C748.2188,602.5156 748.25,602.6406 748.3906,602.7656 C748.5313,602.9063 748.7656,603.0156 748.9844,603.0156 C749.25,603.0156 749.5156,602.875 749.6875,602.6563 C749.7969,602.5 749.8281,602.3125 749.8281,601.8906 L749.8281,600.4688 C749.8281,600.0313 749.8125,599.9063 749.7188,599.75 C749.5625,599.4844 749.2813,599.3438 748.9844,599.3438 C748.6875,599.3438 748.4844,599.4375 748.2656,599.75 L748.0938,599.6719 Z " fill="#000000"/><text fill="#000000" font-family="sans-serif" font-size="12" lengthAdjust="spacing" textLength="102" x="766.25" y="608.1543">ConstanteEntiere</text><line style="stroke:#40E0D0;stroke-width:1.5;" x1="692.5" x2="909.5" y1="620" y2="620"/><text fill="#000000" font-family="sans-serif" font-size="11" lengthAdjust="spacing" textLength="207" x="697.5" y="634.2104">ConstanteEntiere(String texte, int n)</text><text fill="#000000" font-family="sans-serif" font-size="11" lengthAdjust="spacing" textLength="82" x="697.5" y="647.0151">String toMIPS()</text><!--MD5=[1e667c6ad6db7468aaf1f24fbbf1ec5d]
class Variable--><rect codeLine="93" fill="#F0F8FF" filter="url(#f5fn9lve0n2b9)" height="86.4141" id="Variable" style="stroke:#40E0D0;stroke-width:1.5;" width="226" x="421" y="442"/><ellipse cx="505.75" cy="458" fill="#FFFF00" rx="11" ry="11" style="stroke:#40E0D0;stroke-width:1.0;"/><path d="M507.8281,459.8125 L508.2188,460.7969 L507.8281,460.7969 C507.375,460.7969 507.2656,460.8125 507.1094,460.9219 C506.8594,461.0781 506.7031,461.3594 506.7031,461.6563 C506.7031,461.9219 506.8438,462.1719 507.0625,462.3281 C507.2031,462.4531 507.4063,462.5 507.8281,462.5 L510.1875,462.5 C510.5469,462.5 510.7656,462.4688 510.9063,462.375 C511.1563,462.2344 511.3125,461.9375 511.3125,461.6563 C511.3125,461.375 511.1719,461.125 510.9531,460.9688 C510.7813,460.8281 510.625,460.7969 510.1563,460.7969 L506.7656,452.5938 L503.0938,452.5938 C502.6406,452.5938 502.5156,452.6094 502.3594,452.7031 C502.1094,452.875 501.9531,453.1563 501.9531,453.4375 C501.9531,453.7188 502.0938,453.9688 502.3125,454.1406 C502.4844,454.25 502.6563,454.2813 503.0938,454.2813 L504.1719,454.2813 L501.5313,460.7969 C501.1094,460.7969 500.9531,460.8125 500.7969,460.9219 C500.5469,461.0781 500.3906,461.3594 500.3906,461.6563 C500.3906,462.2188 500.7656,462.5 501.5156,462.5 L503.7813,462.5 C504.1406,462.5 504.3594,462.4688 504.4844,462.375 C504.75,462.2344 504.8906,461.9375 504.8906,461.6563 C504.8906,461.375 504.7656,461.125 504.5469,460.9531 C504.375,460.8281 504.2344,460.7969 503.7813,460.7969 L503.3906,460.7969 L503.7813,459.8125 L507.8281,459.8125 Z M507.125,458.1094 L504.4531,458.1094 L505.7969,454.8438 L507.125,458.1094 Z " fill="#000000"/><text fill="#000000" font-family="sans-serif" font-size="12" font-style="italic" lengthAdjust="spacing" textLength="48" x="526.25" y="462.1543">Variable</text><line style="stroke:#40E0D0;stroke-width:1.5;" x1="422" x2="646" y1="474" y2="474"/><text fill="#000000" font-family="sans-serif" font-size="11" lengthAdjust="spacing" textLength="68" x="427" y="488.2104">String texte</text><line style="stroke:#40E0D0;stroke-width:1.5;" x1="422" x2="646" y1="494.8047" y2="494.8047"/><text fill="#000000" font-family="sans-serif" font-size="11" lengthAdjust="spacing" textLength="214" x="427" y="509.0151">protected Variable(String texte, int n)</text><text fill="#000000" font-family="sans-serif" font-size="11" lengthAdjust="spacing" textLength="74" x="427" y="521.8198">void verfier()</text><!--MD5=[093103bafefb4b7fd520c0c66f617092]
reverse link RuntimeException to AnalyseException--><path codeLine="16" d="M827,92.687 C827,123.293 827,166.174 827,188.737 " fill="none" id="RuntimeException-backto-AnalyseException" style="stroke:#00CED1;stroke-width:1.0;"/><polygon fill="none" points="820,92.626,827,72.626,834,92.626,820,92.626" style="stroke:#00CED1;stroke-width:1.0;"/><!--MD5=[bd53a35e9096d074f7fb8193f3ab19a1]
reverse link AnalyseException to AnalyseLexicaleException--><path codeLine="18" d="M812.213,239.518 C799.898,267.432 782.932,305.887 773.68,326.858 " fill="none" id="AnalyseException-backto-AnalyseLexicaleException" style="stroke:#00CED1;stroke-width:1.0;"/><polygon fill="none" points="805.872,236.547,820.35,221.074,818.681,242.198,805.872,236.547" style="stroke:#00CED1;stroke-width:1.0;"/><!--MD5=[fc4d7b43180e87921c51cff1a9cabbc3]
reverse link AnalyseException to AnalyseSyntaxiqueException--><path codeLine="19" d="M861.667,233.571 C897.048,261.711 950.664,304.352 978.962,326.858 " fill="none" id="AnalyseException-backto-AnalyseSyntaxiqueException" style="stroke:#00CED1;stroke-width:1.0;"/><polygon fill="none" points="857.249,239.002,845.953,221.074,865.964,228.045,857.249,239.002" style="stroke:#00CED1;stroke-width:1.0;"/><!--MD5=[9cf84aeaf8545ae860f6e0be91faace4]
reverse link ArbreAbstrait to BlocDInstructions--><path codeLine="34" d="M566.972,124.945 C573.564,138.901 580.913,153.139 588.03,165.617 " fill="none" id="ArbreAbstrait-backto-BlocDInstructions" style="stroke:#00CED1;stroke-width:1.0;"/><polygon fill="none" points="560.396,127.391,558.546,106.282,573.156,121.63,560.396,127.391" style="stroke:#00CED1;stroke-width:1.0;"/><!--MD5=[71fe2b3565c96dc4c4945a4f150baf9a]
link ArbreAbstrait to BlocDInstructions--><path codeLine="35" d="M583.449,106.282 C593.941,125.593 604.285,147.467 611.435,165.617 " fill="none" id="ArbreAbstrait-BlocDInstructions" style="stroke:#00CED1;stroke-width:1.0;"/><text fill="#000000" font-family="sans-serif" font-size="13" lengthAdjust="spacing" textLength="7" x="581.0825" y="126.3981">*</text><!--MD5=[3be2716bc7ff17a87ff36b40b2ec342b]
reverse link ArbreAbstrait to Instruction--><path codeLine="41" d="M441.781,115.888 C402.693,137.579 360.334,161.085 329.206,178.359 " fill="none" id="ArbreAbstrait-backto-Instruction" style="stroke:#00CED1;stroke-width:1.0;"/><polygon fill="none" points="438.574,109.663,459.459,106.079,445.367,121.904,438.574,109.663" style="stroke:#00CED1;stroke-width:1.0;"/><!--MD5=[42605971b776ea6a3cb71be1043c887b]
reverse link Instruction to Ecrire--><path codeLine="49" d="M222.495,241.933 C184.549,264.469 136.341,293.099 101.2211,313.956 " fill="none" id="Instruction-backto-Ecrire" style="stroke:#00CED1;stroke-width:1.0;"/><polygon fill="none" points="219.156,235.774,239.927,231.581,226.305,247.812,219.156,235.774" style="stroke:#00CED1;stroke-width:1.0;"/><!--MD5=[e6317bfcaffb3dae1bac4a67ae915537]
reverse link Instruction to Affect--><path codeLine="57" d="M267.531,250.761 C261.586,267.964 254.862,287.422 249.154,303.937 " fill="none" id="Instruction-backto-Affect" style="stroke:#00CED1;stroke-width:1.0;"/><polygon fill="none" points="261.011,248.197,274.16,231.581,274.243,252.77,261.011,248.197" style="stroke:#00CED1;stroke-width:1.0;"/><!--MD5=[d48b81f3bc91b69ec9a25d926f1c579c]
link Affect to Expression--><path codeLine="58" d="M335.626,343 C371.01,343 406.395,343 441.779,343 " fill="none" id="Affect-Expression" style="stroke:#00CED1;stroke-width:1.0;"/><text fill="#000000" font-family="sans-serif" font-size="13" lengthAdjust="spacing" textLength="8" x="426.0109" y="339.4135">1</text><!--MD5=[281f63f5ef91790e9d67d2867c2e6245]
link Affect to Idf--><path codeLine="59" d="M236.095,382.129 C237.435,420.41 242.976,480.38 263,528 C272.18,549.831 287.77,571.0831 301.91,587.6517 " fill="none" id="Affect-Idf" style="stroke:#00CED1;stroke-width:1.0;"/><text fill="#000000" font-family="sans-serif" font-size="13" lengthAdjust="spacing" textLength="8" x="287.221" y="576.9818">1</text><!--MD5=[8eb78135ba4d77b5187ce9cf28582282]
reverse link Instruction to Lire--><path codeLine="67" d="M321.095,247.215 C333.822,263.637 346.43,283.499 353,304 C368.161,351.309 356.989,408.787 346.214,445.86 " fill="none" id="Instruction-backto-Lire" style="stroke:#00CED1;stroke-width:1.0;"/><polygon fill="none" points="315.658,251.625,308.294,231.756,326.441,242.696,315.658,251.625" style="stroke:#00CED1;stroke-width:1.0;"/><!--MD5=[27b6241eb360cf6f8b6e98e621859abb]
link Lire to Idf--><path codeLine="68" d="M333,524.041 C333,544.158 333,568.5893 333,587.7651 " fill="none" id="Lire-Idf" style="stroke:#00CED1;stroke-width:1.0;"/><text fill="#000000" font-family="sans-serif" font-size="13" lengthAdjust="spacing" textLength="8" x="324.2125" y="576.8638">1</text><!--MD5=[3876918391483bae82ee5d21cc1e3e60]
reverse link ArbreAbstrait to Expression--><path codeLine="74" d="M534.091,126.231 C532.047,139.389 530.212,153.088 529,166 C524.003,219.252 523.969,281.943 524.447,316.284 " fill="none" id="ArbreAbstrait-backto-Expression" style="stroke:#00CED1;stroke-width:1.0;"/><polygon fill="none" points="527.237,124.775,537.413,106.189,541.048,127.064,527.237,124.775" style="stroke:#00CED1;stroke-width:1.0;"/><!--MD5=[92ce6600ae449073206cb7f98e8b025c]
link Ecrire to Expression--><path codeLine="75" d="M89.8308,303.729 C103.1786,291.82 119.3,280.245 136.5,274 C245.536,234.413 285.05,245.524 397.5,274 C430.072,282.248 463.346,300.658 487.731,316.388 " fill="none" id="Ecrire-Expression" style="stroke:#00CED1;stroke-width:1.0;"/><text fill="#000000" font-family="sans-serif" font-size="13" lengthAdjust="spacing" textLength="8" x="470.1875" y="305.6044">1</text><!--MD5=[07c66e9942106b6c78a615d8a96ac5e1]
reverse link Expression to Constante--><path codeLine="83" d="M593.264,378.627 C630.993,397.765 678.156,421.688 718.004,441.9 " fill="none" id="Expression-backto-Constante" style="stroke:#00CED1;stroke-width:1.0;"/><polygon fill="none" points="589.972,384.806,575.302,369.515,596.305,372.32,589.972,384.806" style="stroke:#00CED1;stroke-width:1.0;"/><!--MD5=[10740e7c3af92918765b64ed4b4d42a7]
reverse link Constante to ConstanteEntiere--><path codeLine="91" d="M801,548.322 C801,562.0216 801,575.9833 801,587.901 " fill="none" id="Constante-backto-ConstanteEntiere" style="stroke:#00CED1;stroke-width:1.0;"/><polygon fill="none" points="794,548.031,801,528.031,808,548.031,794,548.031" style="stroke:#00CED1;stroke-width:1.0;"/><!--MD5=[c5f33cf5edefd86870707b9f141c3068]
reverse link Expression to Variable--><path codeLine="99" d="M527.946,389.82 C529.026,406.622 530.242,425.544 531.3,441.995 " fill="none" id="Expression-backto-Variable" style="stroke:#00CED1;stroke-width:1.0;"/><polygon fill="none" points="520.948,390.086,526.651,369.678,534.919,389.188,520.948,390.086" style="stroke:#00CED1;stroke-width:1.0;"/><!--MD5=[abe5abdb070c1515a193a6f9991948f8]
reverse link Variable to Idf--><path codeLine="106" d="M454.199,539.2 C429.483,555.6778 403.021,573.3193 381.149,587.901 " fill="none" id="Variable-backto-Idf" style="stroke:#00CED1;stroke-width:1.0;"/><polygon fill="none" points="450.43,533.3,470.954,528.031,458.196,544.949,450.43,533.3" style="stroke:#00CED1;stroke-width:1.0;"/><!--MD5=[64aadd3ced722ee9e08641bc50c152be]
@startuml
skinparam class {
BackgroundColor AliceBlue
ArrowColor DarkTurquoise
BorderColor Turquoise
}

skinparam stereotypeCBackgroundColor DarkTurquoise
skinparam stereotypeIBackgroundColor Magenta
skinparam stereotypeABackgroundColor Yellow

hide stereotype
hide empty member

abstract class AnalyseException

AnalyseException -up-|> RuntimeException

AnalyseLexicaleException -up-|> AnalyseException
AnalyseSyntaxiqueException -up-|> AnalyseException

abstract class ArbreAbstrait {
   int noLigne 
   protected ArbreAbstrait(int n)
   void verifier()
   String toMIPS()
}

class BlocDInstructions {
   BlocDInstructions(int n)
   void verifier()
   String toMIPS()
}

BlocDInstructions -up-|> ArbreAbstrait
BlocDInstructions -up- "*" ArbreAbstrait

abstract class Instruction {
   protected Instruction(int n)
}

Instruction -up-|> ArbreAbstrait

class Ecrire {
   Ecrire(int n)
   void verifier()
   String toMIPS()
}

Ecrire  -up-|> Instruction

class Affect {
   Affect(Idf idf, Expression e, int n)
   void verifier()
   String toMIPS()
}

Affect  -up-|> Instruction
Affect - "1" Expression
Affect - "1" Idf

class Lire {
   Lire(Idf idf, int n)
   void verifier()
   String toMIPS()
}

Lire  -up-|> Instruction
Lire - "1" Idf

abstract class Expression {
   protected Expression(int n)
}

Expression  -up-|> ArbreAbstrait
Ecrire - "1" Expression

abstract class Constante {
   String cste
   protected Constante(String texte, int n)
   void verfier()
}

Constante  -up-|> Expression


class ConstanteEntiere {
   ConstanteEntiere(String texte, int n)
   String toMIPS()
}

ConstanteEntiere  -up-|> Constante

abstract class Variable {
   String texte
   protected Variable(String texte, int n)
   void verfier()
}

Variable  -up-|> Expression

class Idf {
   Idf(String texte, int n)
   String toMIPS()
}

Idf  -up-|> Variable
@enduml

PlantUML version 1.2022.1beta6(Unknown compile time)
(GPL source distribution)
Java Runtime: Java(TM) SE Runtime Environment
JVM: Java HotSpot(TM) 64-Bit Server VM
Default Encoding: UTF-8
Language: en
Country: US
--></g><script xmlns=""/></svg>