<?xml version="1.0" encoding="UTF-8" standalone="no"?>
<svg xmlns="http://www.w3.org/2000/svg" xmlns:xlink="http://www.w3.org/1999/xlink" contentStyleType="text/css" height="1116px" preserveAspectRatio="none" style="width:3624px;height:1116px;background:#FFFFFF;" version="1.1" viewBox="0 0 3624 1116" width="3624px" zoomAndPan="magnify"><defs/><g><!--MD5=[0b381af440e943a07c8c6ed1cf6ff740]
cluster arbre--><g id="cluster_arbre"><path d="M8.5,6 L52.5,6 A3.75,3.75 0 0 1 55,8.5 L62,28.2969 L3614.5,28.2969 A2.5,2.5 0 0 1 3617,30.7969 L3617,1106.5 A2.5,2.5 0 0 1 3614.5,1109 L8.5,1109 A2.5,2.5 0 0 1 6,1106.5 L6,8.5 A2.5,2.5 0 0 1 8.5,6 " style="stroke:#000000;stroke-width:1.5;fill:none;"/><line style="stroke:#000000;stroke-width:1.5;fill:none;" x1="6" x2="62" y1="28.2969" y2="28.2969"/><text fill="#000000" font-family="sans-serif" font-size="14" font-weight="bold" lengthAdjust="spacing" textLength="43" x="10" y="20.9951">arbre</text></g><!--MD5=[63c4650f895c02f012fb57dede53fb60]
cluster exceptions--><g id="cluster_exceptions"><path d="M2095.5,57 L2184.5,57 A3.75,3.75 0 0 1 2187,59.5 L2194,79.2969 L3590.5,79.2969 A2.5,2.5 0 0 1 3593,81.7969 L3593,872.5 A2.5,2.5 0 0 1 3590.5,875 L2095.5,875 A2.5,2.5 0 0 1 2093,872.5 L2093,59.5 A2.5,2.5 0 0 1 2095.5,57 " style="stroke:#000000;stroke-width:1.5;fill:none;"/><line style="stroke:#000000;stroke-width:1.5;fill:none;" x1="2093" x2="2194" y1="79.2969" y2="79.2969"/><text fill="#000000" font-family="sans-serif" font-size="14" font-weight="bold" lengthAdjust="spacing" textLength="88" x="2097" y="71.9951">exceptions</text></g><!--MD5=[e3f0ae15f7a4927356d5a1523487cc5a]
cluster instructions--><g id="cluster_instructions"><path d="M922.5,73.5 L1023.5,73.5 A3.75,3.75 0 0 1 1026,76 L1033,95.7969 L1392.5,95.7969 A2.5,2.5 0 0 1 1395,98.2969 L1395,658.5 A2.5,2.5 0 0 1 1392.5,661 L922.5,661 A2.5,2.5 0 0 1 920,658.5 L920,76 A2.5,2.5 0 0 1 922.5,73.5 " style="stroke:#000000;stroke-width:1.5;fill:none;"/><line style="stroke:#000000;stroke-width:1.5;fill:none;" x1="920" x2="1033" y1="95.7969" y2="95.7969"/><text fill="#000000" font-family="sans-serif" font-size="14" font-weight="bold" lengthAdjust="spacing" textLength="100" x="924" y="88.4951">instructions</text></g><!--MD5=[dcf5f4e503278fe73a02dd072f6de9ac]
cluster expressions--><g id="cluster_expressions"><path d="M1421.5,468 L1518.5,468 A3.75,3.75 0 0 1 1521,470.5 L1528,490.2969 L2066.5,490.2969 A2.5,2.5 0 0 1 2069,492.7969 L2069,1082.5 A2.5,2.5 0 0 1 2066.5,1085 L1421.5,1085 A2.5,2.5 0 0 1 1419,1082.5 L1419,470.5 A2.5,2.5 0 0 1 1421.5,468 " style="stroke:#000000;stroke-width:1.5;fill:none;"/><line style="stroke:#000000;stroke-width:1.5;fill:none;" x1="1419" x2="1528" y1="490.2969" y2="490.2969"/><text fill="#000000" font-family="sans-serif" font-size="14" font-weight="bold" lengthAdjust="spacing" textLength="96" x="1423" y="482.9951">expressions</text></g><!--MD5=[990c6ef4bfbc740ed15019711d0c485e]
cluster declarations--><g id="cluster_declarations"><path d="M32.5,49 L135.5,49 A3.75,3.75 0 0 1 138,51.5 L145,71.2969 L893.5,71.2969 A2.5,2.5 0 0 1 896,73.7969 L896,275.5 A2.5,2.5 0 0 1 893.5,278 L32.5,278 A2.5,2.5 0 0 1 30,275.5 L30,51.5 A2.5,2.5 0 0 1 32.5,49 " style="stroke:#000000;stroke-width:1.5;fill:none;"/><line style="stroke:#000000;stroke-width:1.5;fill:none;" x1="30" x2="145" y1="71.2969" y2="71.2969"/><text fill="#000000" font-family="sans-serif" font-size="14" font-weight="bold" lengthAdjust="spacing" textLength="102" x="34" y="63.9951">declarations</text></g><!--MD5=[96ca7e1771b03e9c73587bb66ca68a0a]
class AnalyseException--><g id="elem_AnalyseException"><rect codeLine="16" fill="#F0F8FF" height="56.2969" id="AnalyseException" rx="2.5" ry="2.5" style="stroke:#40E0D0;stroke-width:0.5;" width="212" x="2739" y="354.5"/><ellipse cx="2778.3" cy="370.5" fill="#A9DCDF" rx="11" ry="11" style="stroke:#181818;stroke-width:1.0;"/><path d="M2780.3781,372.3125 L2780.7688,373.2969 L2780.3781,373.2969 C2779.925,373.2969 2779.8156,373.3125 2779.6594,373.4219 C2779.4094,373.5781 2779.2531,373.8594 2779.2531,374.1563 C2779.2531,374.4219 2779.3938,374.6719 2779.6125,374.8281 C2779.7531,374.9531 2779.9563,375 2780.3781,375 L2782.7375,375 C2783.0969,375 2783.3156,374.9688 2783.4563,374.875 C2783.7063,374.7344 2783.8625,374.4375 2783.8625,374.1563 C2783.8625,373.875 2783.7219,373.625 2783.5031,373.4688 C2783.3313,373.3281 2783.175,373.2969 2782.7063,373.2969 L2779.3156,365.0938 L2775.6438,365.0938 C2775.1906,365.0938 2775.0656,365.1094 2774.9094,365.2031 C2774.6594,365.375 2774.5031,365.6563 2774.5031,365.9375 C2774.5031,366.2188 2774.6438,366.4688 2774.8625,366.6406 C2775.0344,366.75 2775.2063,366.7813 2775.6438,366.7813 L2776.7219,366.7813 L2774.0813,373.2969 C2773.6594,373.2969 2773.5031,373.3125 2773.3469,373.4219 C2773.0969,373.5781 2772.9406,373.8594 2772.9406,374.1563 C2772.9406,374.7188 2773.3156,375 2774.0656,375 L2776.3313,375 C2776.6906,375 2776.9094,374.9688 2777.0344,374.875 C2777.3,374.7344 2777.4406,374.4375 2777.4406,374.1563 C2777.4406,373.875 2777.3156,373.625 2777.0969,373.4531 C2776.925,373.3281 2776.7844,373.2969 2776.3313,373.2969 L2775.9406,373.2969 L2776.3313,372.3125 L2780.3781,372.3125 Z M2779.675,370.6094 L2777.0031,370.6094 L2778.3469,367.3438 L2779.675,370.6094 Z " fill="#000000"/><text fill="#000000" font-family="sans-serif" font-size="14" font-style="italic" lengthAdjust="spacing" textLength="126" x="2797.7" y="375.3467">AnalyseException</text><line style="stroke:#40E0D0;stroke-width:0.5;" x1="2740" x2="2950" y1="386.5" y2="386.5"/><text fill="#000000" font-family="sans-serif" font-size="14" lengthAdjust="spacing" textLength="200" x="2745" y="403.4951">AnalyseException(String m)</text></g><!--MD5=[5c6c7d52e42032554528404b62c1d271]
class RuntimeException--><g id="elem_RuntimeException"><rect fill="#F0F8FF" height="32" id="RuntimeException" rx="2.5" ry="2.5" style="stroke:#40E0D0;stroke-width:0.5;" width="166" x="2762" y="157"/><ellipse cx="2777" cy="173" fill="#ADD1B2" rx="11" ry="11" style="stroke:#181818;stroke-width:1.0;"/><path d="M2779.3438,168.6719 C2778.4063,168.2344 2777.8125,168.0938 2776.9375,168.0938 C2774.3125,168.0938 2772.3125,170.1719 2772.3125,172.8906 L2772.3125,174.0156 C2772.3125,176.5938 2774.4219,178.4844 2777.3125,178.4844 C2778.5313,178.4844 2779.6875,178.1875 2780.4375,177.6406 C2781.0156,177.2344 2781.3438,176.7813 2781.3438,176.3906 C2781.3438,175.9375 2780.9531,175.5469 2780.4844,175.5469 C2780.2656,175.5469 2780.0625,175.625 2779.875,175.8125 C2779.4219,176.2969 2779.4219,176.2969 2779.2344,176.3906 C2778.8125,176.6563 2778.125,176.7813 2777.3594,176.7813 C2775.3125,176.7813 2774.0156,175.6875 2774.0156,173.9844 L2774.0156,172.8906 C2774.0156,171.1094 2775.2656,169.7969 2777,169.7969 C2777.5781,169.7969 2778.1875,169.9531 2778.6563,170.2031 C2779.1406,170.4844 2779.3125,170.7031 2779.4063,171.1094 C2779.4688,171.5156 2779.5,171.6406 2779.6406,171.7656 C2779.7813,171.9063 2780.0156,172.0156 2780.2344,172.0156 C2780.5,172.0156 2780.7656,171.875 2780.9375,171.6563 C2781.0469,171.5 2781.0781,171.3125 2781.0781,170.8906 L2781.0781,169.4688 C2781.0781,169.0313 2781.0625,168.9063 2780.9688,168.75 C2780.8125,168.4844 2780.5313,168.3438 2780.2344,168.3438 C2779.9375,168.3438 2779.7344,168.4375 2779.5156,168.75 L2779.3438,168.6719 Z " fill="#000000"/><text fill="#000000" font-family="sans-serif" font-size="14" lengthAdjust="spacing" textLength="134" x="2791" y="177.8467">RuntimeException</text></g><!--MD5=[528294b680d9ea6b779f09b314c2c62a]
class AnalyseLexicaleException--><g id="elem_AnalyseLexicaleException"><rect codeLine="22" fill="#F0F8FF" height="56.2969" id="AnalyseLexicaleException" rx="2.5" ry="2.5" style="stroke:#40E0D0;stroke-width:0.5;" width="417" x="2442.5" y="572.5"/><ellipse cx="2553.75" cy="588.5" fill="#ADD1B2" rx="11" ry="11" style="stroke:#181818;stroke-width:1.0;"/><path d="M2556.0938,584.1719 C2555.1563,583.7344 2554.5625,583.5938 2553.6875,583.5938 C2551.0625,583.5938 2549.0625,585.6719 2549.0625,588.3906 L2549.0625,589.5156 C2549.0625,592.0938 2551.1719,593.9844 2554.0625,593.9844 C2555.2813,593.9844 2556.4375,593.6875 2557.1875,593.1406 C2557.7656,592.7344 2558.0938,592.2813 2558.0938,591.8906 C2558.0938,591.4375 2557.7031,591.0469 2557.2344,591.0469 C2557.0156,591.0469 2556.8125,591.125 2556.625,591.3125 C2556.1719,591.7969 2556.1719,591.7969 2555.9844,591.8906 C2555.5625,592.1563 2554.875,592.2813 2554.1094,592.2813 C2552.0625,592.2813 2550.7656,591.1875 2550.7656,589.4844 L2550.7656,588.3906 C2550.7656,586.6094 2552.0156,585.2969 2553.75,585.2969 C2554.3281,585.2969 2554.9375,585.4531 2555.4063,585.7031 C2555.8906,585.9844 2556.0625,586.2031 2556.1563,586.6094 C2556.2188,587.0156 2556.25,587.1406 2556.3906,587.2656 C2556.5313,587.4063 2556.7656,587.5156 2556.9844,587.5156 C2557.25,587.5156 2557.5156,587.375 2557.6875,587.1563 C2557.7969,587 2557.8281,586.8125 2557.8281,586.3906 L2557.8281,584.9688 C2557.8281,584.5313 2557.8125,584.4063 2557.7188,584.25 C2557.5625,583.9844 2557.2813,583.8438 2556.9844,583.8438 C2556.6875,583.8438 2556.4844,583.9375 2556.2656,584.25 L2556.0938,584.1719 Z " fill="#000000"/><text fill="#000000" font-family="sans-serif" font-size="14" lengthAdjust="spacing" textLength="186" x="2574.25" y="593.3467">AnalyseLexicaleException</text><line style="stroke:#40E0D0;stroke-width:0.5;" x1="2443.5" x2="2858.5" y1="604.5" y2="604.5"/><text fill="#000000" font-family="sans-serif" font-size="14" lengthAdjust="spacing" textLength="405" x="2448.5" y="621.4951">AnalyseLexicalException(int ligne, int colonne, String m)</text></g><!--MD5=[1aeef48b5154da28e0410fd8cc99dd53]
class AnalyseSyntaxiqueException--><g id="elem_AnalyseSyntaxiqueException"><rect codeLine="27" fill="#F0F8FF" height="56.2969" id="AnalyseSyntaxiqueException" rx="2.5" ry="2.5" style="stroke:#40E0D0;stroke-width:0.5;" width="291" x="2894.5" y="572.5"/><ellipse cx="2932.9" cy="588.5" fill="#ADD1B2" rx="11" ry="11" style="stroke:#181818;stroke-width:1.0;"/><path d="M2935.2438,584.1719 C2934.3063,583.7344 2933.7125,583.5938 2932.8375,583.5938 C2930.2125,583.5938 2928.2125,585.6719 2928.2125,588.3906 L2928.2125,589.5156 C2928.2125,592.0938 2930.3219,593.9844 2933.2125,593.9844 C2934.4313,593.9844 2935.5875,593.6875 2936.3375,593.1406 C2936.9156,592.7344 2937.2438,592.2813 2937.2438,591.8906 C2937.2438,591.4375 2936.8531,591.0469 2936.3844,591.0469 C2936.1656,591.0469 2935.9625,591.125 2935.775,591.3125 C2935.3219,591.7969 2935.3219,591.7969 2935.1344,591.8906 C2934.7125,592.1563 2934.025,592.2813 2933.2594,592.2813 C2931.2125,592.2813 2929.9156,591.1875 2929.9156,589.4844 L2929.9156,588.3906 C2929.9156,586.6094 2931.1656,585.2969 2932.9,585.2969 C2933.4781,585.2969 2934.0875,585.4531 2934.5563,585.7031 C2935.0406,585.9844 2935.2125,586.2031 2935.3063,586.6094 C2935.3688,587.0156 2935.4,587.1406 2935.5406,587.2656 C2935.6813,587.4063 2935.9156,587.5156 2936.1344,587.5156 C2936.4,587.5156 2936.6656,587.375 2936.8375,587.1563 C2936.9469,587 2936.9781,586.8125 2936.9781,586.3906 L2936.9781,584.9688 C2936.9781,584.5313 2936.9625,584.4063 2936.8688,584.25 C2936.7125,583.9844 2936.4313,583.8438 2936.1344,583.8438 C2935.8375,583.8438 2935.6344,583.9375 2935.4156,584.25 L2935.2438,584.1719 Z " fill="#000000"/><text fill="#000000" font-family="sans-serif" font-size="14" lengthAdjust="spacing" textLength="207" x="2952.1" y="593.3467">AnalyseSyntaxiqueException</text><line style="stroke:#40E0D0;stroke-width:0.5;" x1="2895.5" x2="3184.5" y1="604.5" y2="604.5"/><text fill="#000000" font-family="sans-serif" font-size="14" lengthAdjust="spacing" textLength="279" x="2900.5" y="621.4951">AnalyseSyntaxiqueException(String m)</text></g><!--MD5=[a027cc5845f36ad5a1be8fc56ee195a8]
class AnalyseSemantiqueException--><g id="elem_AnalyseSemantiqueException"><rect codeLine="32" fill="#F0F8FF" height="56.2969" id="AnalyseSemantiqueException" rx="2.5" ry="2.5" style="stroke:#40E0D0;stroke-width:0.5;" width="298" x="2109" y="572.5"/><ellipse cx="2147.4" cy="588.5" fill="#ADD1B2" rx="11" ry="11" style="stroke:#181818;stroke-width:1.0;"/><path d="M2149.7438,584.1719 C2148.8063,583.7344 2148.2125,583.5938 2147.3375,583.5938 C2144.7125,583.5938 2142.7125,585.6719 2142.7125,588.3906 L2142.7125,589.5156 C2142.7125,592.0938 2144.8219,593.9844 2147.7125,593.9844 C2148.9313,593.9844 2150.0875,593.6875 2150.8375,593.1406 C2151.4156,592.7344 2151.7438,592.2813 2151.7438,591.8906 C2151.7438,591.4375 2151.3531,591.0469 2150.8844,591.0469 C2150.6656,591.0469 2150.4625,591.125 2150.275,591.3125 C2149.8219,591.7969 2149.8219,591.7969 2149.6344,591.8906 C2149.2125,592.1563 2148.525,592.2813 2147.7594,592.2813 C2145.7125,592.2813 2144.4156,591.1875 2144.4156,589.4844 L2144.4156,588.3906 C2144.4156,586.6094 2145.6656,585.2969 2147.4,585.2969 C2147.9781,585.2969 2148.5875,585.4531 2149.0563,585.7031 C2149.5406,585.9844 2149.7125,586.2031 2149.8063,586.6094 C2149.8688,587.0156 2149.9,587.1406 2150.0406,587.2656 C2150.1813,587.4063 2150.4156,587.5156 2150.6344,587.5156 C2150.9,587.5156 2151.1656,587.375 2151.3375,587.1563 C2151.4469,587 2151.4781,586.8125 2151.4781,586.3906 L2151.4781,584.9688 C2151.4781,584.5313 2151.4625,584.4063 2151.3688,584.25 C2151.2125,583.9844 2150.9313,583.8438 2150.6344,583.8438 C2150.3375,583.8438 2150.1344,583.9375 2149.9156,584.25 L2149.7438,584.1719 Z " fill="#000000"/><text fill="#000000" font-family="sans-serif" font-size="14" lengthAdjust="spacing" textLength="214" x="2166.6" y="593.3467">AnalyseSemantiqueException</text><line style="stroke:#40E0D0;stroke-width:0.5;" x1="2110" x2="2406" y1="604.5" y2="604.5"/><text fill="#000000" font-family="sans-serif" font-size="14" lengthAdjust="spacing" textLength="286" x="2115" y="621.4951">AnalyseSemantiqueException(String m)</text></g><!--MD5=[de80f3f198936b87da23f896df0f138f]
class AnalyseLexicaleSemantiqueException--><g id="elem_AnalyseLexicaleSemantiqueException"><rect codeLine="37" fill="#F0F8FF" height="56.2969" id="AnalyseLexicaleSemantiqueException" rx="2.5" ry="2.5" style="stroke:#40E0D0;stroke-width:0.5;" width="356" x="3221" y="572.5"/><ellipse cx="3259.4" cy="588.5" fill="#ADD1B2" rx="11" ry="11" style="stroke:#181818;stroke-width:1.0;"/><path d="M3261.7438,584.1719 C3260.8063,583.7344 3260.2125,583.5938 3259.3375,583.5938 C3256.7125,583.5938 3254.7125,585.6719 3254.7125,588.3906 L3254.7125,589.5156 C3254.7125,592.0938 3256.8219,593.9844 3259.7125,593.9844 C3260.9313,593.9844 3262.0875,593.6875 3262.8375,593.1406 C3263.4156,592.7344 3263.7438,592.2813 3263.7438,591.8906 C3263.7438,591.4375 3263.3531,591.0469 3262.8844,591.0469 C3262.6656,591.0469 3262.4625,591.125 3262.275,591.3125 C3261.8219,591.7969 3261.8219,591.7969 3261.6344,591.8906 C3261.2125,592.1563 3260.525,592.2813 3259.7594,592.2813 C3257.7125,592.2813 3256.4156,591.1875 3256.4156,589.4844 L3256.4156,588.3906 C3256.4156,586.6094 3257.6656,585.2969 3259.4,585.2969 C3259.9781,585.2969 3260.5875,585.4531 3261.0563,585.7031 C3261.5406,585.9844 3261.7125,586.2031 3261.8063,586.6094 C3261.8688,587.0156 3261.9,587.1406 3262.0406,587.2656 C3262.1813,587.4063 3262.4156,587.5156 3262.6344,587.5156 C3262.9,587.5156 3263.1656,587.375 3263.3375,587.1563 C3263.4469,587 3263.4781,586.8125 3263.4781,586.3906 L3263.4781,584.9688 C3263.4781,584.5313 3263.4625,584.4063 3263.3688,584.25 C3263.2125,583.9844 3262.9313,583.8438 3262.6344,583.8438 C3262.3375,583.8438 3262.1344,583.9375 3261.9156,584.25 L3261.7438,584.1719 Z " fill="#000000"/><text fill="#000000" font-family="sans-serif" font-size="14" lengthAdjust="spacing" textLength="272" x="3278.6" y="593.3467">AnalyseLexicaleSemantiqueException</text><line style="stroke:#40E0D0;stroke-width:0.5;" x1="3222" x2="3576" y1="604.5" y2="604.5"/><text fill="#000000" font-family="sans-serif" font-size="14" lengthAdjust="spacing" textLength="344" x="3227" y="621.4951">AnalyseLexicaleSemantiqueException(String m)</text></g><!--MD5=[ba50db504aa44d3991568c4676ed5c26]
class VariableNonDeclaree--><g id="elem_VariableNonDeclaree"><rect codeLine="42" fill="#F0F8FF" height="56.2969" id="VariableNonDeclaree" rx="2.5" ry="2.5" style="stroke:#40E0D0;stroke-width:0.5;" width="235" x="2124.5" y="803"/><ellipse cx="2162.9" cy="819" fill="#ADD1B2" rx="11" ry="11" style="stroke:#181818;stroke-width:1.0;"/><path d="M2165.2438,814.6719 C2164.3063,814.2344 2163.7125,814.0938 2162.8375,814.0938 C2160.2125,814.0938 2158.2125,816.1719 2158.2125,818.8906 L2158.2125,820.0156 C2158.2125,822.5938 2160.3219,824.4844 2163.2125,824.4844 C2164.4313,824.4844 2165.5875,824.1875 2166.3375,823.6406 C2166.9156,823.2344 2167.2438,822.7813 2167.2438,822.3906 C2167.2438,821.9375 2166.8531,821.5469 2166.3844,821.5469 C2166.1656,821.5469 2165.9625,821.625 2165.775,821.8125 C2165.3219,822.2969 2165.3219,822.2969 2165.1344,822.3906 C2164.7125,822.6563 2164.025,822.7813 2163.2594,822.7813 C2161.2125,822.7813 2159.9156,821.6875 2159.9156,819.9844 L2159.9156,818.8906 C2159.9156,817.1094 2161.1656,815.7969 2162.9,815.7969 C2163.4781,815.7969 2164.0875,815.9531 2164.5563,816.2031 C2165.0406,816.4844 2165.2125,816.7031 2165.3063,817.1094 C2165.3688,817.5156 2165.4,817.6406 2165.5406,817.7656 C2165.6813,817.9063 2165.9156,818.0156 2166.1344,818.0156 C2166.4,818.0156 2166.6656,817.875 2166.8375,817.6563 C2166.9469,817.5 2166.9781,817.3125 2166.9781,816.8906 L2166.9781,815.4688 C2166.9781,815.0313 2166.9625,814.9063 2166.8688,814.75 C2166.7125,814.4844 2166.4313,814.3438 2166.1344,814.3438 C2165.8375,814.3438 2165.6344,814.4375 2165.4156,814.75 L2165.2438,814.6719 Z " fill="#000000"/><text fill="#000000" font-family="sans-serif" font-size="14" lengthAdjust="spacing" textLength="151" x="2182.1" y="823.8467">VariableNonDeclaree</text><line style="stroke:#40E0D0;stroke-width:0.5;" x1="2125.5" x2="2358.5" y1="835" y2="835"/><text fill="#000000" font-family="sans-serif" font-size="14" lengthAdjust="spacing" textLength="223" x="2130.5" y="851.9951">VariableNonDeclaree(String m)</text></g><!--MD5=[b21bed0d541d942990610ac017f63c24]
class DoubleDeclaration--><g id="elem_DoubleDeclaration"><rect codeLine="47" fill="#F0F8FF" height="56.2969" id="DoubleDeclaration" rx="2.5" ry="2.5" style="stroke:#40E0D0;stroke-width:0.5;" width="218" x="2395" y="803"/><ellipse cx="2433.4" cy="819" fill="#ADD1B2" rx="11" ry="11" style="stroke:#181818;stroke-width:1.0;"/><path d="M2435.7438,814.6719 C2434.8063,814.2344 2434.2125,814.0938 2433.3375,814.0938 C2430.7125,814.0938 2428.7125,816.1719 2428.7125,818.8906 L2428.7125,820.0156 C2428.7125,822.5938 2430.8219,824.4844 2433.7125,824.4844 C2434.9313,824.4844 2436.0875,824.1875 2436.8375,823.6406 C2437.4156,823.2344 2437.7438,822.7813 2437.7438,822.3906 C2437.7438,821.9375 2437.3531,821.5469 2436.8844,821.5469 C2436.6656,821.5469 2436.4625,821.625 2436.275,821.8125 C2435.8219,822.2969 2435.8219,822.2969 2435.6344,822.3906 C2435.2125,822.6563 2434.525,822.7813 2433.7594,822.7813 C2431.7125,822.7813 2430.4156,821.6875 2430.4156,819.9844 L2430.4156,818.8906 C2430.4156,817.1094 2431.6656,815.7969 2433.4,815.7969 C2433.9781,815.7969 2434.5875,815.9531 2435.0563,816.2031 C2435.5406,816.4844 2435.7125,816.7031 2435.8063,817.1094 C2435.8688,817.5156 2435.9,817.6406 2436.0406,817.7656 C2436.1813,817.9063 2436.4156,818.0156 2436.6344,818.0156 C2436.9,818.0156 2437.1656,817.875 2437.3375,817.6563 C2437.4469,817.5 2437.4781,817.3125 2437.4781,816.8906 L2437.4781,815.4688 C2437.4781,815.0313 2437.4625,814.9063 2437.3688,814.75 C2437.2125,814.4844 2436.9313,814.3438 2436.6344,814.3438 C2436.3375,814.3438 2436.1344,814.4375 2435.9156,814.75 L2435.7438,814.6719 Z " fill="#000000"/><text fill="#000000" font-family="sans-serif" font-size="14" lengthAdjust="spacing" textLength="134" x="2452.6" y="823.8467">DoubleDeclaration</text><line style="stroke:#40E0D0;stroke-width:0.5;" x1="2396" x2="2612" y1="835" y2="835"/><text fill="#000000" font-family="sans-serif" font-size="14" lengthAdjust="spacing" textLength="206" x="2401" y="851.9951">DoubleDeclaration(String m)</text></g><!--MD5=[2d2ba3b8c170e5ed3a8e5d5565b06b05]
class Erreur--><g id="elem_Erreur"><rect codeLine="52" fill="#F0F8FF" height="113.1875" id="Erreur" rx="2.5" ry="2.5" style="stroke:#40E0D0;stroke-width:0.5;" width="158" x="2436" y="326"/><ellipse cx="2488.75" cy="342" fill="#ADD1B2" rx="11" ry="11" style="stroke:#181818;stroke-width:1.0;"/><path d="M2491.0938,337.6719 C2490.1563,337.2344 2489.5625,337.0938 2488.6875,337.0938 C2486.0625,337.0938 2484.0625,339.1719 2484.0625,341.8906 L2484.0625,343.0156 C2484.0625,345.5938 2486.1719,347.4844 2489.0625,347.4844 C2490.2813,347.4844 2491.4375,347.1875 2492.1875,346.6406 C2492.7656,346.2344 2493.0938,345.7813 2493.0938,345.3906 C2493.0938,344.9375 2492.7031,344.5469 2492.2344,344.5469 C2492.0156,344.5469 2491.8125,344.625 2491.625,344.8125 C2491.1719,345.2969 2491.1719,345.2969 2490.9844,345.3906 C2490.5625,345.6563 2489.875,345.7813 2489.1094,345.7813 C2487.0625,345.7813 2485.7656,344.6875 2485.7656,342.9844 L2485.7656,341.8906 C2485.7656,340.1094 2487.0156,338.7969 2488.75,338.7969 C2489.3281,338.7969 2489.9375,338.9531 2490.4063,339.2031 C2490.8906,339.4844 2491.0625,339.7031 2491.1563,340.1094 C2491.2188,340.5156 2491.25,340.6406 2491.3906,340.7656 C2491.5313,340.9063 2491.7656,341.0156 2491.9844,341.0156 C2492.25,341.0156 2492.5156,340.875 2492.6875,340.6563 C2492.7969,340.5 2492.8281,340.3125 2492.8281,339.8906 L2492.8281,338.4688 C2492.8281,338.0313 2492.8125,337.9063 2492.7188,337.75 C2492.5625,337.4844 2492.2813,337.3438 2491.9844,337.3438 C2491.6875,337.3438 2491.4844,337.4375 2491.2656,337.75 L2491.0938,337.6719 Z " fill="#000000"/><text fill="#000000" font-family="sans-serif" font-size="14" lengthAdjust="spacing" textLength="44" x="2509.25" y="346.8467">Erreur</text><line style="stroke:#40E0D0;stroke-width:0.5;" x1="2437" x2="2593" y1="358" y2="358"/><text fill="#000000" font-family="sans-serif" font-size="14" lengthAdjust="spacing" textLength="146" x="2442" y="374.9951">final String message</text><text fill="#000000" font-family="sans-serif" font-size="14" lengthAdjust="spacing" textLength="94" x="2442" y="391.292">final int ligne</text><line style="stroke:#40E0D0;stroke-width:0.5;" x1="2437" x2="2593" y1="398.5938" y2="398.5938"/><text fill="#000000" font-family="sans-serif" font-size="14" lengthAdjust="spacing" textLength="144" x="2442" y="415.5889">String getMessage()</text><text fill="#000000" font-family="sans-serif" font-size="14" lengthAdjust="spacing" textLength="98" x="2442" y="431.8857">int getLigne()</text></g><!--MD5=[646a7cc1715cdf8bcdfd77313d1c7052]
class ListeErreurs--><g id="elem_ListeErreurs"><rect codeLine="59" fill="#F0F8FF" height="162.0781" id="ListeErreurs" rx="2.5" ry="2.5" style="stroke:#40E0D0;stroke-width:0.5;" width="253" x="2388.5" y="92"/><ellipse cx="2467.75" cy="108" fill="#ADD1B2" rx="11" ry="11" style="stroke:#181818;stroke-width:1.0;"/><path d="M2470.0938,103.6719 C2469.1563,103.2344 2468.5625,103.0938 2467.6875,103.0938 C2465.0625,103.0938 2463.0625,105.1719 2463.0625,107.8906 L2463.0625,109.0156 C2463.0625,111.5938 2465.1719,113.4844 2468.0625,113.4844 C2469.2813,113.4844 2470.4375,113.1875 2471.1875,112.6406 C2471.7656,112.2344 2472.0938,111.7813 2472.0938,111.3906 C2472.0938,110.9375 2471.7031,110.5469 2471.2344,110.5469 C2471.0156,110.5469 2470.8125,110.625 2470.625,110.8125 C2470.1719,111.2969 2470.1719,111.2969 2469.9844,111.3906 C2469.5625,111.6563 2468.875,111.7813 2468.1094,111.7813 C2466.0625,111.7813 2464.7656,110.6875 2464.7656,108.9844 L2464.7656,107.8906 C2464.7656,106.1094 2466.0156,104.7969 2467.75,104.7969 C2468.3281,104.7969 2468.9375,104.9531 2469.4063,105.2031 C2469.8906,105.4844 2470.0625,105.7031 2470.1563,106.1094 C2470.2188,106.5156 2470.25,106.6406 2470.3906,106.7656 C2470.5313,106.9063 2470.7656,107.0156 2470.9844,107.0156 C2471.25,107.0156 2471.5156,106.875 2471.6875,106.6563 C2471.7969,106.5 2471.8281,106.3125 2471.8281,105.8906 L2471.8281,104.4688 C2471.8281,104.0313 2471.8125,103.9063 2471.7188,103.75 C2471.5625,103.4844 2471.2813,103.3438 2470.9844,103.3438 C2470.6875,103.3438 2470.4844,103.4375 2470.2656,103.75 L2470.0938,103.6719 Z " fill="#000000"/><text fill="#000000" font-family="sans-serif" font-size="14" lengthAdjust="spacing" textLength="86" x="2488.25" y="112.8467">ListeErreurs</text><line style="stroke:#40E0D0;stroke-width:0.5;" x1="2389.5" x2="2640.5" y1="124" y2="124"/><text fill="#000000" font-family="sans-serif" font-size="14" lengthAdjust="spacing" textLength="241" x="2394.5" y="140.9951">static final ListeErreurs INSTANCE</text><line style="stroke:#40E0D0;stroke-width:0.5;" x1="2389.5" x2="2640.5" y1="148.2969" y2="148.2969"/><text fill="#000000" font-family="sans-serif" font-size="14" lengthAdjust="spacing" textLength="96" x="2394.5" y="165.292">ListeErreurs()</text><text fill="#000000" font-family="sans-serif" font-size="14" lengthAdjust="spacing" textLength="231" x="2394.5" y="181.5889">static ListeErreurs getInstance()</text><text fill="#000000" font-family="sans-serif" font-size="14" lengthAdjust="spacing" textLength="152" x="2394.5" y="197.8857">void ajouter(Erreur e)</text><text fill="#000000" font-family="sans-serif" font-size="14" lengthAdjust="spacing" textLength="130" x="2394.5" y="214.1826">int getNbErreurs()</text><text fill="#000000" font-family="sans-serif" font-size="14" lengthAdjust="spacing" textLength="155" x="2394.5" y="230.4795">Erreur getErreur(int i)</text><text fill="#000000" font-family="sans-serif" font-size="14" lengthAdjust="spacing" textLength="220" x="2394.5" y="246.7764">ArrayList&lt;Erreur&gt; getErreurs()</text></g><!--MD5=[2665c2ba5c70529efefc76e520a11cef]
class ArbreAbstrait--><g id="elem_ArbreAbstrait"><rect codeLine="73" fill="#F0F8FF" height="129.4844" id="ArbreAbstrait" rx="2.5" ry="2.5" style="stroke:#40E0D0;stroke-width:0.5;" width="185" x="1176.5" y="108.5"/><ellipse cx="1217.6" cy="124.5" fill="#A9DCDF" rx="11" ry="11" style="stroke:#181818;stroke-width:1.0;"/><path d="M1219.6781,126.3125 L1220.0688,127.2969 L1219.6781,127.2969 C1219.225,127.2969 1219.1156,127.3125 1218.9594,127.4219 C1218.7094,127.5781 1218.5531,127.8594 1218.5531,128.1563 C1218.5531,128.4219 1218.6938,128.6719 1218.9125,128.8281 C1219.0531,128.9531 1219.2563,129 1219.6781,129 L1222.0375,129 C1222.3969,129 1222.6156,128.9688 1222.7563,128.875 C1223.0063,128.7344 1223.1625,128.4375 1223.1625,128.1563 C1223.1625,127.875 1223.0219,127.625 1222.8031,127.4688 C1222.6313,127.3281 1222.475,127.2969 1222.0063,127.2969 L1218.6156,119.0938 L1214.9438,119.0938 C1214.4906,119.0938 1214.3656,119.1094 1214.2094,119.2031 C1213.9594,119.375 1213.8031,119.6563 1213.8031,119.9375 C1213.8031,120.2188 1213.9438,120.4688 1214.1625,120.6406 C1214.3344,120.75 1214.5063,120.7813 1214.9438,120.7813 L1216.0219,120.7813 L1213.3813,127.2969 C1212.9594,127.2969 1212.8031,127.3125 1212.6469,127.4219 C1212.3969,127.5781 1212.2406,127.8594 1212.2406,128.1563 C1212.2406,128.7188 1212.6156,129 1213.3656,129 L1215.6313,129 C1215.9906,129 1216.2094,128.9688 1216.3344,128.875 C1216.6,128.7344 1216.7406,128.4375 1216.7406,128.1563 C1216.7406,127.875 1216.6156,127.625 1216.3969,127.4531 C1216.225,127.3281 1216.0844,127.2969 1215.6313,127.2969 L1215.2406,127.2969 L1215.6313,126.3125 L1219.6781,126.3125 Z M1218.975,124.6094 L1216.3031,124.6094 L1217.6469,121.3438 L1218.975,124.6094 Z " fill="#000000"/><text fill="#000000" font-family="sans-serif" font-size="14" font-style="italic" lengthAdjust="spacing" textLength="95" x="1237.4" y="129.3467">ArbreAbstrait</text><line style="stroke:#40E0D0;stroke-width:0.5;" x1="1177.5" x2="1360.5" y1="140.5" y2="140.5"/><text fill="#000000" font-family="sans-serif" font-size="14" lengthAdjust="spacing" textLength="81" x="1182.5" y="157.4951">int noLigne</text><line style="stroke:#40E0D0;stroke-width:0.5;" x1="1177.5" x2="1360.5" y1="164.7969" y2="164.7969"/><text fill="#000000" font-family="sans-serif" font-size="14" lengthAdjust="spacing" textLength="143" x="1182.5" y="181.792">ArbreAbstrait(int n)</text><text fill="#000000" font-family="sans-serif" font-size="14" lengthAdjust="spacing" textLength="117" x="1182.5" y="198.0889">int getNoLigne()</text><text fill="#000000" font-family="sans-serif" font-size="14" lengthAdjust="spacing" textLength="161" x="1182.5" y="214.3857">abstract void verifier()</text><text fill="#000000" font-family="sans-serif" font-size="14" lengthAdjust="spacing" textLength="173" x="1182.5" y="230.6826">abstract String toMIPS()</text></g><!--MD5=[73d95de7e47f81fcbe55bf25c4d927c9]
class BlocDInstructions--><g id="elem_BlocDInstructions"><rect codeLine="81" fill="#F0F8FF" height="121.4844" id="BlocDInstructions" rx="2.5" ry="2.5" style="stroke:#40E0D0;stroke-width:0.5;" width="219" x="1159.5" y="322"/><ellipse cx="1201.5" cy="338" fill="#ADD1B2" rx="11" ry="11" style="stroke:#181818;stroke-width:1.0;"/><path d="M1203.8438,333.6719 C1202.9063,333.2344 1202.3125,333.0938 1201.4375,333.0938 C1198.8125,333.0938 1196.8125,335.1719 1196.8125,337.8906 L1196.8125,339.0156 C1196.8125,341.5938 1198.9219,343.4844 1201.8125,343.4844 C1203.0313,343.4844 1204.1875,343.1875 1204.9375,342.6406 C1205.5156,342.2344 1205.8438,341.7813 1205.8438,341.3906 C1205.8438,340.9375 1205.4531,340.5469 1204.9844,340.5469 C1204.7656,340.5469 1204.5625,340.625 1204.375,340.8125 C1203.9219,341.2969 1203.9219,341.2969 1203.7344,341.3906 C1203.3125,341.6563 1202.625,341.7813 1201.8594,341.7813 C1199.8125,341.7813 1198.5156,340.6875 1198.5156,338.9844 L1198.5156,337.8906 C1198.5156,336.1094 1199.7656,334.7969 1201.5,334.7969 C1202.0781,334.7969 1202.6875,334.9531 1203.1563,335.2031 C1203.6406,335.4844 1203.8125,335.7031 1203.9063,336.1094 C1203.9688,336.5156 1204,336.6406 1204.1406,336.7656 C1204.2813,336.9063 1204.5156,337.0156 1204.7344,337.0156 C1205,337.0156 1205.2656,336.875 1205.4375,336.6563 C1205.5469,336.5 1205.5781,336.3125 1205.5781,335.8906 L1205.5781,334.4688 C1205.5781,334.0313 1205.5625,333.9063 1205.4688,333.75 C1205.3125,333.4844 1205.0313,333.3438 1204.7344,333.3438 C1204.4375,333.3438 1204.2344,333.4375 1204.0156,333.75 L1203.8438,333.6719 Z " fill="#000000"/><text fill="#000000" font-family="sans-serif" font-size="14" lengthAdjust="spacing" textLength="127" x="1221.5" y="342.8467">BlocDInstructions</text><line style="stroke:#40E0D0;stroke-width:0.5;" x1="1160.5" x2="1377.5" y1="354" y2="354"/><text fill="#000000" font-family="sans-serif" font-size="14" lengthAdjust="spacing" textLength="170" x="1165.5" y="370.9951">BlocDInstructions(int n)</text><text fill="#000000" font-family="sans-serif" font-size="14" lengthAdjust="spacing" textLength="207" x="1165.5" y="387.292">void ajouter(ArbreAbstrait a)</text><text fill="#000000" font-family="sans-serif" font-size="14" lengthAdjust="spacing" textLength="96" x="1165.5" y="403.5889">void verifier()</text><text fill="#000000" font-family="sans-serif" font-size="14" lengthAdjust="spacing" textLength="108" x="1165.5" y="419.8857">String toMIPS()</text><text fill="#000000" font-family="sans-serif" font-size="14" lengthAdjust="spacing" textLength="118" x="1165.5" y="436.1826">String toString()</text></g><!--MD5=[818ce9cd1eb68477d70117a0a20ac581]
class Instruction--><g id="elem_Instruction"><rect codeLine="92" fill="#F0F8FF" height="56.2969" id="Instruction" rx="2.5" ry="2.5" style="stroke:#40E0D0;stroke-width:0.5;" width="133" x="991.5" y="354.5"/><ellipse cx="1018.2" cy="370.5" fill="#A9DCDF" rx="11" ry="11" style="stroke:#181818;stroke-width:1.0;"/><path d="M1020.2781,372.3125 L1020.6688,373.2969 L1020.2781,373.2969 C1019.825,373.2969 1019.7156,373.3125 1019.5594,373.4219 C1019.3094,373.5781 1019.1531,373.8594 1019.1531,374.1563 C1019.1531,374.4219 1019.2938,374.6719 1019.5125,374.8281 C1019.6531,374.9531 1019.8563,375 1020.2781,375 L1022.6375,375 C1022.9969,375 1023.2156,374.9688 1023.3563,374.875 C1023.6063,374.7344 1023.7625,374.4375 1023.7625,374.1563 C1023.7625,373.875 1023.6219,373.625 1023.4031,373.4688 C1023.2313,373.3281 1023.075,373.2969 1022.6063,373.2969 L1019.2156,365.0938 L1015.5438,365.0938 C1015.0906,365.0938 1014.9656,365.1094 1014.8094,365.2031 C1014.5594,365.375 1014.4031,365.6563 1014.4031,365.9375 C1014.4031,366.2188 1014.5438,366.4688 1014.7625,366.6406 C1014.9344,366.75 1015.1063,366.7813 1015.5438,366.7813 L1016.6219,366.7813 L1013.9813,373.2969 C1013.5594,373.2969 1013.4031,373.3125 1013.2469,373.4219 C1012.9969,373.5781 1012.8406,373.8594 1012.8406,374.1563 C1012.8406,374.7188 1013.2156,375 1013.9656,375 L1016.2313,375 C1016.5906,375 1016.8094,374.9688 1016.9344,374.875 C1017.2,374.7344 1017.3406,374.4375 1017.3406,374.1563 C1017.3406,373.875 1017.2156,373.625 1016.9969,373.4531 C1016.825,373.3281 1016.6844,373.2969 1016.2313,373.2969 L1015.8406,373.2969 L1016.2313,372.3125 L1020.2781,372.3125 Z M1019.575,370.6094 L1016.9031,370.6094 L1018.2469,367.3438 L1019.575,370.6094 Z " fill="#000000"/><text fill="#000000" font-family="sans-serif" font-size="14" font-style="italic" lengthAdjust="spacing" textLength="75" x="1034.8" y="375.3467">Instruction</text><line style="stroke:#40E0D0;stroke-width:0.5;" x1="992.5" x2="1123.5" y1="386.5" y2="386.5"/><text fill="#000000" font-family="sans-serif" font-size="14" lengthAdjust="spacing" textLength="121" x="997.5" y="403.4951">Instruction(int n)</text></g><!--MD5=[803d1f021113bee9848829294f1523be]
class Ecrire--><g id="elem_Ecrire"><rect codeLine="98" fill="#F0F8FF" height="88.8906" id="Ecrire" rx="2.5" ry="2.5" style="stroke:#40E0D0;stroke-width:0.5;" width="120" x="936" y="556"/><ellipse cx="971.7" cy="572" fill="#ADD1B2" rx="11" ry="11" style="stroke:#181818;stroke-width:1.0;"/><path d="M974.0438,567.6719 C973.1063,567.2344 972.5125,567.0938 971.6375,567.0938 C969.0125,567.0938 967.0125,569.1719 967.0125,571.8906 L967.0125,573.0156 C967.0125,575.5938 969.1219,577.4844 972.0125,577.4844 C973.2313,577.4844 974.3875,577.1875 975.1375,576.6406 C975.7156,576.2344 976.0438,575.7813 976.0438,575.3906 C976.0438,574.9375 975.6531,574.5469 975.1844,574.5469 C974.9656,574.5469 974.7625,574.625 974.575,574.8125 C974.1219,575.2969 974.1219,575.2969 973.9344,575.3906 C973.5125,575.6563 972.825,575.7813 972.0594,575.7813 C970.0125,575.7813 968.7156,574.6875 968.7156,572.9844 L968.7156,571.8906 C968.7156,570.1094 969.9656,568.7969 971.7,568.7969 C972.2781,568.7969 972.8875,568.9531 973.3563,569.2031 C973.8406,569.4844 974.0125,569.7031 974.1063,570.1094 C974.1688,570.5156 974.2,570.6406 974.3406,570.7656 C974.4813,570.9063 974.7156,571.0156 974.9344,571.0156 C975.2,571.0156 975.4656,570.875 975.6375,570.6563 C975.7469,570.5 975.7781,570.3125 975.7781,569.8906 L975.7781,568.4688 C975.7781,568.0313 975.7625,567.9063 975.6688,567.75 C975.5125,567.4844 975.2313,567.3438 974.9344,567.3438 C974.6375,567.3438 974.4344,567.4375 974.2156,567.75 L974.0438,567.6719 Z " fill="#000000"/><text fill="#000000" font-family="sans-serif" font-size="14" lengthAdjust="spacing" textLength="42" x="990.3" y="576.8467">Ecrire</text><line style="stroke:#40E0D0;stroke-width:0.5;" x1="937" x2="1055" y1="588" y2="588"/><text fill="#000000" font-family="sans-serif" font-size="14" lengthAdjust="spacing" textLength="85" x="942" y="604.9951">Ecrire(int n)</text><text fill="#000000" font-family="sans-serif" font-size="14" lengthAdjust="spacing" textLength="96" x="942" y="621.292">void verifier()</text><text fill="#000000" font-family="sans-serif" font-size="14" lengthAdjust="spacing" textLength="108" x="942" y="637.5889">String toMIPS()</text></g><!--MD5=[6b08a9d313da440d8adfee65b6170004]
class Affectation--><g id="elem_Affectation"><rect codeLine="106" fill="#F0F8FF" height="88.8906" id="Affectation" rx="2.5" ry="2.5" style="stroke:#40E0D0;stroke-width:0.5;" width="287" x="1091.5" y="556"/><ellipse cx="1189.25" cy="572" fill="#ADD1B2" rx="11" ry="11" style="stroke:#181818;stroke-width:1.0;"/><path d="M1191.5938,567.6719 C1190.6563,567.2344 1190.0625,567.0938 1189.1875,567.0938 C1186.5625,567.0938 1184.5625,569.1719 1184.5625,571.8906 L1184.5625,573.0156 C1184.5625,575.5938 1186.6719,577.4844 1189.5625,577.4844 C1190.7813,577.4844 1191.9375,577.1875 1192.6875,576.6406 C1193.2656,576.2344 1193.5938,575.7813 1193.5938,575.3906 C1193.5938,574.9375 1193.2031,574.5469 1192.7344,574.5469 C1192.5156,574.5469 1192.3125,574.625 1192.125,574.8125 C1191.6719,575.2969 1191.6719,575.2969 1191.4844,575.3906 C1191.0625,575.6563 1190.375,575.7813 1189.6094,575.7813 C1187.5625,575.7813 1186.2656,574.6875 1186.2656,572.9844 L1186.2656,571.8906 C1186.2656,570.1094 1187.5156,568.7969 1189.25,568.7969 C1189.8281,568.7969 1190.4375,568.9531 1190.9063,569.2031 C1191.3906,569.4844 1191.5625,569.7031 1191.6563,570.1094 C1191.7188,570.5156 1191.75,570.6406 1191.8906,570.7656 C1192.0313,570.9063 1192.2656,571.0156 1192.4844,571.0156 C1192.75,571.0156 1193.0156,570.875 1193.1875,570.6563 C1193.2969,570.5 1193.3281,570.3125 1193.3281,569.8906 L1193.3281,568.4688 C1193.3281,568.0313 1193.3125,567.9063 1193.2188,567.75 C1193.0625,567.4844 1192.7813,567.3438 1192.4844,567.3438 C1192.1875,567.3438 1191.9844,567.4375 1191.7656,567.75 L1191.5938,567.6719 Z " fill="#000000"/><text fill="#000000" font-family="sans-serif" font-size="14" lengthAdjust="spacing" textLength="83" x="1209.75" y="576.8467">Affectation</text><line style="stroke:#40E0D0;stroke-width:0.5;" x1="1092.5" x2="1377.5" y1="588" y2="588"/><text fill="#000000" font-family="sans-serif" font-size="14" lengthAdjust="spacing" textLength="275" x="1097.5" y="604.9951">Affectation(Idf idf, Expression e, int n)</text><text fill="#000000" font-family="sans-serif" font-size="14" lengthAdjust="spacing" textLength="96" x="1097.5" y="621.292">void verifier()</text><text fill="#000000" font-family="sans-serif" font-size="14" lengthAdjust="spacing" textLength="108" x="1097.5" y="637.5889">String toMIPS()</text></g><!--MD5=[3637e2e3ff64f8c7ec072f5df5e3a1dc]
class Expression--><g id="elem_Expression"><rect codeLine="118" fill="#F0F8FF" height="121.4844" id="Expression" rx="2.5" ry="2.5" style="stroke:#40E0D0;stroke-width:0.5;" width="196" x="1640" y="540"/><ellipse cx="1695.25" cy="556" fill="#A9DCDF" rx="11" ry="11" style="stroke:#181818;stroke-width:1.0;"/><path d="M1697.3281,557.8125 L1697.7188,558.7969 L1697.3281,558.7969 C1696.875,558.7969 1696.7656,558.8125 1696.6094,558.9219 C1696.3594,559.0781 1696.2031,559.3594 1696.2031,559.6563 C1696.2031,559.9219 1696.3438,560.1719 1696.5625,560.3281 C1696.7031,560.4531 1696.9063,560.5 1697.3281,560.5 L1699.6875,560.5 C1700.0469,560.5 1700.2656,560.4688 1700.4063,560.375 C1700.6563,560.2344 1700.8125,559.9375 1700.8125,559.6563 C1700.8125,559.375 1700.6719,559.125 1700.4531,558.9688 C1700.2813,558.8281 1700.125,558.7969 1699.6563,558.7969 L1696.2656,550.5938 L1692.5938,550.5938 C1692.1406,550.5938 1692.0156,550.6094 1691.8594,550.7031 C1691.6094,550.875 1691.4531,551.1563 1691.4531,551.4375 C1691.4531,551.7188 1691.5938,551.9688 1691.8125,552.1406 C1691.9844,552.25 1692.1563,552.2813 1692.5938,552.2813 L1693.6719,552.2813 L1691.0313,558.7969 C1690.6094,558.7969 1690.4531,558.8125 1690.2969,558.9219 C1690.0469,559.0781 1689.8906,559.3594 1689.8906,559.6563 C1689.8906,560.2188 1690.2656,560.5 1691.0156,560.5 L1693.2813,560.5 C1693.6406,560.5 1693.8594,560.4688 1693.9844,560.375 C1694.25,560.2344 1694.3906,559.9375 1694.3906,559.6563 C1694.3906,559.375 1694.2656,559.125 1694.0469,558.9531 C1693.875,558.8281 1693.7344,558.7969 1693.2813,558.7969 L1692.8906,558.7969 L1693.2813,557.8125 L1697.3281,557.8125 Z M1696.625,556.1094 L1693.9531,556.1094 L1695.2969,552.8438 L1696.625,556.1094 Z " fill="#000000"/><text fill="#000000" font-family="sans-serif" font-size="14" font-style="italic" lengthAdjust="spacing" textLength="77" x="1715.75" y="560.8467">Expression</text><line style="stroke:#40E0D0;stroke-width:0.5;" x1="1641" x2="1835" y1="572" y2="572"/><text fill="#000000" font-family="sans-serif" font-size="14" lengthAdjust="spacing" textLength="121" x="1646" y="588.9951">Expression(int n)</text><text fill="#000000" font-family="sans-serif" font-size="14" lengthAdjust="spacing" textLength="167" x="1646" y="605.292">abstract boolean isIdf()</text><text fill="#000000" font-family="sans-serif" font-size="14" lengthAdjust="spacing" textLength="180" x="1646" y="621.5889">abstract boolean isBool()</text><text fill="#000000" font-family="sans-serif" font-size="14" lengthAdjust="spacing" textLength="184" x="1646" y="637.8857">abstract String getType()</text><text fill="#000000" font-family="sans-serif" font-size="14" lengthAdjust="spacing" textLength="181" x="1646" y="654.1826">abstract String getNom()</text></g><!--MD5=[4f690aa9c8cbc9d2fcd8ae473aedfe2c]
class Constante--><g id="elem_Constante"><rect codeLine="129" fill="#F0F8FF" height="145.7813" id="Constante" rx="2.5" ry="2.5" style="stroke:#40E0D0;stroke-width:0.5;" width="304" x="1586" y="758"/><ellipse cx="1697.75" cy="774" fill="#A9DCDF" rx="11" ry="11" style="stroke:#181818;stroke-width:1.0;"/><path d="M1699.8281,775.8125 L1700.2188,776.7969 L1699.8281,776.7969 C1699.375,776.7969 1699.2656,776.8125 1699.1094,776.9219 C1698.8594,777.0781 1698.7031,777.3594 1698.7031,777.6563 C1698.7031,777.9219 1698.8438,778.1719 1699.0625,778.3281 C1699.2031,778.4531 1699.4063,778.5 1699.8281,778.5 L1702.1875,778.5 C1702.5469,778.5 1702.7656,778.4688 1702.9063,778.375 C1703.1563,778.2344 1703.3125,777.9375 1703.3125,777.6563 C1703.3125,777.375 1703.1719,777.125 1702.9531,776.9688 C1702.7813,776.8281 1702.625,776.7969 1702.1563,776.7969 L1698.7656,768.5938 L1695.0938,768.5938 C1694.6406,768.5938 1694.5156,768.6094 1694.3594,768.7031 C1694.1094,768.875 1693.9531,769.1563 1693.9531,769.4375 C1693.9531,769.7188 1694.0938,769.9688 1694.3125,770.1406 C1694.4844,770.25 1694.6563,770.2813 1695.0938,770.2813 L1696.1719,770.2813 L1693.5313,776.7969 C1693.1094,776.7969 1692.9531,776.8125 1692.7969,776.9219 C1692.5469,777.0781 1692.3906,777.3594 1692.3906,777.6563 C1692.3906,778.2188 1692.7656,778.5 1693.5156,778.5 L1695.7813,778.5 C1696.1406,778.5 1696.3594,778.4688 1696.4844,778.375 C1696.75,778.2344 1696.8906,777.9375 1696.8906,777.6563 C1696.8906,777.375 1696.7656,777.125 1696.5469,776.9531 C1696.375,776.8281 1696.2344,776.7969 1695.7813,776.7969 L1695.3906,776.7969 L1695.7813,775.8125 L1699.8281,775.8125 Z M1699.125,774.1094 L1696.4531,774.1094 L1697.7969,770.8438 L1699.125,774.1094 Z " fill="#000000"/><text fill="#000000" font-family="sans-serif" font-size="14" font-style="italic" lengthAdjust="spacing" textLength="72" x="1718.25" y="778.8467">Constante</text><line style="stroke:#40E0D0;stroke-width:0.5;" x1="1587" x2="1889" y1="790" y2="790"/><text fill="#000000" font-family="sans-serif" font-size="14" lengthAdjust="spacing" textLength="79" x="1592" y="806.9951">String cste</text><text fill="#000000" font-family="sans-serif" font-size="14" lengthAdjust="spacing" textLength="92" x="1592" y="823.292">boolean isIdf</text><line style="stroke:#40E0D0;stroke-width:0.5;" x1="1587" x2="1889" y1="830.5938" y2="830.5938"/><text fill="#000000" font-family="sans-serif" font-size="14" lengthAdjust="spacing" textLength="292" x="1592" y="847.5889">protected Constante(String texte, int n)</text><text fill="#000000" font-family="sans-serif" font-size="14" lengthAdjust="spacing" textLength="92" x="1592" y="863.8857">void verfier()</text><text fill="#000000" font-family="sans-serif" font-size="14" lengthAdjust="spacing" textLength="118" x="1592" y="880.1826">String toString()</text><text fill="#000000" font-family="sans-serif" font-size="14" lengthAdjust="spacing" textLength="116" x="1592" y="896.4795">String getNom()</text></g><!--MD5=[9a578f9ac222d24f389750fad02fc371]
class ConstanteEntiere--><g id="elem_ConstanteEntiere"><rect codeLine="141" fill="#F0F8FF" height="105.1875" id="ConstanteEntiere" rx="2.5" ry="2.5" style="stroke:#40E0D0;stroke-width:0.5;" width="279" x="1435.5" y="964"/><ellipse cx="1506.75" cy="980" fill="#ADD1B2" rx="11" ry="11" style="stroke:#181818;stroke-width:1.0;"/><path d="M1509.0938,975.6719 C1508.1563,975.2344 1507.5625,975.0938 1506.6875,975.0938 C1504.0625,975.0938 1502.0625,977.1719 1502.0625,979.8906 L1502.0625,981.0156 C1502.0625,983.5938 1504.1719,985.4844 1507.0625,985.4844 C1508.2813,985.4844 1509.4375,985.1875 1510.1875,984.6406 C1510.7656,984.2344 1511.0938,983.7813 1511.0938,983.3906 C1511.0938,982.9375 1510.7031,982.5469 1510.2344,982.5469 C1510.0156,982.5469 1509.8125,982.625 1509.625,982.8125 C1509.1719,983.2969 1509.1719,983.2969 1508.9844,983.3906 C1508.5625,983.6563 1507.875,983.7813 1507.1094,983.7813 C1505.0625,983.7813 1503.7656,982.6875 1503.7656,980.9844 L1503.7656,979.8906 C1503.7656,978.1094 1505.0156,976.7969 1506.75,976.7969 C1507.3281,976.7969 1507.9375,976.9531 1508.4063,977.2031 C1508.8906,977.4844 1509.0625,977.7031 1509.1563,978.1094 C1509.2188,978.5156 1509.25,978.6406 1509.3906,978.7656 C1509.5313,978.9063 1509.7656,979.0156 1509.9844,979.0156 C1510.25,979.0156 1510.5156,978.875 1510.6875,978.6563 C1510.7969,978.5 1510.8281,978.3125 1510.8281,977.8906 L1510.8281,976.4688 C1510.8281,976.0313 1510.8125,975.9063 1510.7188,975.75 C1510.5625,975.4844 1510.2813,975.3438 1509.9844,975.3438 C1509.6875,975.3438 1509.4844,975.4375 1509.2656,975.75 L1509.0938,975.6719 Z " fill="#000000"/><text fill="#000000" font-family="sans-serif" font-size="14" lengthAdjust="spacing" textLength="128" x="1527.25" y="984.8467">ConstanteEntiere</text><line style="stroke:#40E0D0;stroke-width:0.5;" x1="1436.5" x2="1713.5" y1="996" y2="996"/><text fill="#000000" font-family="sans-serif" font-size="14" lengthAdjust="spacing" textLength="267" x="1441.5" y="1012.9951">ConstanteEntiere(String texte, int n)</text><text fill="#000000" font-family="sans-serif" font-size="14" lengthAdjust="spacing" textLength="108" x="1441.5" y="1029.292">String toMIPS()</text><text fill="#000000" font-family="sans-serif" font-size="14" lengthAdjust="spacing" textLength="115" x="1441.5" y="1045.5889">boolean isBool()</text><text fill="#000000" font-family="sans-serif" font-size="14" lengthAdjust="spacing" textLength="119" x="1441.5" y="1061.8857">String getType()</text></g><!--MD5=[8bf1e18625b28affd47f46859604c28f]
class Idf--><g id="elem_Idf"><rect codeLine="149" fill="#F0F8FF" height="194.6719" id="Idf" rx="2.5" ry="2.5" style="stroke:#40E0D0;stroke-width:0.5;" width="170" x="1435" y="503"/><ellipse cx="1506.25" cy="519" fill="#ADD1B2" rx="11" ry="11" style="stroke:#181818;stroke-width:1.0;"/><path d="M1508.5938,514.6719 C1507.6563,514.2344 1507.0625,514.0938 1506.1875,514.0938 C1503.5625,514.0938 1501.5625,516.1719 1501.5625,518.8906 L1501.5625,520.0156 C1501.5625,522.5938 1503.6719,524.4844 1506.5625,524.4844 C1507.7813,524.4844 1508.9375,524.1875 1509.6875,523.6406 C1510.2656,523.2344 1510.5938,522.7813 1510.5938,522.3906 C1510.5938,521.9375 1510.2031,521.5469 1509.7344,521.5469 C1509.5156,521.5469 1509.3125,521.625 1509.125,521.8125 C1508.6719,522.2969 1508.6719,522.2969 1508.4844,522.3906 C1508.0625,522.6563 1507.375,522.7813 1506.6094,522.7813 C1504.5625,522.7813 1503.2656,521.6875 1503.2656,519.9844 L1503.2656,518.8906 C1503.2656,517.1094 1504.5156,515.7969 1506.25,515.7969 C1506.8281,515.7969 1507.4375,515.9531 1507.9063,516.2031 C1508.3906,516.4844 1508.5625,516.7031 1508.6563,517.1094 C1508.7188,517.5156 1508.75,517.6406 1508.8906,517.7656 C1509.0313,517.9063 1509.2656,518.0156 1509.4844,518.0156 C1509.75,518.0156 1510.0156,517.875 1510.1875,517.6563 C1510.2969,517.5 1510.3281,517.3125 1510.3281,516.8906 L1510.3281,515.4688 C1510.3281,515.0313 1510.3125,514.9063 1510.2188,514.75 C1510.0625,514.4844 1509.7813,514.3438 1509.4844,514.3438 C1509.1875,514.3438 1508.9844,514.4375 1508.7656,514.75 L1508.5938,514.6719 Z " fill="#000000"/><text fill="#000000" font-family="sans-serif" font-size="14" lengthAdjust="spacing" textLength="19" x="1526.75" y="523.8467">Idf</text><line style="stroke:#40E0D0;stroke-width:0.5;" x1="1436" x2="1604" y1="535" y2="535"/><text fill="#000000" font-family="sans-serif" font-size="14" lengthAdjust="spacing" textLength="80" x="1441" y="551.9951">String nom</text><text fill="#000000" font-family="sans-serif" font-size="14" lengthAdjust="spacing" textLength="128" x="1441" y="568.292">Symbole symbole</text><line style="stroke:#40E0D0;stroke-width:0.5;" x1="1436" x2="1604" y1="575.5938" y2="575.5938"/><text fill="#000000" font-family="sans-serif" font-size="14" lengthAdjust="spacing" textLength="158" x="1441" y="592.5889">Idf(String texte, int n)</text><text fill="#000000" font-family="sans-serif" font-size="14" lengthAdjust="spacing" textLength="96" x="1441" y="608.8857">void verifier()</text><text fill="#000000" font-family="sans-serif" font-size="14" lengthAdjust="spacing" textLength="108" x="1441" y="625.1826">String toMIPS()</text><text fill="#000000" font-family="sans-serif" font-size="14" lengthAdjust="spacing" textLength="102" x="1441" y="641.4795">boolean isIdf()</text><text fill="#000000" font-family="sans-serif" font-size="14" lengthAdjust="spacing" textLength="115" x="1441" y="657.7764">boolean isBool()</text><text fill="#000000" font-family="sans-serif" font-size="14" lengthAdjust="spacing" textLength="119" x="1441" y="674.0732">String getType()</text><text fill="#000000" font-family="sans-serif" font-size="14" lengthAdjust="spacing" textLength="116" x="1441" y="690.3701">String getNom()</text></g><!--MD5=[fc2b262320c1c5a15a37147ef1a1de1f]
class ConstanteBooleenne--><g id="elem_ConstanteBooleenne"><rect codeLine="164" fill="#F0F8FF" height="105.1875" id="ConstanteBooleenne" rx="2.5" ry="2.5" style="stroke:#40E0D0;stroke-width:0.5;" width="303" x="1749.5" y="964"/><ellipse cx="1820.75" cy="980" fill="#ADD1B2" rx="11" ry="11" style="stroke:#181818;stroke-width:1.0;"/><path d="M1823.0938,975.6719 C1822.1563,975.2344 1821.5625,975.0938 1820.6875,975.0938 C1818.0625,975.0938 1816.0625,977.1719 1816.0625,979.8906 L1816.0625,981.0156 C1816.0625,983.5938 1818.1719,985.4844 1821.0625,985.4844 C1822.2813,985.4844 1823.4375,985.1875 1824.1875,984.6406 C1824.7656,984.2344 1825.0938,983.7813 1825.0938,983.3906 C1825.0938,982.9375 1824.7031,982.5469 1824.2344,982.5469 C1824.0156,982.5469 1823.8125,982.625 1823.625,982.8125 C1823.1719,983.2969 1823.1719,983.2969 1822.9844,983.3906 C1822.5625,983.6563 1821.875,983.7813 1821.1094,983.7813 C1819.0625,983.7813 1817.7656,982.6875 1817.7656,980.9844 L1817.7656,979.8906 C1817.7656,978.1094 1819.0156,976.7969 1820.75,976.7969 C1821.3281,976.7969 1821.9375,976.9531 1822.4063,977.2031 C1822.8906,977.4844 1823.0625,977.7031 1823.1563,978.1094 C1823.2188,978.5156 1823.25,978.6406 1823.3906,978.7656 C1823.5313,978.9063 1823.7656,979.0156 1823.9844,979.0156 C1824.25,979.0156 1824.5156,978.875 1824.6875,978.6563 C1824.7969,978.5 1824.8281,978.3125 1824.8281,977.8906 L1824.8281,976.4688 C1824.8281,976.0313 1824.8125,975.9063 1824.7188,975.75 C1824.5625,975.4844 1824.2813,975.3438 1823.9844,975.3438 C1823.6875,975.3438 1823.4844,975.4375 1823.2656,975.75 L1823.0938,975.6719 Z " fill="#000000"/><text fill="#000000" font-family="sans-serif" font-size="14" lengthAdjust="spacing" textLength="152" x="1841.25" y="984.8467">ConstanteBooleenne</text><line style="stroke:#40E0D0;stroke-width:0.5;" x1="1750.5" x2="2051.5" y1="996" y2="996"/><text fill="#000000" font-family="sans-serif" font-size="14" lengthAdjust="spacing" textLength="291" x="1755.5" y="1012.9951">ConstanteBooleenne(String texte, int n)</text><text fill="#000000" font-family="sans-serif" font-size="14" lengthAdjust="spacing" textLength="108" x="1755.5" y="1029.292">String toMIPS()</text><text fill="#000000" font-family="sans-serif" font-size="14" lengthAdjust="spacing" textLength="115" x="1755.5" y="1045.5889">boolean isBool()</text><text fill="#000000" font-family="sans-serif" font-size="14" lengthAdjust="spacing" textLength="119" x="1755.5" y="1061.8857">String getType()</text></g><!--MD5=[c26568296462371c3a12de295f19cef5]
class Symbole--><g id="elem_Symbole"><rect codeLine="177" fill="#F0F8FF" height="178.375" id="Symbole" rx="2.5" ry="2.5" style="stroke:#40E0D0;stroke-width:0.5;" width="297" x="582.5" y="84"/><ellipse cx="695.25" cy="100" fill="#ADD1B2" rx="11" ry="11" style="stroke:#181818;stroke-width:1.0;"/><path d="M697.5938,95.6719 C696.6563,95.2344 696.0625,95.0938 695.1875,95.0938 C692.5625,95.0938 690.5625,97.1719 690.5625,99.8906 L690.5625,101.0156 C690.5625,103.5938 692.6719,105.4844 695.5625,105.4844 C696.7813,105.4844 697.9375,105.1875 698.6875,104.6406 C699.2656,104.2344 699.5938,103.7813 699.5938,103.3906 C699.5938,102.9375 699.2031,102.5469 698.7344,102.5469 C698.5156,102.5469 698.3125,102.625 698.125,102.8125 C697.6719,103.2969 697.6719,103.2969 697.4844,103.3906 C697.0625,103.6563 696.375,103.7813 695.6094,103.7813 C693.5625,103.7813 692.2656,102.6875 692.2656,100.9844 L692.2656,99.8906 C692.2656,98.1094 693.5156,96.7969 695.25,96.7969 C695.8281,96.7969 696.4375,96.9531 696.9063,97.2031 C697.3906,97.4844 697.5625,97.7031 697.6563,98.1094 C697.7188,98.5156 697.75,98.6406 697.8906,98.7656 C698.0313,98.9063 698.2656,99.0156 698.4844,99.0156 C698.75,99.0156 699.0156,98.875 699.1875,98.6563 C699.2969,98.5 699.3281,98.3125 699.3281,97.8906 L699.3281,96.4688 C699.3281,96.0313 699.3125,95.9063 699.2188,95.75 C699.0625,95.4844 698.7813,95.3438 698.4844,95.3438 C698.1875,95.3438 697.9844,95.4375 697.7656,95.75 L697.5938,95.6719 Z " fill="#000000"/><text fill="#000000" font-family="sans-serif" font-size="14" lengthAdjust="spacing" textLength="63" x="715.75" y="104.8467">Symbole</text><line style="stroke:#40E0D0;stroke-width:0.5;" x1="583.5" x2="878.5" y1="116" y2="116"/><text fill="#000000" font-family="sans-serif" font-size="14" lengthAdjust="spacing" textLength="120" x="588.5" y="132.9951">int deplacement</text><text fill="#000000" font-family="sans-serif" font-size="14" lengthAdjust="spacing" textLength="82" x="588.5" y="149.292">String type</text><text fill="#000000" font-family="sans-serif" font-size="14" lengthAdjust="spacing" textLength="147" x="588.5" y="165.5889">int getDeplacement</text><line style="stroke:#40E0D0;stroke-width:0.5;" x1="583.5" x2="878.5" y1="172.8906" y2="172.8906"/><text fill="#000000" font-family="sans-serif" font-size="14" lengthAdjust="spacing" textLength="283" x="588.5" y="189.8857">Symbole(int deplacement, String type)</text><text fill="#000000" font-family="sans-serif" font-size="14" lengthAdjust="spacing" textLength="155" x="588.5" y="206.1826">Symbole(String type)</text><text fill="#000000" font-family="sans-serif" font-size="14" lengthAdjust="spacing" textLength="285" x="588.5" y="222.4795">void setDeplacement(int deplacement)</text><text fill="#000000" font-family="sans-serif" font-size="14" lengthAdjust="spacing" textLength="119" x="588.5" y="238.7764">String getType()</text><text fill="#000000" font-family="sans-serif" font-size="14" lengthAdjust="spacing" textLength="185" x="588.5" y="255.0732">void setType(String type)</text></g><!--MD5=[9fd4d3b135ff4f433a9c0e8b9d005dc6]
class TDS--><g id="elem_TDS"><rect codeLine="189" fill="#F0F8FF" height="145.7813" id="TDS" rx="2.5" ry="2.5" style="stroke:#40E0D0;stroke-width:0.5;" width="501" x="46.5" y="100"/><ellipse cx="278.25" cy="116" fill="#ADD1B2" rx="11" ry="11" style="stroke:#181818;stroke-width:1.0;"/><path d="M280.5938,111.6719 C279.6563,111.2344 279.0625,111.0938 278.1875,111.0938 C275.5625,111.0938 273.5625,113.1719 273.5625,115.8906 L273.5625,117.0156 C273.5625,119.5938 275.6719,121.4844 278.5625,121.4844 C279.7813,121.4844 280.9375,121.1875 281.6875,120.6406 C282.2656,120.2344 282.5938,119.7813 282.5938,119.3906 C282.5938,118.9375 282.2031,118.5469 281.7344,118.5469 C281.5156,118.5469 281.3125,118.625 281.125,118.8125 C280.6719,119.2969 280.6719,119.2969 280.4844,119.3906 C280.0625,119.6563 279.375,119.7813 278.6094,119.7813 C276.5625,119.7813 275.2656,118.6875 275.2656,116.9844 L275.2656,115.8906 C275.2656,114.1094 276.5156,112.7969 278.25,112.7969 C278.8281,112.7969 279.4375,112.9531 279.9063,113.2031 C280.3906,113.4844 280.5625,113.7031 280.6563,114.1094 C280.7188,114.5156 280.75,114.6406 280.8906,114.7656 C281.0313,114.9063 281.2656,115.0156 281.4844,115.0156 C281.75,115.0156 282.0156,114.875 282.1875,114.6563 C282.2969,114.5 282.3281,114.3125 282.3281,113.8906 L282.3281,112.4688 C282.3281,112.0313 282.3125,111.9063 282.2188,111.75 C282.0625,111.4844 281.7813,111.3438 281.4844,111.3438 C281.1875,111.3438 280.9844,111.4375 280.7656,111.75 L280.5938,111.6719 Z " fill="#000000"/><text fill="#000000" font-family="sans-serif" font-size="14" lengthAdjust="spacing" textLength="29" x="298.75" y="120.8467">TDS</text><line style="stroke:#40E0D0;stroke-width:0.5;" x1="47.5" x2="546.5" y1="132" y2="132"/><text fill="#000000" font-family="sans-serif" font-size="14" lengthAdjust="spacing" textLength="184" x="52.5" y="148.9951">static final TDS INSTANCE</text><text fill="#000000" font-family="sans-serif" font-size="14" lengthAdjust="spacing" textLength="304" x="52.5" y="165.292">final HashMap&lt;String, Symbole&gt; variables</text><line style="stroke:#40E0D0;stroke-width:0.5;" x1="47.5" x2="546.5" y1="172.5938" y2="172.5938"/><text fill="#000000" font-family="sans-serif" font-size="14" lengthAdjust="spacing" textLength="174" x="52.5" y="189.5889">static TDS getInstance()</text><text fill="#000000" font-family="sans-serif" font-size="14" lengthAdjust="spacing" textLength="489" x="52.5" y="205.8857">void ajouter(String idf, Symbole symbole) throws DoubleDeclaration</text><text fill="#000000" font-family="sans-serif" font-size="14" lengthAdjust="spacing" textLength="432" x="52.5" y="222.1826">Symbole identifier(String nom) throws VariableNonDeclaree</text><text fill="#000000" font-family="sans-serif" font-size="14" lengthAdjust="spacing" textLength="193" x="52.5" y="238.4795">int getTailleZoneVariable()</text></g><!--MD5=[093103bafefb4b7fd520c0c66f617092]
reverse link RuntimeException to AnalyseException--><g id="link_RuntimeException_AnalyseException"><path codeLine="20" d="M2845,209.3 C2845,250.354 2845,317.229 2845,354.405 " fill="none" id="RuntimeException-backto-AnalyseException" style="stroke:#00CED1;stroke-width:1.0;"/><polygon fill="none" points="2838,209.258,2845,189.258,2852,209.258,2838,209.258" style="stroke:#00CED1;stroke-width:1.0;"/></g><!--MD5=[bd53a35e9096d074f7fb8193f3ab19a1]
reverse link AnalyseException to AnalyseLexicaleException--><g id="link_AnalyseException_AnalyseLexicaleException"><path codeLine="25" d="M2806.82,426.006 C2767.82,469.433 2708.43,535.56 2675.37,572.366 " fill="none" id="AnalyseException-backto-AnalyseLexicaleException" style="stroke:#00CED1;stroke-width:1.0;"/><polygon fill="none" points="2801.86,421.059,2820.43,410.857,2812.27,430.414,2801.86,421.059" style="stroke:#00CED1;stroke-width:1.0;"/></g><!--MD5=[fc4d7b43180e87921c51cff1a9cabbc3]
reverse link AnalyseException to AnalyseSyntaxiqueException--><g id="link_AnalyseException_AnalyseSyntaxiqueException"><path codeLine="30" d="M2883.12,425.72 C2922.32,469.142 2982.2,535.479 3015.5,572.366 " fill="none" id="AnalyseException-backto-AnalyseSyntaxiqueException" style="stroke:#00CED1;stroke-width:1.0;"/><polygon fill="none" points="2877.9,430.393,2869.7,410.857,2888.29,421.011,2877.9,430.393" style="stroke:#00CED1;stroke-width:1.0;"/></g><!--MD5=[6f9a5644850414f073c3d65a5c2a1410]
reverse link AnalyseException to AnalyseSemantiqueException--><g id="link_AnalyseException_AnalyseSemantiqueException"><path codeLine="35" d="M2733.79,415.745 C2695.48,425.824 2652.12,436.099 2612,443 C2529.75,457.147 2502.08,428.018 2425,460 C2364.98,484.901 2310.23,539.314 2280.76,572.341 " fill="none" id="AnalyseException-backto-AnalyseSemantiqueException" style="stroke:#00CED1;stroke-width:1.0;"/><polygon fill="none" points="2732.19,408.927,2753.32,410.512,2735.81,422.45,2732.19,408.927" style="stroke:#00CED1;stroke-width:1.0;"/></g><!--MD5=[926023267d9de91f1d75adb77cb0991b]
reverse link AnalyseException to AnalyseLexicaleSemantiqueException--><g id="link_AnalyseException_AnalyseLexicaleSemantiqueException"><path codeLine="40" d="M2970.94,397.608 C3041.38,408.611 3129.51,427.662 3203,460 C3267.8,488.514 3332.71,540.424 3369.18,572.249 " fill="none" id="AnalyseException-backto-AnalyseLexicaleSemantiqueException" style="stroke:#00CED1;stroke-width:1.0;"/><polygon fill="none" points="2969.85,404.523,2951.1,394.647,2971.92,390.677,2969.85,404.523" style="stroke:#00CED1;stroke-width:1.0;"/></g><!--MD5=[1ad2bce2741e0507011fb00256e31e42]
reverse link AnalyseSemantiqueException to VariableNonDeclaree--><g id="link_AnalyseSemantiqueException_VariableNonDeclaree"><path codeLine="45" d="M2254.69,648.808 C2251.42,695.414 2246.55,764.981 2243.9,802.926 " fill="none" id="AnalyseSemantiqueException-backto-VariableNonDeclaree" style="stroke:#00CED1;stroke-width:1.0;"/><polygon fill="none" points="2247.72,648.071,2256.1,628.609,2261.69,649.049,2247.72,648.071" style="stroke:#00CED1;stroke-width:1.0;"/></g><!--MD5=[98720e296c973dddbe03991a559def65]
reverse link AnalyseSemantiqueException to DoubleDeclaration--><g id="link_AnalyseSemantiqueException_DoubleDeclaration"><path codeLine="50" d="M2301.95,642.326 C2351.91,688.732 2432.06,763.178 2474.85,802.926 " fill="none" id="AnalyseSemantiqueException-backto-DoubleDeclaration" style="stroke:#00CED1;stroke-width:1.0;"/><polygon fill="none" points="2297.08,647.349,2287.19,628.609,2306.6,637.092,2297.08,647.349" style="stroke:#00CED1;stroke-width:1.0;"/></g><!--MD5=[e27ecaa8234b8c6878101388620fc621]
link ListeErreurs to Erreur--><g id="link_ListeErreurs_Erreur"><path codeLine="69" d="M2515,254.225 C2515,278.174 2515,303.889 2515,325.892 " fill="none" id="ListeErreurs-Erreur" style="stroke:#00CED1;stroke-width:1.0;"/><text fill="#000000" font-family="sans-serif" font-size="13" lengthAdjust="spacing" textLength="7" x="2507.5516" y="314.7416">*</text></g><!--MD5=[9cf84aeaf8545ae860f6e0be91faace4]
reverse link ArbreAbstrait to BlocDInstructions--><g id="link_ArbreAbstrait_BlocDInstructions"><path codeLine="89" d="M1256.46,257.758 C1256,279.225 1256.29,301.878 1257.33,321.852 " fill="none" id="ArbreAbstrait-backto-BlocDInstructions" style="stroke:#00CED1;stroke-width:1.0;"/><polygon fill="none" points="1249.47,257.421,1257.14,237.667,1263.46,257.89,1249.47,257.421" style="stroke:#00CED1;stroke-width:1.0;"/></g><!--MD5=[71fe2b3565c96dc4c4945a4f150baf9a]
link ArbreAbstrait to BlocDInstructions--><g id="link_ArbreAbstrait_BlocDInstructions"><path codeLine="90" d="M1281.56,237.667 C1282.88,264.472 1282.81,295.494 1281.35,321.852 " fill="none" id="ArbreAbstrait-BlocDInstructions" style="stroke:#00CED1;stroke-width:1.0;"/><text fill="#000000" font-family="sans-serif" font-size="13" lengthAdjust="spacing" textLength="7" x="1275.6076" y="258.0579">*</text></g><!--MD5=[3be2716bc7ff17a87ff36b40b2ec342b]
reverse link ArbreAbstrait to Instruction--><g id="link_ArbreAbstrait_Instruction"><path codeLine="96" d="M1189.96,251.729 C1153.33,287.747 1112.16,328.236 1085.7,354.263 " fill="none" id="ArbreAbstrait-backto-Instruction" style="stroke:#00CED1;stroke-width:1.0;"/><polygon fill="none" points="1185.09,246.699,1204.26,237.667,1194.91,256.681,1185.09,246.699" style="stroke:#00CED1;stroke-width:1.0;"/></g><!--MD5=[42605971b776ea6a3cb71be1043c887b]
reverse link Instruction to Ecrire--><g id="link_Instruction_Ecrire"><path codeLine="104" d="M1044.61,430.155 C1033.89,467.49 1018.98,519.457 1008.5,555.948 " fill="none" id="Instruction-backto-Ecrire" style="stroke:#00CED1;stroke-width:1.0;"/><polygon fill="none" points="1037.9,428.149,1050.15,410.857,1051.36,432.012,1037.9,428.149" style="stroke:#00CED1;stroke-width:1.0;"/></g><!--MD5=[5493ab538f51d991d513955fb24ab485]
reverse link Instruction to Affectation--><g id="link_Instruction_Affectation"><path codeLine="112" d="M1093.29,426.565 C1124.05,464.097 1168.44,518.272 1199.31,555.948 " fill="none" id="Instruction-backto-Affectation" style="stroke:#00CED1;stroke-width:1.0;"/><polygon fill="none" points="1087.68,430.763,1080.42,410.857,1098.51,421.889,1087.68,430.763" style="stroke:#00CED1;stroke-width:1.0;"/></g><!--MD5=[3876918391483bae82ee5d21cc1e3e60]
reverse link ArbreAbstrait to Expression--><g id="link_ArbreAbstrait_Expression"><path codeLine="126" d="M1373.21,249.807 C1445.98,304.768 1543.73,382.721 1622,460 C1646.99,484.675 1672.22,514.319 1692.73,539.923 " fill="none" id="ArbreAbstrait-backto-Expression" style="stroke:#00CED1;stroke-width:1.0;"/><polygon fill="none" points="1368.93,255.349,1357.14,237.741,1377.34,244.155,1368.93,255.349" style="stroke:#00CED1;stroke-width:1.0;"/></g><!--MD5=[92ce6600ae449073206cb7f98e8b025c]
link Ecrire to Expression--><g id="link_Ecrire_Expression"><path codeLine="127" d="M1006.71,555.736 C1019.22,515.904 1044.49,462.313 1091.5,451.5 C1119.27,445.112 1576.73,445.112 1604.5,451.5 C1650.53,462.088 1685.33,503.478 1707.84,539.955 " fill="none" id="Ecrire-Expression" style="stroke:#00CED1;stroke-width:1.0;"/><text fill="#000000" font-family="sans-serif" font-size="13" lengthAdjust="spacing" textLength="8" x="1695.8903" y="529.1339">1</text></g><!--MD5=[07c66e9942106b6c78a615d8a96ac5e1]
reverse link Expression to Constante--><g id="link_Expression_Constante"><path codeLine="138" d="M1738,681.474 C1738,706.376 1738,733.672 1738,757.995 " fill="none" id="Expression-backto-Constante" style="stroke:#00CED1;stroke-width:1.0;"/><polygon fill="none" points="1731,681.237,1738,661.237,1745,681.237,1731,681.237" style="stroke:#00CED1;stroke-width:1.0;"/></g><!--MD5=[10740e7c3af92918765b64ed4b4d42a7]
reverse link Constante to ConstanteEntiere--><g id="link_Constante_ConstanteEntiere"><path codeLine="162" d="M1660.36,919.409 C1646.8,934.673 1633.1,950.097 1620.76,963.988 " fill="none" id="Constante-backto-ConstanteEntiere" style="stroke:#00CED1;stroke-width:1.0;"/><polygon fill="none" points="1655.3,914.565,1673.81,904.261,1665.76,923.862,1655.3,914.565" style="stroke:#00CED1;stroke-width:1.0;"/></g><!--MD5=[902b42d8a4a04a838aa7af5f3285dadf]
reverse link Constante to ConstanteBooleenne--><g id="link_Constante_ConstanteBooleenne"><path codeLine="171" d="M1815.64,919.409 C1829.2,934.673 1842.9,950.097 1855.24,963.988 " fill="none" id="Constante-backto-ConstanteBooleenne" style="stroke:#00CED1;stroke-width:1.0;"/><polygon fill="none" points="1810.24,923.862,1802.19,904.261,1820.7,914.565,1810.24,923.862" style="stroke:#00CED1;stroke-width:1.0;"/></g><!--MD5=[d6ae615eca8386a6907b4db61013d5d0]
link Affectation to Expression--><g id="link_Affectation_Expression"><path codeLine="172" d="M1274.02,555.911 C1311.16,517.719 1370.99,466.568 1436.5,451.5 C1472.88,443.132 1568.12,443.132 1604.5,451.5 C1612.93,453.438 1615.2,454.655 1622,460 C1650.47,482.388 1676.68,512.856 1696.95,539.697 " fill="none" id="Affectation-Expression" style="stroke:#00CED1;stroke-width:1.0;"/><text fill="#000000" font-family="sans-serif" font-size="13" lengthAdjust="spacing" textLength="8" x="1683.7411" y="528.846">1</text></g><!--MD5=[315042014571a037fefe573ae7a71485]
link Affectation to Idf--><g id="link_Affectation_Idf"><path codeLine="173" d="M1378.61,600.5 C1397.39,600.5 1416.17,600.5 1434.95,600.5 " fill="none" id="Affectation-Idf" style="stroke:#00CED1;stroke-width:1.0;"/><text fill="#000000" font-family="sans-serif" font-size="13" lengthAdjust="spacing" textLength="8" x="1419.019" y="596.9195">1</text></g><!--MD5=[1a52b394357da002b579fc01ef6a6f70]
@startuml
skinparam class {
BackgroundColor AliceBlue
ArrowColor DarkTurquoise
BorderColor Turquoise
}

skinparam stereotypeCBackgroundColor DarkTurquoise
skinparam stereotypeIBackgroundColor Magenta
skinparam stereotypeABackgroundColor Yellow

hide stereotype
hide empty member

package "arbre"{
    package "exceptions"{
        abstract class AnalyseException{
            AnalyseException(String m)
        }

        AnalyseException -up-|> RuntimeException

        class AnalyseLexicaleException{
            AnalyseLexicalException(int ligne, int colonne, String m)
        }
        AnalyseLexicaleException -up-|> AnalyseException

        class AnalyseSyntaxiqueException{
            AnalyseSyntaxiqueException(String m)
        }
        AnalyseSyntaxiqueException -up-|> AnalyseException

        class AnalyseSemantiqueException{
            AnalyseSemantiqueException(String m)
        }
        AnalyseSemantiqueException -up-|> AnalyseException

        class AnalyseLexicaleSemantiqueException{
            AnalyseLexicaleSemantiqueException(String m)
        }
        AnalyseLexicaleSemantiqueException -up-|> AnalyseException

        class VariableNonDeclaree{
            VariableNonDeclaree(String m)
        }
        VariableNonDeclaree -up-|> AnalyseSemantiqueException

        class DoubleDeclaration{
            DoubleDeclaration(String m)
        }
        DoubleDeclaration -up-|> AnalyseSemantiqueException

        class Erreur{
            final String message
            final int ligne
            String getMessage()
            int getLigne()
        }

        class ListeErreurs{
            static final ListeErreurs INSTANCE
            ListeErreurs()
            static ListeErreurs getInstance()
            void ajouter(Erreur e)
            int getNbErreurs()
            Erreur getErreur(int i)
            ArrayList<Erreur> getErreurs()
        }
    }
    ListeErreurs - -"*"Erreur


    package "instructions"{
        abstract class ArbreAbstrait {
           int noLigne
           ArbreAbstrait(int n)
           int getNoLigne()
           abstract void verifier()
           abstract String toMIPS()
        }

        class BlocDInstructions {
           BlocDInstructions(int n)
           void ajouter(ArbreAbstrait a)
           void verifier()
           String toMIPS()
           String toString()
        }

        BlocDInstructions -up-|> ArbreAbstrait
        BlocDInstructions -up- "*" ArbreAbstrait

        abstract class Instruction {
            Instruction(int n)
        }

        Instruction -up-|> ArbreAbstrait

        class Ecrire {
           Ecrire(int n)
           void verifier()
           String toMIPS()
        }

        Ecrire  -up-|> Instruction

        class Affectation {
           Affectation(Idf idf, Expression e, int n)
           void verifier()
           String toMIPS()
        }

        Affectation  -up-|> Instruction

    }


    package "expressions"{
        abstract class Expression {
           Expression(int n)
           abstract boolean isIdf()
           abstract boolean isBool()
           abstract String getType()
           abstract String getNom()
        }

        Expression  -up-|> ArbreAbstrait
        Ecrire - "1" Expression

        abstract class Constante {
           String cste
           protected Constante(String texte, int n)
           void verfier()
           String toString()
           boolean isIdf
           String getNom()
        }

        Constante  -up-|> Expression


        class ConstanteEntiere {
           ConstanteEntiere(String texte, int n)
           String toMIPS()
           boolean isBool()
           String getType()

        }

        class Idf {
                   String nom
                   Symbole symbole
                   Idf(String texte, int n)
                   void verifier()
                   String toMIPS()
                   boolean isIdf()
                   boolean isBool()
                   String getType()
                   String getNom()

                }

        ConstanteEntiere  -up-|> Constante

        class ConstanteBooleenne {
           ConstanteBooleenne(String texte, int n)
           String toMIPS()
           boolean isBool()
           String getType()
        }

        ConstanteBooleenne  -up-|> Constante
        Affectation - "1" Expression
                Affectation - "1" Idf

    }
    package "declarations"{
        class Symbole {
            int deplacement
            String type
            Symbole(int deplacement, String type)
            Symbole(String type)
            int getDeplacement
            void setDeplacement(int deplacement)
            String getType()
            void setType(String type)

        }

        class TDS{
            static final TDS INSTANCE
            final HashMap<String, Symbole> variables
            static TDS getInstance()
            void ajouter(String idf, Symbole symbole) throws DoubleDeclaration
            Symbole identifier(String nom) throws VariableNonDeclaree
            int getTailleZoneVariable()

        }
}
}
@enduml

PlantUML version 1.2022.2beta8(Unknown compile time)
(GPL source distribution)
Java Runtime: Java(TM) SE Runtime Environment
JVM: Java HotSpot(TM) 64-Bit Server VM
Default Encoding: UTF-8
Language: en
Country: US
--></g><script xmlns=""/></svg>