<?xml version="1.0" encoding="UTF-8" standalone="no"?>
<svg xmlns="http://www.w3.org/2000/svg" xmlns:xlink="http://www.w3.org/1999/xlink" contentScriptType="application/ecmascript" contentStyleType="text/css" height="667px" preserveAspectRatio="none" style="width:1467px;height:667px;background:#FFFFFF;" version="1.1" viewBox="0 0 1467 667" width="1467px" zoomAndPan="magnify"><defs><filter height="300%" id="fj83zntkcfn21" width="300%" x="-1" y="-1"><feGaussianBlur result="blurOut" stdDeviation="2.0"/><feColorMatrix in="blurOut" result="blurOut2" type="matrix" values="0 0 0 0 0 0 0 0 0 0 0 0 0 0 0 0 0 0 .4 0"/><feOffset dx="4.0" dy="4.0" in="blurOut2" result="blurOut3"/><feBlend in="SourceGraphic" in2="blurOut3" mode="normal"/></filter></defs><g><!--MD5=[96ca7e1771b03e9c73587bb66ca68a0a]
class AnalyseException--><rect codeLine="14" fill="#F0F8FF" filter="url(#fj83zntkcfn21)" height="32" id="AnalyseException" style="stroke:#40E0D0;stroke-width:1.5;" width="138" x="1051" y="189"/><ellipse cx="1066" cy="205" fill="#FFFF00" rx="11" ry="11" style="stroke:#40E0D0;stroke-width:1.0;"/><path d="M1068.0781,206.8125 L1068.4688,207.7969 L1068.0781,207.7969 C1067.625,207.7969 1067.5156,207.8125 1067.3594,207.9219 C1067.1094,208.0781 1066.9531,208.3594 1066.9531,208.6563 C1066.9531,208.9219 1067.0938,209.1719 1067.3125,209.3281 C1067.4531,209.4531 1067.6563,209.5 1068.0781,209.5 L1070.4375,209.5 C1070.7969,209.5 1071.0156,209.4688 1071.1563,209.375 C1071.4063,209.2344 1071.5625,208.9375 1071.5625,208.6563 C1071.5625,208.375 1071.4219,208.125 1071.2031,207.9688 C1071.0313,207.8281 1070.875,207.7969 1070.4063,207.7969 L1067.0156,199.5938 L1063.3438,199.5938 C1062.8906,199.5938 1062.7656,199.6094 1062.6094,199.7031 C1062.3594,199.875 1062.2031,200.1563 1062.2031,200.4375 C1062.2031,200.7188 1062.3438,200.9688 1062.5625,201.1406 C1062.7344,201.25 1062.9063,201.2813 1063.3438,201.2813 L1064.4219,201.2813 L1061.7813,207.7969 C1061.3594,207.7969 1061.2031,207.8125 1061.0469,207.9219 C1060.7969,208.0781 1060.6406,208.3594 1060.6406,208.6563 C1060.6406,209.2188 1061.0156,209.5 1061.7656,209.5 L1064.0313,209.5 C1064.3906,209.5 1064.6094,209.4688 1064.7344,209.375 C1065,209.2344 1065.1406,208.9375 1065.1406,208.6563 C1065.1406,208.375 1065.0156,208.125 1064.7969,207.9531 C1064.625,207.8281 1064.4844,207.7969 1064.0313,207.7969 L1063.6406,207.7969 L1064.0313,206.8125 L1068.0781,206.8125 Z M1067.375,205.1094 L1064.7031,205.1094 L1066.0469,201.8438 L1067.375,205.1094 Z " fill="#000000"/><text fill="#000000" font-family="sans-serif" font-size="12" font-style="italic" lengthAdjust="spacing" textLength="106" x="1080" y="209.1543">AnalyseException</text><!--MD5=[5c6c7d52e42032554528404b62c1d271]
class RuntimeException--><rect fill="#F0F8FF" filter="url(#fj83zntkcfn21)" height="32" id="RuntimeException" style="stroke:#40E0D0;stroke-width:1.5;" width="138" x="1051" y="40.5"/><ellipse cx="1066" cy="56.5" fill="#00CED1" rx="11" ry="11" style="stroke:#40E0D0;stroke-width:1.0;"/><path d="M1068.3438,52.1719 C1067.4063,51.7344 1066.8125,51.5938 1065.9375,51.5938 C1063.3125,51.5938 1061.3125,53.6719 1061.3125,56.3906 L1061.3125,57.5156 C1061.3125,60.0938 1063.4219,61.9844 1066.3125,61.9844 C1067.5313,61.9844 1068.6875,61.6875 1069.4375,61.1406 C1070.0156,60.7344 1070.3438,60.2813 1070.3438,59.8906 C1070.3438,59.4375 1069.9531,59.0469 1069.4844,59.0469 C1069.2656,59.0469 1069.0625,59.125 1068.875,59.3125 C1068.4219,59.7969 1068.4219,59.7969 1068.2344,59.8906 C1067.8125,60.1563 1067.125,60.2813 1066.3594,60.2813 C1064.3125,60.2813 1063.0156,59.1875 1063.0156,57.4844 L1063.0156,56.3906 C1063.0156,54.6094 1064.2656,53.2969 1066,53.2969 C1066.5781,53.2969 1067.1875,53.4531 1067.6563,53.7031 C1068.1406,53.9844 1068.3125,54.2031 1068.4063,54.6094 C1068.4688,55.0156 1068.5,55.1406 1068.6406,55.2656 C1068.7813,55.4063 1069.0156,55.5156 1069.2344,55.5156 C1069.5,55.5156 1069.7656,55.375 1069.9375,55.1563 C1070.0469,55 1070.0781,54.8125 1070.0781,54.3906 L1070.0781,52.9688 C1070.0781,52.5313 1070.0625,52.4063 1069.9688,52.25 C1069.8125,51.9844 1069.5313,51.8438 1069.2344,51.8438 C1068.9375,51.8438 1068.7344,51.9375 1068.5156,52.25 L1068.3438,52.1719 Z " fill="#000000"/><text fill="#000000" font-family="sans-serif" font-size="12" lengthAdjust="spacing" textLength="106" x="1080" y="60.6543">RuntimeException</text><!--MD5=[528294b680d9ea6b779f09b314c2c62a]
class AnalyseLexicaleException--><rect fill="#F0F8FF" filter="url(#fj83zntkcfn21)" height="32" id="AnalyseLexicaleException" style="stroke:#40E0D0;stroke-width:1.5;" width="187" x="1026.5" y="327"/><ellipse cx="1041.5" cy="343" fill="#00CED1" rx="11" ry="11" style="stroke:#40E0D0;stroke-width:1.0;"/><path d="M1043.8438,338.6719 C1042.9063,338.2344 1042.3125,338.0938 1041.4375,338.0938 C1038.8125,338.0938 1036.8125,340.1719 1036.8125,342.8906 L1036.8125,344.0156 C1036.8125,346.5938 1038.9219,348.4844 1041.8125,348.4844 C1043.0313,348.4844 1044.1875,348.1875 1044.9375,347.6406 C1045.5156,347.2344 1045.8438,346.7813 1045.8438,346.3906 C1045.8438,345.9375 1045.4531,345.5469 1044.9844,345.5469 C1044.7656,345.5469 1044.5625,345.625 1044.375,345.8125 C1043.9219,346.2969 1043.9219,346.2969 1043.7344,346.3906 C1043.3125,346.6563 1042.625,346.7813 1041.8594,346.7813 C1039.8125,346.7813 1038.5156,345.6875 1038.5156,343.9844 L1038.5156,342.8906 C1038.5156,341.1094 1039.7656,339.7969 1041.5,339.7969 C1042.0781,339.7969 1042.6875,339.9531 1043.1563,340.2031 C1043.6406,340.4844 1043.8125,340.7031 1043.9063,341.1094 C1043.9688,341.5156 1044,341.6406 1044.1406,341.7656 C1044.2813,341.9063 1044.5156,342.0156 1044.7344,342.0156 C1045,342.0156 1045.2656,341.875 1045.4375,341.6563 C1045.5469,341.5 1045.5781,341.3125 1045.5781,340.8906 L1045.5781,339.4688 C1045.5781,339.0313 1045.5625,338.9063 1045.4688,338.75 C1045.3125,338.4844 1045.0313,338.3438 1044.7344,338.3438 C1044.4375,338.3438 1044.2344,338.4375 1044.0156,338.75 L1043.8438,338.6719 Z " fill="#000000"/><text fill="#000000" font-family="sans-serif" font-size="12" lengthAdjust="spacing" textLength="155" x="1055.5" y="347.1543">AnalyseLexicaleException</text><!--MD5=[1aeef48b5154da28e0410fd8cc99dd53]
class AnalyseSyntaxiqueException--><rect fill="#F0F8FF" filter="url(#fj83zntkcfn21)" height="32" id="AnalyseSyntaxiqueException" style="stroke:#40E0D0;stroke-width:1.5;" width="204" x="1249" y="327"/><ellipse cx="1264" cy="343" fill="#00CED1" rx="11" ry="11" style="stroke:#40E0D0;stroke-width:1.0;"/><path d="M1266.3438,338.6719 C1265.4063,338.2344 1264.8125,338.0938 1263.9375,338.0938 C1261.3125,338.0938 1259.3125,340.1719 1259.3125,342.8906 L1259.3125,344.0156 C1259.3125,346.5938 1261.4219,348.4844 1264.3125,348.4844 C1265.5313,348.4844 1266.6875,348.1875 1267.4375,347.6406 C1268.0156,347.2344 1268.3438,346.7813 1268.3438,346.3906 C1268.3438,345.9375 1267.9531,345.5469 1267.4844,345.5469 C1267.2656,345.5469 1267.0625,345.625 1266.875,345.8125 C1266.4219,346.2969 1266.4219,346.2969 1266.2344,346.3906 C1265.8125,346.6563 1265.125,346.7813 1264.3594,346.7813 C1262.3125,346.7813 1261.0156,345.6875 1261.0156,343.9844 L1261.0156,342.8906 C1261.0156,341.1094 1262.2656,339.7969 1264,339.7969 C1264.5781,339.7969 1265.1875,339.9531 1265.6563,340.2031 C1266.1406,340.4844 1266.3125,340.7031 1266.4063,341.1094 C1266.4688,341.5156 1266.5,341.6406 1266.6406,341.7656 C1266.7813,341.9063 1267.0156,342.0156 1267.2344,342.0156 C1267.5,342.0156 1267.7656,341.875 1267.9375,341.6563 C1268.0469,341.5 1268.0781,341.3125 1268.0781,340.8906 L1268.0781,339.4688 C1268.0781,339.0313 1268.0625,338.9063 1267.9688,338.75 C1267.8125,338.4844 1267.5313,338.3438 1267.2344,338.3438 C1266.9375,338.3438 1266.7344,338.4375 1266.5156,338.75 L1266.3438,338.6719 Z " fill="#000000"/><text fill="#000000" font-family="sans-serif" font-size="12" lengthAdjust="spacing" textLength="172" x="1278" y="347.1543">AnalyseSyntaxiqueException</text><!--MD5=[a027cc5845f36ad5a1be8fc56ee195a8]
class AnalyseSemantiqueException--><rect fill="#F0F8FF" filter="url(#fj83zntkcfn21)" height="32" id="AnalyseSemantiqueException" style="stroke:#40E0D0;stroke-width:1.5;" width="209" x="782.5" y="327"/><ellipse cx="797.5" cy="343" fill="#00CED1" rx="11" ry="11" style="stroke:#40E0D0;stroke-width:1.0;"/><path d="M799.8438,338.6719 C798.9063,338.2344 798.3125,338.0938 797.4375,338.0938 C794.8125,338.0938 792.8125,340.1719 792.8125,342.8906 L792.8125,344.0156 C792.8125,346.5938 794.9219,348.4844 797.8125,348.4844 C799.0313,348.4844 800.1875,348.1875 800.9375,347.6406 C801.5156,347.2344 801.8438,346.7813 801.8438,346.3906 C801.8438,345.9375 801.4531,345.5469 800.9844,345.5469 C800.7656,345.5469 800.5625,345.625 800.375,345.8125 C799.9219,346.2969 799.9219,346.2969 799.7344,346.3906 C799.3125,346.6563 798.625,346.7813 797.8594,346.7813 C795.8125,346.7813 794.5156,345.6875 794.5156,343.9844 L794.5156,342.8906 C794.5156,341.1094 795.7656,339.7969 797.5,339.7969 C798.0781,339.7969 798.6875,339.9531 799.1563,340.2031 C799.6406,340.4844 799.8125,340.7031 799.9063,341.1094 C799.9688,341.5156 800,341.6406 800.1406,341.7656 C800.2813,341.9063 800.5156,342.0156 800.7344,342.0156 C801,342.0156 801.2656,341.875 801.4375,341.6563 C801.5469,341.5 801.5781,341.3125 801.5781,340.8906 L801.5781,339.4688 C801.5781,339.0313 801.5625,338.9063 801.4688,338.75 C801.3125,338.4844 801.0313,338.3438 800.7344,338.3438 C800.4375,338.3438 800.2344,338.4375 800.0156,338.75 L799.8438,338.6719 Z " fill="#000000"/><text fill="#000000" font-family="sans-serif" font-size="12" lengthAdjust="spacing" textLength="177" x="811.5" y="347.1543">AnalyseSemantiqueException</text><!--MD5=[ba50db504aa44d3991568c4676ed5c26]
class VariableNonDeclaree--><rect fill="#F0F8FF" filter="url(#fj83zntkcfn21)" height="32" id="VariableNonDeclaree" style="stroke:#40E0D0;stroke-width:1.5;" width="159" x="721.5" y="469"/><ellipse cx="736.5" cy="485" fill="#00CED1" rx="11" ry="11" style="stroke:#40E0D0;stroke-width:1.0;"/><path d="M738.8438,480.6719 C737.9063,480.2344 737.3125,480.0938 736.4375,480.0938 C733.8125,480.0938 731.8125,482.1719 731.8125,484.8906 L731.8125,486.0156 C731.8125,488.5938 733.9219,490.4844 736.8125,490.4844 C738.0313,490.4844 739.1875,490.1875 739.9375,489.6406 C740.5156,489.2344 740.8438,488.7813 740.8438,488.3906 C740.8438,487.9375 740.4531,487.5469 739.9844,487.5469 C739.7656,487.5469 739.5625,487.625 739.375,487.8125 C738.9219,488.2969 738.9219,488.2969 738.7344,488.3906 C738.3125,488.6563 737.625,488.7813 736.8594,488.7813 C734.8125,488.7813 733.5156,487.6875 733.5156,485.9844 L733.5156,484.8906 C733.5156,483.1094 734.7656,481.7969 736.5,481.7969 C737.0781,481.7969 737.6875,481.9531 738.1563,482.2031 C738.6406,482.4844 738.8125,482.7031 738.9063,483.1094 C738.9688,483.5156 739,483.6406 739.1406,483.7656 C739.2813,483.9063 739.5156,484.0156 739.7344,484.0156 C740,484.0156 740.2656,483.875 740.4375,483.6563 C740.5469,483.5 740.5781,483.3125 740.5781,482.8906 L740.5781,481.4688 C740.5781,481.0313 740.5625,480.9063 740.4688,480.75 C740.3125,480.4844 740.0313,480.3438 739.7344,480.3438 C739.4375,480.3438 739.2344,480.4375 739.0156,480.75 L738.8438,480.6719 Z " fill="#000000"/><text fill="#000000" font-family="sans-serif" font-size="12" lengthAdjust="spacing" textLength="127" x="750.5" y="489.1543">VariableNonDeclaree</text><!--MD5=[b21bed0d541d942990610ac017f63c24]
class DoubleDeclaration--><rect fill="#F0F8FF" filter="url(#fj83zntkcfn21)" height="32" id="DoubleDeclaration" style="stroke:#40E0D0;stroke-width:1.5;" width="143" x="915.5" y="469"/><ellipse cx="930.5" cy="485" fill="#00CED1" rx="11" ry="11" style="stroke:#40E0D0;stroke-width:1.0;"/><path d="M932.8438,480.6719 C931.9063,480.2344 931.3125,480.0938 930.4375,480.0938 C927.8125,480.0938 925.8125,482.1719 925.8125,484.8906 L925.8125,486.0156 C925.8125,488.5938 927.9219,490.4844 930.8125,490.4844 C932.0313,490.4844 933.1875,490.1875 933.9375,489.6406 C934.5156,489.2344 934.8438,488.7813 934.8438,488.3906 C934.8438,487.9375 934.4531,487.5469 933.9844,487.5469 C933.7656,487.5469 933.5625,487.625 933.375,487.8125 C932.9219,488.2969 932.9219,488.2969 932.7344,488.3906 C932.3125,488.6563 931.625,488.7813 930.8594,488.7813 C928.8125,488.7813 927.5156,487.6875 927.5156,485.9844 L927.5156,484.8906 C927.5156,483.1094 928.7656,481.7969 930.5,481.7969 C931.0781,481.7969 931.6875,481.9531 932.1563,482.2031 C932.6406,482.4844 932.8125,482.7031 932.9063,483.1094 C932.9688,483.5156 933,483.6406 933.1406,483.7656 C933.2813,483.9063 933.5156,484.0156 933.7344,484.0156 C934,484.0156 934.2656,483.875 934.4375,483.6563 C934.5469,483.5 934.5781,483.3125 934.5781,482.8906 L934.5781,481.4688 C934.5781,481.0313 934.5625,480.9063 934.4688,480.75 C934.3125,480.4844 934.0313,480.3438 933.7344,480.3438 C933.4375,480.3438 933.2344,480.4375 933.0156,480.75 L932.8438,480.6719 Z " fill="#000000"/><text fill="#000000" font-family="sans-serif" font-size="12" lengthAdjust="spacing" textLength="111" x="944.5" y="489.1543">DoubleDeclaration</text><!--MD5=[2665c2ba5c70529efefc76e520a11cef]
class ArbreAbstrait--><rect codeLine="24" fill="#F0F8FF" filter="url(#fj83zntkcfn21)" height="99.2188" id="ArbreAbstrait" style="stroke:#40E0D0;stroke-width:1.5;" width="178" x="406" y="7"/><ellipse cx="450.75" cy="23" fill="#FFFF00" rx="11" ry="11" style="stroke:#40E0D0;stroke-width:1.0;"/><path d="M452.8281,24.8125 L453.2188,25.7969 L452.8281,25.7969 C452.375,25.7969 452.2656,25.8125 452.1094,25.9219 C451.8594,26.0781 451.7031,26.3594 451.7031,26.6563 C451.7031,26.9219 451.8438,27.1719 452.0625,27.3281 C452.2031,27.4531 452.4063,27.5 452.8281,27.5 L455.1875,27.5 C455.5469,27.5 455.7656,27.4688 455.9063,27.375 C456.1563,27.2344 456.3125,26.9375 456.3125,26.6563 C456.3125,26.375 456.1719,26.125 455.9531,25.9688 C455.7813,25.8281 455.625,25.7969 455.1563,25.7969 L451.7656,17.5938 L448.0938,17.5938 C447.6406,17.5938 447.5156,17.6094 447.3594,17.7031 C447.1094,17.875 446.9531,18.1563 446.9531,18.4375 C446.9531,18.7188 447.0938,18.9688 447.3125,19.1406 C447.4844,19.25 447.6563,19.2813 448.0938,19.2813 L449.1719,19.2813 L446.5313,25.7969 C446.1094,25.7969 445.9531,25.8125 445.7969,25.9219 C445.5469,26.0781 445.3906,26.3594 445.3906,26.6563 C445.3906,27.2188 445.7656,27.5 446.5156,27.5 L448.7813,27.5 C449.1406,27.5 449.3594,27.4688 449.4844,27.375 C449.75,27.2344 449.8906,26.9375 449.8906,26.6563 C449.8906,26.375 449.7656,26.125 449.5469,25.9531 C449.375,25.8281 449.2344,25.7969 448.7813,25.7969 L448.3906,25.7969 L448.7813,24.8125 L452.8281,24.8125 Z M452.125,23.1094 L449.4531,23.1094 L450.7969,19.8438 L452.125,23.1094 Z " fill="#000000"/><text fill="#000000" font-family="sans-serif" font-size="12" font-style="italic" lengthAdjust="spacing" textLength="80" x="471.25" y="27.1543">ArbreAbstrait</text><line style="stroke:#40E0D0;stroke-width:1.5;" x1="407" x2="583" y1="39" y2="39"/><text fill="#000000" font-family="sans-serif" font-size="11" lengthAdjust="spacing" textLength="63" x="412" y="53.2104">int noLigne</text><line style="stroke:#40E0D0;stroke-width:1.5;" x1="407" x2="583" y1="59.8047" y2="59.8047"/><text fill="#000000" font-family="sans-serif" font-size="11" lengthAdjust="spacing" textLength="166" x="412" y="74.0151">protected ArbreAbstrait(int n)</text><text fill="#000000" font-family="sans-serif" font-size="11" lengthAdjust="spacing" textLength="77" x="412" y="86.8198">void verifier()</text><text fill="#000000" font-family="sans-serif" font-size="11" lengthAdjust="spacing" textLength="82" x="412" y="99.6245">String toMIPS()</text><!--MD5=[73d95de7e47f81fcbe55bf25c4d927c9]
class BlocDInstructions--><rect codeLine="31" fill="#F0F8FF" filter="url(#fj83zntkcfn21)" height="78.4141" id="BlocDInstructions" style="stroke:#40E0D0;stroke-width:1.5;" width="142" x="486" y="166"/><ellipse cx="503.7" cy="182" fill="#00CED1" rx="11" ry="11" style="stroke:#40E0D0;stroke-width:1.0;"/><path d="M506.0438,177.6719 C505.1063,177.2344 504.5125,177.0938 503.6375,177.0938 C501.0125,177.0938 499.0125,179.1719 499.0125,181.8906 L499.0125,183.0156 C499.0125,185.5938 501.1219,187.4844 504.0125,187.4844 C505.2313,187.4844 506.3875,187.1875 507.1375,186.6406 C507.7156,186.2344 508.0438,185.7813 508.0438,185.3906 C508.0438,184.9375 507.6531,184.5469 507.1844,184.5469 C506.9656,184.5469 506.7625,184.625 506.575,184.8125 C506.1219,185.2969 506.1219,185.2969 505.9344,185.3906 C505.5125,185.6563 504.825,185.7813 504.0594,185.7813 C502.0125,185.7813 500.7156,184.6875 500.7156,182.9844 L500.7156,181.8906 C500.7156,180.1094 501.9656,178.7969 503.7,178.7969 C504.2781,178.7969 504.8875,178.9531 505.3563,179.2031 C505.8406,179.4844 506.0125,179.7031 506.1063,180.1094 C506.1688,180.5156 506.2,180.6406 506.3406,180.7656 C506.4813,180.9063 506.7156,181.0156 506.9344,181.0156 C507.2,181.0156 507.4656,180.875 507.6375,180.6563 C507.7469,180.5 507.7781,180.3125 507.7781,179.8906 L507.7781,178.4688 C507.7781,178.0313 507.7625,177.9063 507.6688,177.75 C507.5125,177.4844 507.2313,177.3438 506.9344,177.3438 C506.6375,177.3438 506.4344,177.4375 506.2156,177.75 L506.0438,177.6719 Z " fill="#000000"/><text fill="#000000" font-family="sans-serif" font-size="12" lengthAdjust="spacing" textLength="104" x="518.3" y="186.1543">BlocDInstructions</text><line style="stroke:#40E0D0;stroke-width:1.5;" x1="487" x2="627" y1="198" y2="198"/><text fill="#000000" font-family="sans-serif" font-size="11" lengthAdjust="spacing" textLength="130" x="492" y="212.2104">BlocDInstructions(int n)</text><text fill="#000000" font-family="sans-serif" font-size="11" lengthAdjust="spacing" textLength="77" x="492" y="225.0151">void verifier()</text><text fill="#000000" font-family="sans-serif" font-size="11" lengthAdjust="spacing" textLength="82" x="492" y="237.8198">String toMIPS()</text><!--MD5=[818ce9cd1eb68477d70117a0a20ac581]
class Instruction--><rect codeLine="40" fill="#F0F8FF" filter="url(#fj83zntkcfn21)" height="52.8047" id="Instruction" style="stroke:#40E0D0;stroke-width:1.5;" width="162" x="169" y="178.5"/><ellipse cx="212.8" cy="194.5" fill="#FFFF00" rx="11" ry="11" style="stroke:#40E0D0;stroke-width:1.0;"/><path d="M214.8781,196.3125 L215.2688,197.2969 L214.8781,197.2969 C214.425,197.2969 214.3156,197.3125 214.1594,197.4219 C213.9094,197.5781 213.7531,197.8594 213.7531,198.1563 C213.7531,198.4219 213.8938,198.6719 214.1125,198.8281 C214.2531,198.9531 214.4563,199 214.8781,199 L217.2375,199 C217.5969,199 217.8156,198.9688 217.9563,198.875 C218.2063,198.7344 218.3625,198.4375 218.3625,198.1563 C218.3625,197.875 218.2219,197.625 218.0031,197.4688 C217.8313,197.3281 217.675,197.2969 217.2063,197.2969 L213.8156,189.0938 L210.1438,189.0938 C209.6906,189.0938 209.5656,189.1094 209.4094,189.2031 C209.1594,189.375 209.0031,189.6563 209.0031,189.9375 C209.0031,190.2188 209.1438,190.4688 209.3625,190.6406 C209.5344,190.75 209.7063,190.7813 210.1438,190.7813 L211.2219,190.7813 L208.5813,197.2969 C208.1594,197.2969 208.0031,197.3125 207.8469,197.4219 C207.5969,197.5781 207.4406,197.8594 207.4406,198.1563 C207.4406,198.7188 207.8156,199 208.5656,199 L210.8313,199 C211.1906,199 211.4094,198.9688 211.5344,198.875 C211.8,198.7344 211.9406,198.4375 211.9406,198.1563 C211.9406,197.875 211.8156,197.625 211.5969,197.4531 C211.425,197.3281 211.2844,197.2969 210.8313,197.2969 L210.4406,197.2969 L210.8313,196.3125 L214.8781,196.3125 Z M214.175,194.6094 L211.5031,194.6094 L212.8469,191.3438 L214.175,194.6094 Z " fill="#000000"/><text fill="#000000" font-family="sans-serif" font-size="12" font-style="italic" lengthAdjust="spacing" textLength="66" x="233.2" y="198.6543">Instruction</text><line style="stroke:#40E0D0;stroke-width:1.5;" x1="170" x2="330" y1="210.5" y2="210.5"/><text fill="#000000" font-family="sans-serif" font-size="11" lengthAdjust="spacing" textLength="150" x="175" y="224.7104">protected Instruction(int n)</text><!--MD5=[803d1f021113bee9848829294f1523be]
class Ecrire--><rect codeLine="46" fill="#F0F8FF" filter="url(#fj83zntkcfn21)" height="78.4141" id="Ecrire" style="stroke:#40E0D0;stroke-width:1.5;" width="94" x="7" y="304"/><ellipse cx="34.15" cy="320" fill="#00CED1" rx="11" ry="11" style="stroke:#40E0D0;stroke-width:1.0;"/><path d="M36.4938,315.6719 C35.5563,315.2344 34.9625,315.0938 34.0875,315.0938 C31.4625,315.0938 29.4625,317.1719 29.4625,319.8906 L29.4625,321.0156 C29.4625,323.5938 31.5719,325.4844 34.4625,325.4844 C35.6813,325.4844 36.8375,325.1875 37.5875,324.6406 C38.1656,324.2344 38.4938,323.7813 38.4938,323.3906 C38.4938,322.9375 38.1031,322.5469 37.6344,322.5469 C37.4156,322.5469 37.2125,322.625 37.025,322.8125 C36.5719,323.2969 36.5719,323.2969 36.3844,323.3906 C35.9625,323.6563 35.275,323.7813 34.5094,323.7813 C32.4625,323.7813 31.1656,322.6875 31.1656,320.9844 L31.1656,319.8906 C31.1656,318.1094 32.4156,316.7969 34.15,316.7969 C34.7281,316.7969 35.3375,316.9531 35.8063,317.2031 C36.2906,317.4844 36.4625,317.7031 36.5563,318.1094 C36.6188,318.5156 36.65,318.6406 36.7906,318.7656 C36.9313,318.9063 37.1656,319.0156 37.3844,319.0156 C37.65,319.0156 37.9156,318.875 38.0875,318.6563 C38.1969,318.5 38.2281,318.3125 38.2281,317.8906 L38.2281,316.4688 C38.2281,316.0313 38.2125,315.9063 38.1188,315.75 C37.9625,315.4844 37.6813,315.3438 37.3844,315.3438 C37.0875,315.3438 36.8844,315.4375 36.6656,315.75 L36.4938,315.6719 Z " fill="#000000"/><text fill="#000000" font-family="sans-serif" font-size="12" lengthAdjust="spacing" textLength="35" x="50.85" y="324.1543">Ecrire</text><line style="stroke:#40E0D0;stroke-width:1.5;" x1="8" x2="100" y1="336" y2="336"/><text fill="#000000" font-family="sans-serif" font-size="11" lengthAdjust="spacing" textLength="65" x="13" y="350.2104">Ecrire(int n)</text><text fill="#000000" font-family="sans-serif" font-size="11" lengthAdjust="spacing" textLength="77" x="13" y="363.0151">void verifier()</text><text fill="#000000" font-family="sans-serif" font-size="11" lengthAdjust="spacing" textLength="82" x="13" y="375.8198">String toMIPS()</text><!--MD5=[6b08a9d313da440d8adfee65b6170004]
class Affectation--><rect codeLine="54" fill="#F0F8FF" filter="url(#fj83zntkcfn21)" height="78.4141" id="Affectation" style="stroke:#40E0D0;stroke-width:1.5;" width="227" x="136.5" y="304"/><ellipse cx="213.75" cy="320" fill="#00CED1" rx="11" ry="11" style="stroke:#40E0D0;stroke-width:1.0;"/><path d="M216.0938,315.6719 C215.1563,315.2344 214.5625,315.0938 213.6875,315.0938 C211.0625,315.0938 209.0625,317.1719 209.0625,319.8906 L209.0625,321.0156 C209.0625,323.5938 211.1719,325.4844 214.0625,325.4844 C215.2813,325.4844 216.4375,325.1875 217.1875,324.6406 C217.7656,324.2344 218.0938,323.7813 218.0938,323.3906 C218.0938,322.9375 217.7031,322.5469 217.2344,322.5469 C217.0156,322.5469 216.8125,322.625 216.625,322.8125 C216.1719,323.2969 216.1719,323.2969 215.9844,323.3906 C215.5625,323.6563 214.875,323.7813 214.1094,323.7813 C212.0625,323.7813 210.7656,322.6875 210.7656,320.9844 L210.7656,319.8906 C210.7656,318.1094 212.0156,316.7969 213.75,316.7969 C214.3281,316.7969 214.9375,316.9531 215.4063,317.2031 C215.8906,317.4844 216.0625,317.7031 216.1563,318.1094 C216.2188,318.5156 216.25,318.6406 216.3906,318.7656 C216.5313,318.9063 216.7656,319.0156 216.9844,319.0156 C217.25,319.0156 217.5156,318.875 217.6875,318.6563 C217.7969,318.5 217.8281,318.3125 217.8281,317.8906 L217.8281,316.4688 C217.8281,316.0313 217.8125,315.9063 217.7188,315.75 C217.5625,315.4844 217.2813,315.3438 216.9844,315.3438 C216.6875,315.3438 216.4844,315.4375 216.2656,315.75 L216.0938,315.6719 Z " fill="#000000"/><text fill="#000000" font-family="sans-serif" font-size="12" lengthAdjust="spacing" textLength="64" x="234.25" y="324.1543">Affectation</text><line style="stroke:#40E0D0;stroke-width:1.5;" x1="137.5" x2="362.5" y1="336" y2="336"/><text fill="#000000" font-family="sans-serif" font-size="11" lengthAdjust="spacing" textLength="215" x="142.5" y="350.2104">Affectation(Idf idf, Expression e, int n)</text><text fill="#000000" font-family="sans-serif" font-size="11" lengthAdjust="spacing" textLength="77" x="142.5" y="363.0151">void verifier()</text><text fill="#000000" font-family="sans-serif" font-size="11" lengthAdjust="spacing" textLength="82" x="142.5" y="375.8198">String toMIPS()</text><!--MD5=[3637e2e3ff64f8c7ec072f5df5e3a1dc]
class Expression--><rect codeLine="64" fill="#F0F8FF" filter="url(#fj83zntkcfn21)" height="52.8047" id="Expression" style="stroke:#40E0D0;stroke-width:1.5;" width="166" x="399" y="316.5"/><ellipse cx="445.25" cy="332.5" fill="#FFFF00" rx="11" ry="11" style="stroke:#40E0D0;stroke-width:1.0;"/><path d="M447.3281,334.3125 L447.7188,335.2969 L447.3281,335.2969 C446.875,335.2969 446.7656,335.3125 446.6094,335.4219 C446.3594,335.5781 446.2031,335.8594 446.2031,336.1563 C446.2031,336.4219 446.3438,336.6719 446.5625,336.8281 C446.7031,336.9531 446.9063,337 447.3281,337 L449.6875,337 C450.0469,337 450.2656,336.9688 450.4063,336.875 C450.6563,336.7344 450.8125,336.4375 450.8125,336.1563 C450.8125,335.875 450.6719,335.625 450.4531,335.4688 C450.2813,335.3281 450.125,335.2969 449.6563,335.2969 L446.2656,327.0938 L442.5938,327.0938 C442.1406,327.0938 442.0156,327.1094 441.8594,327.2031 C441.6094,327.375 441.4531,327.6563 441.4531,327.9375 C441.4531,328.2188 441.5938,328.4688 441.8125,328.6406 C441.9844,328.75 442.1563,328.7813 442.5938,328.7813 L443.6719,328.7813 L441.0313,335.2969 C440.6094,335.2969 440.4531,335.3125 440.2969,335.4219 C440.0469,335.5781 439.8906,335.8594 439.8906,336.1563 C439.8906,336.7188 440.2656,337 441.0156,337 L443.2813,337 C443.6406,337 443.8594,336.9688 443.9844,336.875 C444.25,336.7344 444.3906,336.4375 444.3906,336.1563 C444.3906,335.875 444.2656,335.625 444.0469,335.4531 C443.875,335.3281 443.7344,335.2969 443.2813,335.2969 L442.8906,335.2969 L443.2813,334.3125 L447.3281,334.3125 Z M446.625,332.6094 L443.9531,332.6094 L445.2969,329.3438 L446.625,332.6094 Z " fill="#000000"/><text fill="#000000" font-family="sans-serif" font-size="12" font-style="italic" lengthAdjust="spacing" textLength="65" x="465.75" y="336.6543">Expression</text><line style="stroke:#40E0D0;stroke-width:1.5;" x1="400" x2="564" y1="348.5" y2="348.5"/><text fill="#000000" font-family="sans-serif" font-size="11" lengthAdjust="spacing" textLength="154" x="405" y="362.7104">protected Expression(int n)</text><!--MD5=[8bf1e18625b28affd47f46859604c28f]
class Idf--><rect codeLine="88" fill="#F0F8FF" filter="url(#fj83zntkcfn21)" height="65.6094" id="Idf" style="stroke:#40E0D0;stroke-width:1.5;" width="134" x="600" y="310"/><ellipse cx="655.25" cy="326" fill="#00CED1" rx="11" ry="11" style="stroke:#40E0D0;stroke-width:1.0;"/><path d="M657.5938,321.6719 C656.6563,321.2344 656.0625,321.0938 655.1875,321.0938 C652.5625,321.0938 650.5625,323.1719 650.5625,325.8906 L650.5625,327.0156 C650.5625,329.5938 652.6719,331.4844 655.5625,331.4844 C656.7813,331.4844 657.9375,331.1875 658.6875,330.6406 C659.2656,330.2344 659.5938,329.7813 659.5938,329.3906 C659.5938,328.9375 659.2031,328.5469 658.7344,328.5469 C658.5156,328.5469 658.3125,328.625 658.125,328.8125 C657.6719,329.2969 657.6719,329.2969 657.4844,329.3906 C657.0625,329.6563 656.375,329.7813 655.6094,329.7813 C653.5625,329.7813 652.2656,328.6875 652.2656,326.9844 L652.2656,325.8906 C652.2656,324.1094 653.5156,322.7969 655.25,322.7969 C655.8281,322.7969 656.4375,322.9531 656.9063,323.2031 C657.3906,323.4844 657.5625,323.7031 657.6563,324.1094 C657.7188,324.5156 657.75,324.6406 657.8906,324.7656 C658.0313,324.9063 658.2656,325.0156 658.4844,325.0156 C658.75,325.0156 659.0156,324.875 659.1875,324.6563 C659.2969,324.5 659.3281,324.3125 659.3281,323.8906 L659.3281,322.4688 C659.3281,322.0313 659.3125,321.9063 659.2188,321.75 C659.0625,321.4844 658.7813,321.3438 658.4844,321.3438 C658.1875,321.3438 657.9844,321.4375 657.7656,321.75 L657.5938,321.6719 Z " fill="#000000"/><text fill="#000000" font-family="sans-serif" font-size="12" lengthAdjust="spacing" textLength="15" x="675.75" y="330.1543">Idf</text><line style="stroke:#40E0D0;stroke-width:1.5;" x1="601" x2="733" y1="342" y2="342"/><text fill="#000000" font-family="sans-serif" font-size="11" lengthAdjust="spacing" textLength="122" x="606" y="356.2104">Idf(String texte, int n)</text><text fill="#000000" font-family="sans-serif" font-size="11" lengthAdjust="spacing" textLength="82" x="606" y="369.0151">String toMIPS()</text><!--MD5=[4f690aa9c8cbc9d2fcd8ae473aedfe2c]
class Constante--><rect codeLine="71" fill="#F0F8FF" filter="url(#fj83zntkcfn21)" height="86.4141" id="Constante" style="stroke:#40E0D0;stroke-width:1.5;" width="237" x="363.5" y="442"/><ellipse cx="447.25" cy="458" fill="#FFFF00" rx="11" ry="11" style="stroke:#40E0D0;stroke-width:1.0;"/><path d="M449.3281,459.8125 L449.7188,460.7969 L449.3281,460.7969 C448.875,460.7969 448.7656,460.8125 448.6094,460.9219 C448.3594,461.0781 448.2031,461.3594 448.2031,461.6563 C448.2031,461.9219 448.3438,462.1719 448.5625,462.3281 C448.7031,462.4531 448.9063,462.5 449.3281,462.5 L451.6875,462.5 C452.0469,462.5 452.2656,462.4688 452.4063,462.375 C452.6563,462.2344 452.8125,461.9375 452.8125,461.6563 C452.8125,461.375 452.6719,461.125 452.4531,460.9688 C452.2813,460.8281 452.125,460.7969 451.6563,460.7969 L448.2656,452.5938 L444.5938,452.5938 C444.1406,452.5938 444.0156,452.6094 443.8594,452.7031 C443.6094,452.875 443.4531,453.1563 443.4531,453.4375 C443.4531,453.7188 443.5938,453.9688 443.8125,454.1406 C443.9844,454.25 444.1563,454.2813 444.5938,454.2813 L445.6719,454.2813 L443.0313,460.7969 C442.6094,460.7969 442.4531,460.8125 442.2969,460.9219 C442.0469,461.0781 441.8906,461.3594 441.8906,461.6563 C441.8906,462.2188 442.2656,462.5 443.0156,462.5 L445.2813,462.5 C445.6406,462.5 445.8594,462.4688 445.9844,462.375 C446.25,462.2344 446.3906,461.9375 446.3906,461.6563 C446.3906,461.375 446.2656,461.125 446.0469,460.9531 C445.875,460.8281 445.7344,460.7969 445.2813,460.7969 L444.8906,460.7969 L445.2813,459.8125 L449.3281,459.8125 Z M448.625,458.1094 L445.9531,458.1094 L447.2969,454.8438 L448.625,458.1094 Z " fill="#000000"/><text fill="#000000" font-family="sans-serif" font-size="12" font-style="italic" lengthAdjust="spacing" textLength="61" x="467.75" y="462.1543">Constante</text><line style="stroke:#40E0D0;stroke-width:1.5;" x1="364.5" x2="599.5" y1="474" y2="474"/><text fill="#000000" font-family="sans-serif" font-size="11" lengthAdjust="spacing" textLength="61" x="369.5" y="488.2104">String cste</text><line style="stroke:#40E0D0;stroke-width:1.5;" x1="364.5" x2="599.5" y1="494.8047" y2="494.8047"/><text fill="#000000" font-family="sans-serif" font-size="11" lengthAdjust="spacing" textLength="225" x="369.5" y="509.0151">protected Constante(String texte, int n)</text><text fill="#000000" font-family="sans-serif" font-size="11" lengthAdjust="spacing" textLength="74" x="369.5" y="521.8198">void verfier()</text><!--MD5=[9a578f9ac222d24f389750fad02fc371]
class ConstanteEntiere--><rect codeLine="80" fill="#F0F8FF" filter="url(#fj83zntkcfn21)" height="65.6094" id="ConstanteEntiere" style="stroke:#40E0D0;stroke-width:1.5;" width="219" x="372.5" y="588"/><ellipse cx="426.75" cy="604" fill="#00CED1" rx="11" ry="11" style="stroke:#40E0D0;stroke-width:1.0;"/><path d="M429.0938,599.6719 C428.1563,599.2344 427.5625,599.0938 426.6875,599.0938 C424.0625,599.0938 422.0625,601.1719 422.0625,603.8906 L422.0625,605.0156 C422.0625,607.5938 424.1719,609.4844 427.0625,609.4844 C428.2813,609.4844 429.4375,609.1875 430.1875,608.6406 C430.7656,608.2344 431.0938,607.7813 431.0938,607.3906 C431.0938,606.9375 430.7031,606.5469 430.2344,606.5469 C430.0156,606.5469 429.8125,606.625 429.625,606.8125 C429.1719,607.2969 429.1719,607.2969 428.9844,607.3906 C428.5625,607.6563 427.875,607.7813 427.1094,607.7813 C425.0625,607.7813 423.7656,606.6875 423.7656,604.9844 L423.7656,603.8906 C423.7656,602.1094 425.0156,600.7969 426.75,600.7969 C427.3281,600.7969 427.9375,600.9531 428.4063,601.2031 C428.8906,601.4844 429.0625,601.7031 429.1563,602.1094 C429.2188,602.5156 429.25,602.6406 429.3906,602.7656 C429.5313,602.9063 429.7656,603.0156 429.9844,603.0156 C430.25,603.0156 430.5156,602.875 430.6875,602.6563 C430.7969,602.5 430.8281,602.3125 430.8281,601.8906 L430.8281,600.4688 C430.8281,600.0313 430.8125,599.9063 430.7188,599.75 C430.5625,599.4844 430.2813,599.3438 429.9844,599.3438 C429.6875,599.3438 429.4844,599.4375 429.2656,599.75 L429.0938,599.6719 Z " fill="#000000"/><text fill="#000000" font-family="sans-serif" font-size="12" lengthAdjust="spacing" textLength="102" x="447.25" y="608.1543">ConstanteEntiere</text><line style="stroke:#40E0D0;stroke-width:1.5;" x1="373.5" x2="590.5" y1="620" y2="620"/><text fill="#000000" font-family="sans-serif" font-size="11" lengthAdjust="spacing" textLength="207" x="378.5" y="634.2104">ConstanteEntiere(String texte, int n)</text><text fill="#000000" font-family="sans-serif" font-size="11" lengthAdjust="spacing" textLength="82" x="378.5" y="647.0151">String toMIPS()</text><!--MD5=[c26568296462371c3a12de295f19cef5]
class Symbole--><rect codeLine="93" fill="#F0F8FF" filter="url(#fj83zntkcfn21)" height="32" id="Symbole" style="stroke:#40E0D0;stroke-width:1.5;" width="85" x="1224.5" y="40.5"/><ellipse cx="1239.5" cy="56.5" fill="#00CED1" rx="11" ry="11" style="stroke:#40E0D0;stroke-width:1.0;"/><path d="M1241.8438,52.1719 C1240.9063,51.7344 1240.3125,51.5938 1239.4375,51.5938 C1236.8125,51.5938 1234.8125,53.6719 1234.8125,56.3906 L1234.8125,57.5156 C1234.8125,60.0938 1236.9219,61.9844 1239.8125,61.9844 C1241.0313,61.9844 1242.1875,61.6875 1242.9375,61.1406 C1243.5156,60.7344 1243.8438,60.2813 1243.8438,59.8906 C1243.8438,59.4375 1243.4531,59.0469 1242.9844,59.0469 C1242.7656,59.0469 1242.5625,59.125 1242.375,59.3125 C1241.9219,59.7969 1241.9219,59.7969 1241.7344,59.8906 C1241.3125,60.1563 1240.625,60.2813 1239.8594,60.2813 C1237.8125,60.2813 1236.5156,59.1875 1236.5156,57.4844 L1236.5156,56.3906 C1236.5156,54.6094 1237.7656,53.2969 1239.5,53.2969 C1240.0781,53.2969 1240.6875,53.4531 1241.1563,53.7031 C1241.6406,53.9844 1241.8125,54.2031 1241.9063,54.6094 C1241.9688,55.0156 1242,55.1406 1242.1406,55.2656 C1242.2813,55.4063 1242.5156,55.5156 1242.7344,55.5156 C1243,55.5156 1243.2656,55.375 1243.4375,55.1563 C1243.5469,55 1243.5781,54.8125 1243.5781,54.3906 L1243.5781,52.9688 C1243.5781,52.5313 1243.5625,52.4063 1243.4688,52.25 C1243.3125,51.9844 1243.0313,51.8438 1242.7344,51.8438 C1242.4375,51.8438 1242.2344,51.9375 1242.0156,52.25 L1241.8438,52.1719 Z " fill="#000000"/><text fill="#000000" font-family="sans-serif" font-size="12" lengthAdjust="spacing" textLength="53" x="1253.5" y="60.6543">Symbole</text><!--MD5=[9fd4d3b135ff4f433a9c0e8b9d005dc6]
class TDS--><rect codeLine="96" fill="#F0F8FF" filter="url(#fj83zntkcfn21)" height="32" id="TDS" style="stroke:#40E0D0;stroke-width:1.5;" width="56" x="1345" y="40.5"/><ellipse cx="1360" cy="56.5" fill="#00CED1" rx="11" ry="11" style="stroke:#40E0D0;stroke-width:1.0;"/><path d="M1362.3438,52.1719 C1361.4063,51.7344 1360.8125,51.5938 1359.9375,51.5938 C1357.3125,51.5938 1355.3125,53.6719 1355.3125,56.3906 L1355.3125,57.5156 C1355.3125,60.0938 1357.4219,61.9844 1360.3125,61.9844 C1361.5313,61.9844 1362.6875,61.6875 1363.4375,61.1406 C1364.0156,60.7344 1364.3438,60.2813 1364.3438,59.8906 C1364.3438,59.4375 1363.9531,59.0469 1363.4844,59.0469 C1363.2656,59.0469 1363.0625,59.125 1362.875,59.3125 C1362.4219,59.7969 1362.4219,59.7969 1362.2344,59.8906 C1361.8125,60.1563 1361.125,60.2813 1360.3594,60.2813 C1358.3125,60.2813 1357.0156,59.1875 1357.0156,57.4844 L1357.0156,56.3906 C1357.0156,54.6094 1358.2656,53.2969 1360,53.2969 C1360.5781,53.2969 1361.1875,53.4531 1361.6563,53.7031 C1362.1406,53.9844 1362.3125,54.2031 1362.4063,54.6094 C1362.4688,55.0156 1362.5,55.1406 1362.6406,55.2656 C1362.7813,55.4063 1363.0156,55.5156 1363.2344,55.5156 C1363.5,55.5156 1363.7656,55.375 1363.9375,55.1563 C1364.0469,55 1364.0781,54.8125 1364.0781,54.3906 L1364.0781,52.9688 C1364.0781,52.5313 1364.0625,52.4063 1363.9688,52.25 C1363.8125,51.9844 1363.5313,51.8438 1363.2344,51.8438 C1362.9375,51.8438 1362.7344,51.9375 1362.5156,52.25 L1362.3438,52.1719 Z " fill="#000000"/><text fill="#000000" font-family="sans-serif" font-size="12" lengthAdjust="spacing" textLength="24" x="1374" y="60.6543">TDS</text><!--MD5=[093103bafefb4b7fd520c0c66f617092]
reverse link RuntimeException to AnalyseException--><path codeLine="16" d="M1120,92.687 C1120,123.293 1120,166.174 1120,188.737 " fill="none" id="RuntimeException-backto-AnalyseException" style="stroke:#00CED1;stroke-width:1.0;"/><polygon fill="none" points="1113,92.626,1120,72.626,1127,92.626,1113,92.626" style="stroke:#00CED1;stroke-width:1.0;"/><!--MD5=[bd53a35e9096d074f7fb8193f3ab19a1]
reverse link AnalyseException to AnalyseLexicaleException--><path codeLine="18" d="M1120,241.164 C1120,268.926 1120,306.296 1120,326.858 " fill="none" id="AnalyseException-backto-AnalyseLexicaleException" style="stroke:#00CED1;stroke-width:1.0;"/><polygon fill="none" points="1113,241.074,1120,221.074,1127,241.074,1113,241.074" style="stroke:#00CED1;stroke-width:1.0;"/><!--MD5=[fc4d7b43180e87921c51cff1a9cabbc3]
reverse link AnalyseException to AnalyseSyntaxiqueException--><path codeLine="19" d="M1162.98,231.302 C1210.65,259.37 1286.01,303.739 1325.28,326.858 " fill="none" id="AnalyseException-backto-AnalyseSyntaxiqueException" style="stroke:#00CED1;stroke-width:1.0;"/><polygon fill="none" points="1159.29,237.253,1145.6,221.074,1166.39,225.189,1159.29,237.253" style="stroke:#00CED1;stroke-width:1.0;"/><!--MD5=[6f9a5644850414f073c3d65a5c2a1410]
reverse link AnalyseException to AnalyseSemantiqueException--><path codeLine="20" d="M1076.65,231.302 C1028.57,259.37 952.551,303.739 912.941,326.858 " fill="none" id="AnalyseException-backto-AnalyseSemantiqueException" style="stroke:#00CED1;stroke-width:1.0;"/><polygon fill="none" points="1073.37,225.111,1094.17,221.074,1080.43,237.202,1073.37,225.111" style="stroke:#00CED1;stroke-width:1.0;"/><!--MD5=[1ad2bce2741e0507011fb00256e31e42]
reverse link AnalyseSemantiqueException to VariableNonDeclaree--><path codeLine="21" d="M866.954,376.632 C849.128,405.653 823.855,446.795 810.356,468.77 " fill="none" id="AnalyseSemantiqueException-backto-VariableNonDeclaree" style="stroke:#00CED1;stroke-width:1.0;"/><polygon fill="none" points="861.2,372.627,877.633,359.249,873.129,379.954,861.2,372.627" style="stroke:#00CED1;stroke-width:1.0;"/><!--MD5=[98720e296c973dddbe03991a559def65]
reverse link AnalyseSemantiqueException to DoubleDeclaration--><path codeLine="22" d="M909.716,375.803 C930.474,404.863 960.275,446.584 976.121,468.77 " fill="none" id="AnalyseSemantiqueException-backto-DoubleDeclaration" style="stroke:#00CED1;stroke-width:1.0;"/><polygon fill="none" points="903.821,379.592,897.892,359.249,915.213,371.455,903.821,379.592" style="stroke:#00CED1;stroke-width:1.0;"/><!--MD5=[9cf84aeaf8545ae860f6e0be91faace4]
reverse link ArbreAbstrait to BlocDInstructions--><path codeLine="37" d="M510.829,124.945 C516.563,138.901 523.038,153.139 529.388,165.617 " fill="none" id="ArbreAbstrait-backto-BlocDInstructions" style="stroke:#00CED1;stroke-width:1.0;"/><polygon fill="none" points="504.296,127.459,503.55,106.282,517.339,122.371,504.296,127.459" style="stroke:#00CED1;stroke-width:1.0;"/><!--MD5=[71fe2b3565c96dc4c4945a4f150baf9a]
link ArbreAbstrait to BlocDInstructions--><path codeLine="38" d="M528.452,106.282 C537.758,125.593 546.758,147.467 552.793,165.617 " fill="none" id="ArbreAbstrait-BlocDInstructions" style="stroke:#00CED1;stroke-width:1.0;"/><text fill="#000000" font-family="sans-serif" font-size="13" lengthAdjust="spacing" textLength="7" x="525.664" y="126.3981">*</text><!--MD5=[3be2716bc7ff17a87ff36b40b2ec342b]
reverse link ArbreAbstrait to Instruction--><path codeLine="44" d="M396.373,116.475 C360.371,138.002 321.508,161.241 292.88,178.359 " fill="none" id="ArbreAbstrait-backto-Instruction" style="stroke:#00CED1;stroke-width:1.0;"/><polygon fill="none" points="393.001,110.335,413.759,106.079,400.186,122.351,393.001,110.335" style="stroke:#00CED1;stroke-width:1.0;"/><!--MD5=[42605971b776ea6a3cb71be1043c887b]
reverse link Instruction to Ecrire--><path codeLine="52" d="M196.49,243.13 C166.657,263.83 129.842,289.375 101.1066,309.314 " fill="none" id="Instruction-backto-Ecrire" style="stroke:#00CED1;stroke-width:1.0;"/><polygon fill="none" points="192.712,237.231,213.134,231.581,200.693,248.733,192.712,237.231" style="stroke:#00CED1;stroke-width:1.0;"/><!--MD5=[5493ab538f51d991d513955fb24ab485]
reverse link Instruction to Affectation--><path codeLine="60" d="M250,251.609 C250,268.601 250,287.693 250,303.937 " fill="none" id="Instruction-backto-Affectation" style="stroke:#00CED1;stroke-width:1.0;"/><polygon fill="none" points="243,251.581,250,231.581,257,251.581,243,251.581" style="stroke:#00CED1;stroke-width:1.0;"/><!--MD5=[d6ae615eca8386a6907b4db61013d5d0]
link Affectation to Expression--><path codeLine="61" d="M363.734,343 C375.438,343 387.141,343 398.844,343 " fill="none" id="Affectation-Expression" style="stroke:#00CED1;stroke-width:1.0;"/><text fill="#000000" font-family="sans-serif" font-size="13" lengthAdjust="spacing" textLength="8" x="383.0817" y="339.4135">1</text><!--MD5=[315042014571a037fefe573ae7a71485]
link Affectation to Idf--><path codeLine="62" d="M318.044,303.828 C342.584,291.768 371.019,280.073 398.5,274 C470.54,258.081 493.936,252.462 564.5,274 C588.095,281.202 611.175,295.857 629.442,309.816 " fill="none" id="Affectation-Idf" style="stroke:#00CED1;stroke-width:1.0;"/><text fill="#000000" font-family="sans-serif" font-size="13" lengthAdjust="spacing" textLength="8" x="613.2603" y="298.9248">1</text><!--MD5=[3876918391483bae82ee5d21cc1e3e60]
reverse link ArbreAbstrait to Expression--><path codeLine="68" d="M475.354,125.671 C472.295,138.94 469.615,152.822 468,166 C463.783,200.409 465.543,209.421 468,244 C469.754,268.686 473.965,296.608 477.313,316.315 " fill="none" id="ArbreAbstrait-backto-Expression" style="stroke:#00CED1;stroke-width:1.0;"/><polygon fill="none" points="468.583,123.896,480.201,106.176,482.169,127.274,468.583,123.896" style="stroke:#00CED1;stroke-width:1.0;"/><!--MD5=[92ce6600ae449073206cb7f98e8b025c]
link Ecrire to Expression--><path codeLine="69" d="M89.8308,303.729 C103.1786,291.82 119.3,280.245 136.5,274 C231.332,239.57 266.097,247.708 363.5,274 C394.183,282.282 425.091,300.691 447.644,316.412 " fill="none" id="Ecrire-Expression" style="stroke:#00CED1;stroke-width:1.0;"/><text fill="#000000" font-family="sans-serif" font-size="13" lengthAdjust="spacing" textLength="8" x="430.7742" y="305.634">1</text><!--MD5=[07c66e9942106b6c78a615d8a96ac5e1]
reverse link Expression to Constante--><path codeLine="77" d="M482,389.82 C482,406.622 482,425.544 482,441.995 " fill="none" id="Expression-backto-Constante" style="stroke:#00CED1;stroke-width:1.0;"/><polygon fill="none" points="475,389.678,482,369.678,489,389.678,475,389.678" style="stroke:#00CED1;stroke-width:1.0;"/><!--MD5=[10740e7c3af92918765b64ed4b4d42a7]
reverse link Constante to ConstanteEntiere--><path codeLine="85" d="M482,548.322 C482,562.0216 482,575.9833 482,587.901 " fill="none" id="Constante-backto-ConstanteEntiere" style="stroke:#00CED1;stroke-width:1.0;"/><polygon fill="none" points="475,548.031,482,528.031,489,548.031,475,548.031" style="stroke:#00CED1;stroke-width:1.0;"/><!--MD5=[40a82998caccbbdad69756e79db8223d]
@startuml
skinparam class {
BackgroundColor AliceBlue
ArrowColor DarkTurquoise
BorderColor Turquoise
}

skinparam stereotypeCBackgroundColor DarkTurquoise
skinparam stereotypeIBackgroundColor Magenta
skinparam stereotypeABackgroundColor Yellow

hide stereotype
hide empty member

abstract class AnalyseException

AnalyseException -up-|> RuntimeException

AnalyseLexicaleException -up-|> AnalyseException
AnalyseSyntaxiqueException -up-|> AnalyseException
AnalyseSemantiqueException -up-|> AnalyseException
VariableNonDeclaree -up-|> AnalyseSemantiqueException
DoubleDeclaration -up-|> AnalyseSemantiqueException

abstract class ArbreAbstrait {
   int noLigne
   protected ArbreAbstrait(int n)
   void verifier()
   String toMIPS()
}

class BlocDInstructions {
   BlocDInstructions(int n)
   void verifier()
   String toMIPS()
}

BlocDInstructions -up-|> ArbreAbstrait
BlocDInstructions -up- "*" ArbreAbstrait

abstract class Instruction {
   protected Instruction(int n)
}

Instruction -up-|> ArbreAbstrait

class Ecrire {
   Ecrire(int n)
   void verifier()
   String toMIPS()
}

Ecrire  -up-|> Instruction

class Affectation {
   Affectation(Idf idf, Expression e, int n)
   void verifier()
   String toMIPS()
}

Affectation  -up-|> Instruction
Affectation - "1" Expression
Affectation - "1" Idf

abstract class Expression {
   protected Expression(int n)
}

Expression  -up-|> ArbreAbstrait
Ecrire - "1" Expression

abstract class Constante {
   String cste
   protected Constante(String texte, int n)
   void verfier()
}

Constante  -up-|> Expression


class ConstanteEntiere {
   ConstanteEntiere(String texte, int n)
   String toMIPS()
}

ConstanteEntiere  -up-|> Constante


class Idf {
   Idf(String texte, int n)
   String toMIPS()
}

class Symbole {
}

class TDS{
}
@enduml

PlantUML version 1.2022.2beta1(Unknown compile time)
(GPL source distribution)
Java Runtime: Java(TM) SE Runtime Environment
JVM: Java HotSpot(TM) 64-Bit Server VM
Default Encoding: UTF-8
Language: en
Country: US
--></g><script xmlns=""/></svg>